<svg width="270" height="162" viewBox="0 0 270 162" fill="none" xmlns="http://www.w3.org/2000/svg">
<path fill-rule="evenodd" clip-rule="evenodd" d="M41.9075 160.928V151.244H48.1575V152.853H43.9865V155.187H47.8762V156.797H43.9865V160.928H41.9075Z" fill="#522C6C"/>
<path fill-rule="evenodd" clip-rule="evenodd" d="M50.5588 151.244H57.0501V152.853H52.6378V155.12H56.7688V156.729H52.6378V159.318H57.1982V160.928H50.5588V151.244Z" fill="#522C6C"/>
<path fill-rule="evenodd" clip-rule="evenodd" d="M60.1891 160.928V151.244H63.4883C66.5062 151.217 68.384 152.719 68.384 156.085C68.384 159.452 66.5062 160.955 63.4883 160.928H60.1891ZM62.2681 152.853V159.318H63.3411C65.8094 159.344 66.1709 157.628 66.1709 156.085C66.1709 154.543 65.8094 152.826 63.3411 152.853H62.2681Z" fill="#522C6C"/>
<path fill-rule="evenodd" clip-rule="evenodd" d="M71.1206 151.244H77.6119V152.853H73.1987V155.12H77.3306V156.729H73.1987V159.318H77.76V160.928H71.1206V151.244Z" fill="#522C6C"/>
<path fill-rule="evenodd" clip-rule="evenodd" d="M82.7628 157.024H84.962C85.6457 157.051 85.7807 157.789 85.8339 158.325C85.9279 159.197 86.022 160.069 86.1962 160.928H88.4903C88.101 160.391 88.0209 159.251 87.9268 158.634C87.7517 157.293 87.7517 156.313 86.1561 156.139V156.112C87.3494 155.857 88.1681 155.026 88.1681 153.765C88.1681 151.793 86.4645 151.257 84.8018 151.244H80.6838V160.928H82.7628V157.024ZM82.7628 152.853H84.5065C85.4184 152.866 85.9549 153.228 85.9549 154.087C85.9549 154.946 85.4184 155.402 84.5065 155.415H82.7628V152.853Z" fill="#522C6C"/>
<path fill-rule="evenodd" clip-rule="evenodd" d="M92.3261 160.928L93.0498 158.876H96.8865L97.5832 160.928H99.6762L96.3099 151.244H93.8415L90.3411 160.928H92.3261ZM93.5864 157.266L95.0086 153.135H95.0356L96.363 157.266H93.5864Z" fill="#522C6C"/>
<path fill-rule="evenodd" clip-rule="evenodd" d="M102.117 160.928V151.244H104.196V159.318H108.395V160.928H102.117Z" fill="#522C6C"/>
<path fill-rule="evenodd" clip-rule="evenodd" d="M121.431 154.383C121.445 153.363 120.828 152.545 119.58 152.545C118.105 152.545 117.73 154.731 117.73 156.085C117.73 157.44 118.105 159.627 119.58 159.627C120.828 159.627 121.445 158.809 121.431 157.789H123.644C123.551 160.216 121.807 161.129 119.58 161.129C116.778 161.129 115.516 158.916 115.516 156.085C115.516 153.255 116.778 151.042 119.58 151.042C121.807 151.042 123.551 151.954 123.644 154.383H121.431Z" fill="#522C6C"/>
<path fill-rule="evenodd" clip-rule="evenodd" d="M128.232 157.024H130.432C131.115 157.051 131.25 157.789 131.304 158.325C131.398 159.197 131.492 160.069 131.666 160.928H133.959C133.57 160.391 133.49 159.251 133.396 158.634C133.221 157.293 133.221 156.313 131.626 156.139V156.112C132.819 155.857 133.638 155.026 133.638 153.765C133.638 151.793 131.933 151.257 130.271 151.244H126.153V160.928H128.232V157.024ZM128.232 152.853H129.975C130.887 152.866 131.425 153.228 131.425 154.087C131.425 154.946 130.887 155.402 129.975 155.415H128.232V152.853Z" fill="#522C6C"/>
<path fill-rule="evenodd" clip-rule="evenodd" d="M136.414 151.244H142.906V152.853H138.493V155.12H142.624V156.729H138.493V159.318H143.053V160.928H136.414V151.244Z" fill="#522C6C"/>
<path fill-rule="evenodd" clip-rule="evenodd" d="M146.044 160.928H149.344C152.362 160.955 154.239 159.452 154.239 156.085C154.239 152.719 152.362 151.217 149.344 151.244H146.044V160.928ZM148.123 152.853H149.196C151.664 152.826 152.027 154.543 152.027 156.085C152.027 157.628 151.664 159.344 149.196 159.318H148.123V152.853Z" fill="#522C6C"/>
<path fill-rule="evenodd" clip-rule="evenodd" d="M157.029 160.928H159.108V151.244H157.029V160.928Z" fill="#522C6C"/>
<path fill-rule="evenodd" clip-rule="evenodd" d="M161.443 151.244H169.288V152.853H166.404V160.928H164.325V152.853H161.443V151.244Z" fill="#522C6C"/>
<path fill-rule="evenodd" clip-rule="evenodd" d="M185.291 151.244V157.306C185.291 159.882 183.44 161.129 181.092 161.129C178.744 161.129 176.894 159.882 176.894 157.306V151.244H178.973V156.502C178.973 158.138 179.054 159.627 181.092 159.627C183.13 159.627 183.211 158.138 183.211 156.502V151.244H185.291Z" fill="#522C6C"/>
<path fill-rule="evenodd" clip-rule="evenodd" d="M194.33 160.928L190.508 152.88L190.482 152.907V160.928H188.536V151.244H191.621L195.309 158.862L195.336 158.835V151.244H197.281V160.928H194.33Z" fill="#522C6C"/>
<path fill-rule="evenodd" clip-rule="evenodd" d="M200.258 160.928H202.338V151.244H200.258V160.928Z" fill="#522C6C"/>
<path fill-rule="evenodd" clip-rule="evenodd" d="M209.715 161.129C212.92 161.129 214.369 158.942 214.369 156.085C214.369 153.228 212.92 151.042 209.715 151.042C206.509 151.042 205.061 153.228 205.061 156.085C205.061 158.942 206.509 161.129 209.715 161.129ZM209.715 152.545C211.766 152.545 212.156 154.423 212.156 156.085C212.156 157.749 211.766 159.627 209.715 159.627C207.662 159.627 207.274 157.749 207.274 156.085C207.274 154.423 207.662 152.545 209.715 152.545Z" fill="#522C6C"/>
<path fill-rule="evenodd" clip-rule="evenodd" d="M222.954 160.928L219.13 152.88L219.104 152.907V160.928H217.158V151.244H220.243L223.933 158.862L223.959 158.835V151.244H225.905V160.928H222.954Z" fill="#522C6C"/>
<path fill-rule="evenodd" clip-rule="evenodd" d="M4.98368 141.026L6.35458 135.675H13.2439L14.5826 141.026H19.8999L13.345 116.88H6.68903L0 141.026H4.98368ZM12.1744 131.963H7.35881L9.666 121.528H9.73219L12.1744 131.963Z" fill="#522C6C"/>
<path fill-rule="evenodd" clip-rule="evenodd" d="M27.5252 141.026V116.88H40.0671V120.592H32.576V126.779H39.7327V130.491H32.576V141.026H27.5252Z" fill="#522C6C"/>
<path fill-rule="evenodd" clip-rule="evenodd" d="M47.7255 141.026V116.88H60.2675V120.592H52.7754V126.779H59.933V130.491H52.7754V141.026H47.7255Z" fill="#522C6C"/>
<path fill-rule="evenodd" clip-rule="evenodd" d="M68.0261 141.026H73.0768V116.88H68.0261V141.026Z" fill="#522C6C"/>
<path fill-rule="evenodd" clip-rule="evenodd" d="M82.7089 141.026V116.88H89.5312L95.9528 133.601H96.0207V116.88H100.736V141.026H94.0802L87.4913 123.367H87.4243V141.026H82.7089Z" fill="#522C6C"/>
<path fill-rule="evenodd" clip-rule="evenodd" d="M110.334 141.026H115.385V116.88H110.334V141.026Z" fill="#522C6C"/>
<path fill-rule="evenodd" clip-rule="evenodd" d="M139.364 116.88V120.893H133.746V141.026H128.696V120.893H123.077V116.88H139.364Z" fill="#522C6C"/>
<path fill-rule="evenodd" clip-rule="evenodd" d="M151.506 132.666L145.184 116.88H150.703L154.315 127.079L158.161 116.88H163.311L156.555 132.666V141.026H151.506V132.666Z" fill="#522C6C"/>
<path fill-rule="evenodd" clip-rule="evenodd" d="M183.812 141.026V116.88H192.91C197.526 116.88 199.331 119.688 199.331 124.103C199.331 126.846 198.528 131.194 192.608 131.194H188.862V141.026H183.812ZM188.862 120.592V127.482H191.672C193.177 127.482 194.214 125.843 194.214 124.237C194.214 122.264 193.679 120.592 191.405 120.592H188.862Z" fill="#522C6C"/>
<path fill-rule="evenodd" clip-rule="evenodd" d="M207.76 141.026V116.88H212.81V137.013H220.369V141.026H207.76Z" fill="#522C6C"/>
<path fill-rule="evenodd" clip-rule="evenodd" d="M244.247 116.88V134.003C244.247 137.616 242.207 141.428 236.054 141.428C230.502 141.428 227.827 138.551 227.827 134.003V116.88H232.876V133.668C232.876 136.645 234.147 137.816 235.987 137.816C238.194 137.816 239.197 136.344 239.197 133.668V116.88H244.247Z" fill="#522C6C"/>
<path fill-rule="evenodd" clip-rule="evenodd" d="M260.268 141.428C254.013 141.428 252.843 137.749 253.11 133.568H258.161C258.161 135.876 258.261 137.816 261.038 137.816C262.742 137.816 263.578 136.712 263.578 135.073C263.578 130.725 253.412 130.458 253.412 123.267C253.412 119.488 255.217 116.478 261.371 116.478C266.288 116.478 268.73 118.685 268.395 123.735H263.478C263.478 121.929 263.178 120.09 261.138 120.09C259.499 120.09 258.528 120.992 258.528 122.665C258.528 127.247 268.695 126.846 268.695 134.438C268.695 140.692 264.114 141.428 260.268 141.428Z" fill="#522C6C"/>
<path d="M151.761 34.2274C151.955 34.1201 152.149 34.0131 152.343 33.9064C174.133 21.9498 195.712 17.6622 200.709 24.5343C202.659 27.2187 201.838 31.1603 198.59 35.8269L197.537 37.3384L197.801 35.5157C197.97 34.3527 197.797 33.338 197.278 32.4742C193.593 26.3325 173.95 28.6774 153.209 37.8682L165.605 69.042C166.091 70.0958 168.348 75.5424 168.67 76.2923C169.327 77.8217 169.91 79.1079 170.464 80.2295C171.254 81.8277 171.962 83.0415 172.591 83.8452C175.015 87.0412 177.55 87.9371 183.939 88.6892L184.324 88.7345V92.6803L183.879 92.6708C181.235 92.6143 179.105 92.5524 174.296 92.4005C169.47 92.248 167.304 92.1852 164.677 92.1291C161.963 92.1854 159.775 92.2477 154.837 92.4005C149.928 92.5524 147.751 92.6143 145.05 92.6708L144.606 92.6801V88.7015L145.026 88.6865C145.255 88.6783 145.5 88.6716 145.876 88.6625C148.352 88.603 149.33 88.5595 150.746 88.4C155.219 87.8962 157.691 86.5517 157.691 83.9786C157.691 81.2306 156.821 78.1971 155.014 73.5785L143.091 42.8885C136.676 46.4426 131.159 50.2818 127.084 54.0296L126.461 53.4227C130.233 49.1013 135.612 44.535 142.04 40.1836L133.457 18.0896L116.207 55.3145C116.015 55.7823 115.914 56.0277 115.801 56.3054C115.477 57.0992 115.117 57.9926 114.729 58.9659C113.62 61.7467 112.51 64.6098 111.475 67.3969C111.157 68.2547 110.85 69.0938 110.555 69.9113C108.162 76.5542 106.765 81.3295 106.765 83.3019C106.765 86.5508 108.904 87.8884 113.303 88.3661C113.993 88.441 114.363 88.4692 115.819 88.5684C116.519 88.616 116.928 88.6475 117.337 88.6884L117.729 88.7276V92.6829L117.281 92.6707C115.199 92.6142 113.55 92.5522 109.855 92.4003C106.143 92.2477 104.479 92.1852 102.417 92.129C100.44 92.1853 98.8739 92.2475 95.3628 92.4003C91.8697 92.5522 90.3111 92.6142 88.3408 92.6707L87.8928 92.6836V88.7319L88.2802 88.6889C95.4555 87.8919 98.2809 85.8085 100.922 79.3369C102.504 75.7227 103.769 72.8101 106.539 66.4119C109.35 59.923 110.584 57.0801 112.15 53.5005L132.968 0.0286865H138.163L138.272 0.303257L151.761 34.2274Z" fill="#522C6C"/>
</svg>
