<svg width="115" height="93" viewBox="0 0 115 93" fill="none" xmlns="http://www.w3.org/2000/svg">
<path d="M64.7614 34.2274C64.9547 34.1201 65.1487 34.0131 65.3431 33.9064C87.1334 21.9498 108.712 17.6622 113.709 24.5343C115.659 27.2187 114.838 31.1603 111.59 35.8269L110.537 37.3384L110.801 35.5157C110.97 34.3527 110.797 33.338 110.278 32.4742C106.593 26.3325 86.9496 28.6774 66.2091 37.8682L78.6049 69.042C79.0913 70.0958 81.348 75.5424 81.67 76.2923C82.3267 77.8217 82.9102 79.1079 83.4644 80.2295C84.2541 81.8277 84.9615 83.0415 85.5907 83.8452C88.0153 87.0412 90.5504 87.9371 96.9392 88.6892L97.3238 88.7345V92.6803L96.879 92.6708C94.235 92.6143 92.1048 92.5524 87.2956 92.4005C82.4701 92.248 80.3036 92.1852 77.6768 92.1291C74.9632 92.1854 72.7746 92.2477 67.8367 92.4005C62.9275 92.5524 60.751 92.6143 58.0505 92.6708L57.6059 92.6801V88.7015L58.0259 88.6865C58.2547 88.6783 58.4996 88.6716 58.8761 88.6625C61.3522 88.603 62.3295 88.5595 63.7456 88.4C68.2186 87.8962 70.6913 86.5517 70.6913 83.9786C70.6913 81.2306 69.8205 78.1971 68.0139 73.5785L56.0912 42.8885C49.6755 46.4426 44.1592 50.2818 40.0842 54.0296L39.4613 53.4227C43.2331 49.1013 48.612 44.535 55.0404 40.1836L46.4571 18.0896L29.2071 55.3145C29.0145 55.7823 28.9141 56.0277 28.8009 56.3054C28.4774 57.0992 28.1169 57.9926 27.7287 58.9659C26.6195 61.7467 25.5104 64.6098 24.4753 67.3969C24.1568 68.2547 23.8496 69.0938 23.5551 69.9113C21.1625 76.5542 19.765 81.3295 19.765 83.3019C19.765 86.5508 21.9044 87.8884 26.3033 88.3661C26.9927 88.441 27.3627 88.4692 28.8192 88.5684C29.519 88.616 29.9275 88.6475 30.3365 88.6884L30.7287 88.7276V92.6829L30.2814 92.6707C28.1987 92.6142 26.5496 92.5522 22.855 92.4003C19.1432 92.2477 17.4788 92.1852 15.4173 92.129C13.4397 92.1853 11.8739 92.2475 8.36282 92.4003C4.8697 92.5522 3.31113 92.6142 1.34079 92.6707L0.892822 92.6836V88.7319L1.28023 88.6889C8.4555 87.8919 11.2809 85.8085 13.9224 79.3369C15.5039 75.7227 16.7685 72.8101 19.5394 66.4119C22.3496 59.923 23.5839 57.0801 25.1502 53.5005L45.9681 0.0286865H51.1627L51.2719 0.303257L64.7614 34.2274Z" fill="#522C6C"/>
</svg>
