<svg width="157" height="60" viewBox="0 0 157 60" fill="none" xmlns="http://www.w3.org/2000/svg">
<path fill-rule="evenodd" clip-rule="evenodd" d="M82.5471 20.335C81.23 19.2237 78.9822 18.6687 75.8023 18.6687H68.6301V40.9037H73.993V33.935H76.3954C79.3111 33.935 81.4493 33.2912 82.81 32.0025C84.3426 30.5587 85.1139 28.6362 85.1139 26.2362C85.1139 23.7475 84.2579 21.78 82.5471 20.335ZM76.2621 28.9037H73.993V23.7H76.0316C78.5112 23.7 79.751 24.5725 79.751 26.3175C79.751 28.04 78.5872 28.9025 76.2621 28.9025M94.2909 18.6675H88.6987V40.9025H100.773V35.87H94.2909V18.6675ZM111.729 18.6675L102.945 40.9025H108.965L110.117 37.67H117.75L118.803 40.9025H124.891L116.169 18.6675H111.729V18.6675ZM111.663 33.1687L113.967 25.5687L116.235 33.1687H111.662H111.663Z" fill="#111111"/>
<mask id="mask0_1200_5602" style="mask-type:alpha" maskUnits="userSpaceOnUse" x="0" y="0" width="157" height="60">
<path d="M0 59.3412H157V0H0V59.3412Z" fill="white"/>
</mask>
<g mask="url(#mask0_1200_5602)">
<path fill-rule="evenodd" clip-rule="evenodd" d="M127.685 40.9025H133.278V18.6675H127.685V40.9025ZM154.994 22.835C154.287 21.8073 153.38 20.9342 152.327 20.2688C150.639 19.2013 148.335 18.6688 145.418 18.6688H138.049V40.9025H146.669C149.784 40.9025 152.284 39.8812 154.17 37.8362C156.057 35.7925 156.999 33.08 156.999 29.7012C156.999 27.0137 156.33 24.725 154.993 22.835M146.044 35.8687H143.643V23.7013H146.077C147.788 23.7013 149.103 24.2387 150.025 25.31C150.947 26.3812 151.408 27.9013 151.408 29.8688C151.408 33.8688 149.62 35.8687 146.044 35.8687M23.2223 0L5.09627 4.7625L0.100929 23.0487L6.34853 29.4837L0 35.8125L4.70128 54.1787L22.7488 59.2375L29.0986 52.9075L35.3462 59.3412L53.4722 54.5787L58.4663 36.2913L52.2199 29.8587L58.5685 23.53L53.8672 5.1625L35.8172 0.10375L29.4699 6.4325L23.2223 0ZM12.099 8.28L21.6473 5.77L25.8228 10.07L19.7334 16.14L12.099 8.28ZM33.0597 10.1275L37.3024 5.89875L46.8097 8.56375L39.0506 16.2975L33.0597 10.1275ZM5.82146 21.5475L8.45183 11.9162L16.0838 19.7763L9.99567 25.8463L5.82146 21.5462V21.5475ZM42.638 19.9937L50.397 12.2575L52.8716 21.9325L48.6301 26.1625L42.638 19.9937V19.9937ZM23.322 19.835L29.4113 13.765L35.401 19.935L29.3129 26.005L23.322 19.835V19.835ZM13.5855 29.5412L19.6736 23.4713L25.667 29.6412L19.5764 35.7113L13.5855 29.5412V29.5412ZM32.9027 29.7L38.9908 23.63L44.9817 29.8L38.8924 35.87L32.9027 29.7ZM5.69436 37.4088L9.93835 33.1775L15.928 39.3488L8.17148 47.0813L5.69436 37.4088V37.4088ZM23.165 39.4062L29.2543 33.3363L35.2453 39.5062L29.1571 45.5762L23.165 39.4062ZM42.481 39.5662L48.5703 33.4963L52.7458 37.795L50.1166 47.4263L42.481 39.5662V39.5662ZM11.7588 50.7788L19.5166 43.0425L25.51 49.2125L21.266 53.4438L11.7588 50.7775V50.7788ZM32.7457 49.2712L38.8338 43.2013L46.467 51.0625L36.9199 53.5712L32.7457 49.2712V49.2712Z" fill="#111111"/>
</g>
</svg>
