<svg width="284" height="138" viewBox="0 0 284 138" fill="none" xmlns="http://www.w3.org/2000/svg">
<path d="M2.61252 10.9414L1 25.4643V122C1 130.837 8.16344 138 17 138H269.784C275.978 138 281 132.978 281 126.784V16.7746C281 15.1858 278.697 14.9783 278.413 16.5416C278.399 16.6185 278.392 16.6965 278.392 16.7746V57.1048L277.015 85.2145C276.985 85.8328 276.088 85.8776 275.996 85.2654C275.925 84.7898 275.297 84.6654 275.05 85.0778L274.916 85.3018C274.845 85.4193 274.737 85.5095 274.609 85.5577L272.688 86.2785C272.385 86.392 272.166 86.6581 272.113 86.9767L271.652 89.7454C271.571 90.2323 270.871 90.2323 270.79 89.7454C270.721 89.3279 270.157 89.2432 269.968 89.6219L268.614 92.3333L268.28 92.8888C267.856 93.5965 267.598 94.3915 267.526 95.2135L266.222 110.09C266.156 110.846 265.154 111.065 264.777 110.406C264.728 110.319 264.695 110.223 264.682 110.123L263.232 99.0971C263.151 98.4794 262.51 98.1038 261.931 98.3353C261.627 98.4571 261.406 98.7264 261.347 99.0487L260.384 104.283C260.171 105.439 258.496 105.386 258.356 104.219L258.285 103.621C258.235 103.207 257.79 102.968 257.418 103.154C257.12 103.303 256.758 103.183 256.61 102.885L255.901 101.467C255.258 100.393 254.867 99.1878 254.759 97.9412L254.292 92.5664C254.278 92.4116 254.246 92.2588 254.197 92.1113L253.896 91.2063C253.39 89.6872 251.241 89.6872 250.735 91.2063C250.702 91.3051 250.679 91.4067 250.665 91.5098L249.289 101.7C249.237 102.081 248.7 102.117 248.599 101.746C248.495 101.366 247.941 101.415 247.907 101.808L247.458 106.975C247.437 107.212 247.35 107.439 247.207 107.63L246.569 108.481C246.49 108.588 246.436 108.711 246.412 108.842L245.992 111.156C245.871 111.821 244.899 111.763 244.858 111.088C244.816 110.395 243.808 110.361 243.719 111.049L243.189 115.167V123.213C243.189 123.285 243.182 123.357 243.17 123.428C242.927 124.826 240.916 124.814 240.69 123.413L240.255 120.712L239.985 116.384C239.945 115.756 239.028 115.736 238.963 116.362C238.955 116.434 238.932 116.504 238.896 116.567L237.706 118.607C237.337 119.241 236.382 119.092 236.223 118.376L236.198 118.262C236.103 117.837 235.65 117.597 235.245 117.759C234.813 117.932 234.334 117.648 234.28 117.185L233.736 112.557L232.828 104.687C232.788 104.339 232.494 104.076 232.143 104.076C231.763 104.076 231.454 104.385 231.454 104.766V115.167L230.802 131.476L230.15 122.343L229.539 115.618C229.512 115.319 229.445 115.024 229.339 114.742L228.692 113.015C228.589 112.74 228.326 112.557 228.031 112.557C227.737 112.557 227.474 112.74 227.371 113.015L226.595 115.085C226.575 115.139 226.561 115.196 226.554 115.253C226.448 116.102 225.226 116.123 225.09 115.279L224.283 110.274L222.653 65.9119L221.596 58.7682C221.53 58.3245 220.917 58.2594 220.759 58.6794C220.621 59.0489 220.101 59.0572 219.951 58.6923L218.09 54.169C217.626 53.3563 216.405 53.5359 216.195 54.4478L215.888 55.7795C215.835 56.0077 215.732 56.2212 215.586 56.4041L214.504 57.7571L211.967 61.2483C211.921 61.3119 211.891 61.386 211.879 61.4639L211.61 63.3515C211.549 63.7787 210.919 63.7339 210.919 63.3024L209.615 51.8857L208.216 44.4206C208.003 43.2831 206.539 42.9419 205.845 43.868L205.79 43.9415C205.732 44.018 205.689 44.104 205.662 44.1955L205.54 44.6025C205.328 45.3079 204.314 45.2602 204.169 44.5381L203.92 43.2909C203.783 42.6027 202.77 42.703 202.77 43.4048C202.77 44.1065 201.756 44.2068 201.619 43.5186L201.472 42.7835C201.331 42.0779 200.32 42.0825 200.186 42.7894L199.944 44.0624C199.789 44.8739 198.746 45.0563 198.393 44.3094C198.101 43.6917 197.88 43.1051 197.88 42.7524C197.88 42.4507 197.751 43.0436 197.567 44.0419C197.39 45.0086 195.958 44.9821 195.837 44.0067C195.72 43.0731 194.397 42.9933 194.169 43.9061L194.094 44.2065C193.843 45.2135 192.371 45.0775 192.308 44.0415L190.843 19.8486C190.813 19.3506 190.122 19.2504 189.952 19.7194C189.794 20.1534 189.167 20.1102 189.07 19.6586L188.427 16.6571L187.293 11.4351C187.136 10.7144 186.15 10.6134 185.85 11.2874C185.662 11.7114 185.142 11.8705 184.749 11.6245L184.381 11.3945C183.68 10.956 182.76 11.3872 182.648 12.2067L182.503 13.2726C182.364 14.2891 180.938 14.4005 180.644 13.4177L180.41 12.6373C180.245 12.0897 179.496 12.0251 179.241 12.5364C179.091 12.8355 178.734 12.9661 178.427 12.8344L177.668 12.5087C177.206 12.3108 176.693 12.6493 176.693 13.1516V14.3187C176.693 14.7005 176.19 14.8398 175.993 14.5123C175.858 14.2872 175.54 14.2658 175.376 14.4708L175.225 14.66C174.923 15.0378 174.315 14.8639 174.259 14.3834L173.353 6.68273C173.266 5.94316 172.314 5.69862 171.882 6.30472C171.649 6.63102 171.213 6.73926 170.855 6.55987L170.377 6.32077C169.859 6.0615 169.235 6.13823 168.796 6.51546L168.013 7.18672C167.512 7.61678 167.167 8.2007 167.032 8.84738L165.825 14.6475C165.688 15.3048 165.283 15.8751 164.707 16.2207L164.586 16.2936C164.194 16.5289 163.894 16.891 163.736 17.3199L162.723 20.0719C162.39 20.9755 161.102 20.9432 160.815 20.0241C160.544 19.1578 159.356 19.0621 158.95 19.874L158.805 20.1647C158.778 20.2183 158.756 20.2744 158.738 20.3315C158.241 21.9056 155.958 21.797 155.66 20.1734L154.198 12.1889C153.924 10.6965 151.859 10.5129 151.327 11.9336L151.304 11.9945C151.28 12.0583 151.263 12.1245 151.254 12.192L151.067 13.5642C150.95 14.4213 149.708 14.4113 149.605 13.5524L149.532 12.9444C149.466 12.3992 148.732 12.2717 148.487 12.7629C148.393 12.9505 148.202 13.069 147.992 13.069H147.77C147.339 13.069 146.967 13.3712 146.878 13.7932L146.68 14.7357C146.408 16.0262 144.613 16.1479 144.17 14.9059C144.121 14.7696 144.05 14.6423 143.96 14.5292L143.136 13.4984C142.919 13.2271 142.59 13.069 142.243 13.069C141.786 13.069 141.372 13.3417 141.192 13.7623L139.582 17.5228C139.549 17.5977 139.529 17.6769 139.52 17.7578L139.423 18.6301C139.323 19.5296 138.008 19.5087 137.937 18.6064C137.871 17.7632 136.674 17.6636 136.469 18.4842L136.256 19.3375C136.077 20.0534 135.069 20.0804 134.853 19.3751C134.659 18.7466 133.798 18.6754 133.504 19.2635L133.007 20.2591C132.535 21.2032 131.155 21.0941 130.837 20.0877L129.962 17.3146C129.838 16.9232 129.475 16.6571 129.065 16.6571C128.546 16.6571 128.125 16.2361 128.125 15.7167V7.5361C128.125 6.81305 127.336 6.36654 126.716 6.73874C126.571 6.82556 126.406 6.87143 126.237 6.87143H123.393C123.089 6.87143 122.805 6.72485 122.628 6.47791C122.138 5.79076 121.06 6.04938 120.935 6.88429L120.357 10.7443C120.321 10.9799 120.195 11.192 120.004 11.335L119.78 11.5032C119.395 11.792 118.841 11.6188 118.688 11.1622C118.474 10.5195 117.565 10.5195 117.351 11.1622L117.208 11.591C117.109 11.8893 116.83 12.0905 116.515 12.0905C116.239 12.0905 115.986 12.2468 115.862 12.4943L115.834 12.5518C115.48 13.2594 114.432 13.1234 114.271 12.349L113.369 8.01644C113.23 7.34946 112.642 6.87143 111.961 6.87143C111.167 6.87143 110.523 6.22756 110.523 5.43331V3.88682C110.523 3.01307 109.814 2.30476 108.941 2.30476C108.695 2.30476 108.453 2.24751 108.233 2.13754L107.999 2.02041C106.822 1.43166 105.392 1.78036 104.619 2.8447L103.95 3.76516C103.557 4.30532 103.305 4.93452 103.215 5.59626L101.829 15.8626C101.76 16.3709 101.491 16.8305 101.081 17.1384C100.658 17.4557 100.385 17.9337 100.326 18.4591L99.4675 26.1954C99.4493 26.3591 99.4024 26.5182 99.3288 26.6655L98.9912 27.3412C98.731 27.8619 98.037 27.9745 97.6255 27.5627C97.1456 27.0825 96.3242 27.3286 96.1874 27.9936L94.405 36.6571C94.2855 37.2376 94.0648 37.7918 93.8712 38.352C93.0246 40.8018 92.4607 46.0334 92.2689 48.6238L91.8137 51.9947C91.6433 53.2566 89.8111 53.235 89.6705 51.9693C89.6643 51.9137 89.6538 51.8586 89.6391 51.8046L87.7348 44.817C87.7153 44.7455 87.7021 44.6724 87.6954 44.5985C87.5674 43.1901 85.5778 43.0184 85.2104 44.384L84.8311 45.7941C84.792 45.9392 84.7221 46.074 84.6259 46.1895L84.2678 46.6196C83.8319 47.143 82.9822 46.9053 82.8812 46.2317C82.7487 45.3473 81.4793 45.3309 81.324 46.2116L81.2065 46.8782C81.1931 46.9543 81.1699 47.0284 81.1375 47.0986L80.1868 49.1599C79.5568 50.5259 79.2305 52.0124 79.2305 53.5167L78.8454 56.7282C78.7338 57.6587 77.4064 57.7196 77.2102 56.8031L77.0596 56.1001C76.8995 55.3522 75.8241 55.3769 75.6984 56.1313L75.5927 56.7662C75.5112 57.2553 74.844 57.3402 74.6428 56.887C74.4459 56.4438 73.7966 56.5124 73.6968 56.987L73.0177 60.215C72.8916 60.8144 72.1348 61.0122 71.7316 60.551C71.28 60.0345 70.4296 60.3539 70.4296 61.0399V61.6714L70.2618 63.2386C70.0971 64.7764 67.9223 64.938 67.5322 63.4415C67.5081 63.349 67.4936 63.2543 67.4889 63.1588L66.6245 45.5716C66.5943 44.9562 65.7747 44.7686 65.4798 45.3096C65.1952 45.8318 64.4079 45.6795 64.3384 45.0889L62.8918 32.784C62.8268 32.2309 62.052 32.1605 61.8884 32.6928C61.7321 33.201 61.0019 33.1677 60.8924 32.6475L60.3941 30.2789C60.247 29.5798 59.3304 29.4033 58.9343 29.9979L58.9028 30.0452C58.773 30.2401 58.5543 30.3571 58.3201 30.3571C57.9735 30.3571 57.6791 30.6107 57.6277 30.9535L56.7463 36.834C56.7416 36.8653 56.7347 36.8961 56.7256 36.9264L56.5692 37.448C56.3941 38.0323 55.5423 37.9504 55.4816 37.3434C55.4134 36.6608 54.4117 36.6813 54.3715 37.3661L53.8139 46.8515C53.8084 46.9444 53.7806 47.0345 53.7328 47.1143C53.4462 47.5923 52.7155 47.4264 52.6635 46.8714L52.1613 41.5102C52.0946 40.7988 51.0962 40.6997 50.891 41.3841C50.8783 41.4263 50.87 41.4698 50.8661 41.5137L49.8941 52.5381C49.7251 53.3272 48.5769 53.2565 48.506 52.4526L48.077 47.5872C48.0435 47.207 47.5181 47.1355 47.3842 47.4929C47.2591 47.8269 46.7759 47.793 46.6986 47.4448L44.3527 36.881L44.1919 35.4725C44.0197 33.9644 41.8398 33.9338 41.6253 35.4364C41.428 36.8188 39.4835 36.9515 39.1001 35.6088L38.8467 34.7213C38.8232 34.639 38.8069 34.5548 38.7978 34.4697L37.8449 25.5058C37.7426 24.5434 36.3546 24.5083 36.2037 25.4643L35.2856 34.9586C35.2517 35.3089 34.9573 35.5762 34.6054 35.5762C34.228 35.5762 33.922 35.8829 33.922 36.2604C33.922 37.1186 32.671 37.2248 32.5406 36.3765L32.2144 34.2544C32.0638 33.2749 30.6484 33.287 30.5146 34.2689L30.4272 34.91C30.3752 35.2916 30.0493 35.5762 29.6641 35.5762C29.2969 35.5762 28.9808 35.8354 28.9088 36.1954L27.0768 45.3619L25.9223 59.8042C25.8802 60.3308 25.1719 60.4683 24.9357 59.9957C24.7436 59.6111 24.1947 59.6111 24.0026 59.9957L23.3028 61.3963C23.2124 61.5772 23.1653 61.7767 23.1653 61.979V80.5905L22.0436 72.1717C21.9885 71.7581 21.4316 71.6651 21.2451 72.0383C21.0529 72.4231 20.4758 72.3093 20.4441 71.8803L18.4985 45.5959C18.4368 44.7627 17.2222 44.7404 17.13 45.5708L17.0488 46.3015C17.0179 46.58 16.6785 46.6991 16.4804 46.5008C16.2833 46.3036 15.9455 46.4203 15.9123 46.6972L15.8185 47.4797C15.7161 48.3332 14.4723 48.3167 14.3927 47.4607L13.7229 40.2557C13.716 40.1806 13.7033 40.1061 13.685 40.0329L12.1426 33.8589C12.1027 33.6993 12.077 33.5365 12.0659 33.3724L11.2624 21.5805C11.2283 21.0802 10.5303 20.9912 10.3719 21.467C10.2218 21.9174 9.56965 21.8694 9.48719 21.4018L9.46246 21.2616C9.36247 20.6946 8.53775 20.7286 8.48486 21.302L8.0516 25.999C7.92522 27.3691 5.92125 27.3593 5.80824 25.9881L4.57044 10.9691C4.48713 9.95836 3.114 9.71973 2.69457 10.6431C2.65166 10.7376 2.62397 10.8382 2.61252 10.9414Z" fill="url(#paint0_linear_2739_59584)"/>
<path d="M1 26.5625L2.64144 11.825L4.28289 8.2225L6.9092 39.99L8.87893 18.7025L9.8638 24.27L11.1769 20.34L12.1618 34.75L13.8033 41.3L15.1164 55.3825L16.1013 47.195L17.0861 48.1775L18.071 39.335L20.6973 74.705L22.0105 72.085L23.3236 81.91V62.915L24.6368 60.295L25.9499 62.915L27.2631 46.54L29.2328 36.715H30.546L31.5308 29.51L34.1572 46.54V36.715H35.4703L36.4552 26.5625L37.44 20.34L39.0815 35.7325L41.0512 42.61L43.3492 26.5625L44.6624 38.025L47.2887 49.815L48.2736 47.195L49.2584 58.33L50.2433 53.745L51.2282 42.61L52.213 39.335L53.1979 49.815L54.1828 48.1775L55.1676 31.475L56.1525 41.3L57.1374 38.025L58.1222 31.475H59.1071L60.4203 29.51L61.7334 35.7325L63.0466 31.475L65.0163 48.1775L66.986 44.575L67.9709 64.5525L69.9406 72.085L70.9255 62.915V60.295L73.2235 62.915L74.5367 56.6925L75.8498 59.64L76.8347 53.745L78.8044 62.915L79.7893 54.7275V52.435L81.759 48.1775L82.7439 42.61L83.7288 49.16L85.3702 47.195L87.6682 38.68L88.3248 45.885L90.2945 53.09L91.2794 61.9325L92.9208 49.815C93.1397 46.8675 93.84 40.514 94.8906 38.68L97.1886 27.545L99.1583 29.51L100.143 27.545L101.128 18.7025L102.441 17.72L104.083 5.6025L106.709 2L109.335 3.31H111.305V7.895H113.931L115.573 15.755L116.886 13.135H117.871L118.856 10.1875L119.841 13.135L121.154 12.1525L122.139 5.6025L123.78 7.895H127.391L129.033 6.9125V17.72H130.674L132.644 23.9425L135.27 18.7025L136.583 22.96L138.553 15.1L139.538 27.545L140.523 18.7025L142.492 14.1175H143.806L145.119 15.755L146.76 20.34L148.073 14.1175H149.386L150.371 12.1525L151.356 20.34L152.341 13.135L154.311 7.895L157.922 27.545L159.892 21.3225L161.205 18.7025L162.846 23.9425L165.144 17.72L166.786 16.7375L168.427 8.8775L170.725 6.9125L172.695 7.895L174.336 5.6025L175.65 16.7375L176.963 15.1L177.948 16.7375V13.135L180.246 14.1175L181.23 12.1525L183.2 18.7025L184.185 11.4975L186.811 13.135L188.125 10.1875L189.766 17.72L190.751 22.305L192.064 18.7025L194.034 51.125L196.66 40.645L197.973 51.125C198.411 48.3958 199.286 43.134 199.286 43.92C199.286 44.706 200.381 46.6492 200.928 47.5225L202.241 40.645L204.211 50.47V38.68L206.18 48.505L207.165 45.23L209.135 42.61L211.105 53.09L212.418 64.5525V69.465L213.403 62.5875L216.029 58.985L217.342 57.3475L218.327 53.09L219.64 55.3825L221.938 60.95L222.923 58.33L224.236 67.1725L225.878 111.712L227.519 121.865L228.176 116.625L229.161 114.005H230.146L231.13 116.625L231.787 123.83L232.444 133L233.1 116.625V105.49H234.413L235.398 114.005L236.055 119.572L237.696 118.917L238.353 121.865L240.651 117.935L241.307 111.712L241.964 122.192L243.605 132.345L244.919 124.812V116.625L246.232 106.472L246.888 117.28L248.201 110.075L249.186 108.765L249.843 101.232L250.828 104.835L252.469 92.7175L254.111 87.805L256.08 93.7L256.737 101.232L257.722 102.87L258.707 104.835L260.02 104.18L261.005 112.367L263.303 99.9225L264.944 99.2675L266.586 111.712L267.899 114.005L269.54 95.3375L270.525 93.7L272.495 89.77L273.151 93.7L274.136 87.805L276.763 86.8225L277.747 85.185L278.732 91.735L280.374 58.33V17.72L283 3.31" stroke="#00A478" stroke-width="2"/>
<defs>
<linearGradient id="paint0_linear_2739_59584" x1="141" y1="1" x2="141" y2="138" gradientUnits="userSpaceOnUse">
<stop stop-color="#00A478" stop-opacity="0.2"/>
<stop offset="1" stop-color="#00A478" stop-opacity="0"/>
</linearGradient>
</defs>
</svg>
