<svg width="319" height="225" viewBox="0 0 319 225" fill="none" xmlns="http://www.w3.org/2000/svg">
<mask id="mask0_201_6671" style="mask-type:alpha" maskUnits="userSpaceOnUse" x="-23" y="-21" width="356" height="267">
<path d="M-22.8945 -20.3254H332.136V245.941H-22.8945V-20.3254Z" fill="white"/>
</mask>
<g mask="url(#mask0_201_6671)">
<path fill-rule="evenodd" clip-rule="evenodd" d="M77.1387 54.5868L77.144 54.5918L77.1494 54.5959L77.5807 54.9488L77.5443 54.7725C78.7834 55.0185 86.8729 45.1294 86.3652 43.975L86.525 43.9714L86.0901 43.6149L86.0927 43.62C85.0542 42.8322 82.245 44.6021 79.7864 47.6034C77.3233 50.609 76.1411 53.716 77.1254 54.5745L77.1218 54.5734L77.1387 54.5868Z" fill="#FBED63"/>
<path fill-rule="evenodd" clip-rule="evenodd" d="M77.5239 54.9035C76.5369 54.0946 77.7449 50.9867 80.2231 47.9619C82.7012 44.9369 85.5113 43.1405 86.4983 43.9493C87.4853 44.7583 86.2773 47.866 83.7992 50.8909C81.321 53.9157 78.5109 55.7123 77.5239 54.9035Z" fill="#F9CF38"/>
<path fill-rule="evenodd" clip-rule="evenodd" d="M84.2927 45.1251C83.1717 45.8442 81.9219 47.0119 80.7743 48.4131C79.6222 49.8196 78.7213 51.2788 78.2375 52.5217C78.0227 53.0753 77.9029 53.5601 77.8932 53.9237C77.8852 54.1825 77.9384 54.322 77.9748 54.3518L77.9766 54.3534C78.0512 54.4116 78.5651 54.4752 79.7296 53.7277C80.8506 53.0085 82.1003 51.8409 83.248 50.4395C84.4001 49.0332 85.301 47.574 85.7847 46.3311C85.9995 45.7775 86.1193 45.2928 86.13 44.929C86.1371 44.6703 86.0847 44.5309 86.0483 44.5016C85.9747 44.4429 85.459 44.3767 84.2927 45.1251ZM77.8195 54.5425C77.658 54.4097 77.642 54.0933 77.6473 53.9164C77.6588 53.5251 77.784 53.0121 78.0094 52.4328C78.502 51.1663 79.4163 49.6835 80.5843 48.2575C81.748 46.8369 83.0181 45.6511 84.1596 44.9184C85.3054 44.1833 85.9756 44.1307 86.2028 44.3103C86.3643 44.4431 86.3803 44.7595 86.375 44.9362C86.3634 45.3276 86.2383 45.8407 86.0137 46.42C85.5211 47.6865 84.606 49.1693 83.4379 50.5952C82.2743 52.0158 81.0042 53.2017 79.8627 53.9344C78.7168 54.6695 78.0485 54.7233 77.8239 54.5458L77.8195 54.5425Z" fill="#D3A730"/>
<path fill-rule="evenodd" clip-rule="evenodd" d="M81.8483 52.9664C81.8563 52.9594 81.8634 52.9522 81.8713 52.9452C81.8634 52.9523 81.8563 52.9593 81.8483 52.9664ZM82.4305 52.4076C82.4376 52.4 82.4456 52.3925 82.4527 52.3849C82.4456 52.3925 82.4376 52.4 82.4305 52.4076ZM82.4536 52.3841C82.458 52.38 82.4616 52.3762 82.466 52.3719C82.4616 52.376 82.458 52.3801 82.4536 52.3841ZM82.466 52.3718C82.6151 52.2216 82.7643 52.0662 82.9134 51.906V51.9061C82.7643 52.0662 82.6151 52.2216 82.466 52.3718Z" fill="#51B585"/>
<path fill-rule="evenodd" clip-rule="evenodd" d="M81.5767 46.4606C81.6725 46.3644 81.7684 46.2703 81.8634 46.1784C81.7684 46.2703 81.6725 46.3645 81.5767 46.4606ZM81.8678 46.1739C81.8722 46.1701 81.8758 46.1665 81.8793 46.1629C81.8758 46.1664 81.8722 46.1703 81.8678 46.1739ZM82.5237 45.5749C82.5273 45.5716 82.5308 45.5684 82.5353 45.5651C82.5308 45.5684 82.5273 45.5716 82.5237 45.5749ZM82.5663 45.538C82.5699 45.535 82.5734 45.532 82.577 45.529C82.5734 45.5319 82.5699 45.535 82.5663 45.538ZM82.5814 45.5247C82.5885 45.5193 82.5947 45.5139 82.6009 45.5085C82.5947 45.514 82.5885 45.5193 82.5814 45.5247ZM82.6045 45.5055C82.711 45.4142 82.8175 45.3259 82.9231 45.2408C82.8175 45.326 82.711 45.4141 82.6045 45.5055Z" fill="#FDF59D"/>
<path fill-rule="evenodd" clip-rule="evenodd" d="M81.8403 52.9733L81.8154 52.3582C82.1838 52.0044 82.5521 51.6198 82.9143 51.2105L82.9134 51.906C82.7643 52.0661 82.6151 52.2215 82.466 52.3717C82.466 52.3718 82.466 52.3718 82.466 52.3718C82.4616 52.3761 82.458 52.3799 82.4536 52.384C82.4536 52.3843 82.4536 52.3846 82.4527 52.3848C82.4456 52.3924 82.4376 52.3999 82.4305 52.4075C82.4296 52.4081 82.4288 52.4087 82.4288 52.4093C82.4261 52.4118 82.4234 52.4141 82.4216 52.4165C82.4181 52.4194 82.4154 52.4223 82.4128 52.4251C82.411 52.4273 82.4083 52.4295 82.4066 52.4316C82.403 52.4351 82.3995 52.4384 82.3959 52.4418C82.395 52.4432 82.3932 52.4447 82.3915 52.4461C82.387 52.4509 82.3817 52.4558 82.3773 52.4606C82.3764 52.4618 82.3746 52.4633 82.3737 52.4645C82.3693 52.4689 82.3648 52.4732 82.3604 52.4776C82.3595 52.4782 82.3586 52.4789 82.3577 52.4795C82.2184 52.6179 82.079 52.7519 81.9406 52.8809C81.9406 52.881 81.9406 52.881 81.9406 52.8812C81.9299 52.8912 81.9184 52.9011 81.9077 52.9112C81.9069 52.9123 81.906 52.9134 81.9042 52.9145C81.9006 52.9179 81.8971 52.9214 81.8935 52.9248C81.8909 52.9267 81.8891 52.9284 81.8873 52.9303C81.8847 52.9328 81.882 52.9354 81.8784 52.9381C81.8767 52.94 81.874 52.9422 81.8722 52.9442C81.8722 52.9445 81.8713 52.9448 81.8713 52.9451C81.8634 52.9521 81.8563 52.9593 81.8483 52.9663C81.8483 52.9666 81.8474 52.9668 81.8474 52.9671C81.8447 52.9692 81.8429 52.9712 81.8403 52.9733ZM81.8021 52.0289L81.6166 47.4462C82.0489 46.9795 82.4882 46.5509 82.9214 46.1709L82.9152 50.8363C82.5495 51.2611 82.1758 51.6608 81.8021 52.0289ZM81.6024 47.1024L81.5767 46.4606C81.6725 46.3645 81.7684 46.2703 81.8634 46.1784C81.8651 46.1769 81.8669 46.1754 81.8678 46.1739C81.8722 46.1703 81.8758 46.1664 81.8793 46.1629C81.8838 46.1589 81.8882 46.1549 81.8918 46.151C81.8953 46.148 81.898 46.1453 81.9006 46.1424C81.906 46.1376 81.9113 46.1329 81.9157 46.1282C81.9175 46.1266 81.9193 46.125 81.921 46.1235C81.9255 46.119 81.9299 46.1144 81.9353 46.1098C81.937 46.1084 81.9379 46.1069 81.9397 46.1054C81.9459 46.0999 81.9512 46.0943 81.9574 46.0887C81.9583 46.0875 81.9601 46.0861 81.9619 46.0847C81.9672 46.0789 81.9734 46.073 81.9796 46.0672C81.9805 46.0665 81.9814 46.0658 81.9823 46.065C81.9956 46.0525 82.0089 46.0399 82.0222 46.0274C82.0231 46.0269 82.0231 46.0263 82.024 46.0257C82.0311 46.0194 82.0373 46.0131 82.0444 46.0068C82.0444 46.0066 82.0444 46.0064 82.0444 46.0062C82.1438 45.9138 82.2415 45.8239 82.34 45.7364C82.34 45.7361 82.34 45.7361 82.3409 45.7358C82.3471 45.7297 82.3542 45.7236 82.3613 45.7175C82.3613 45.7174 82.3613 45.7173 82.3613 45.7171C82.3684 45.7111 82.3746 45.7051 82.3817 45.6991C82.3817 45.699 82.3826 45.6987 82.3826 45.6986C82.3888 45.6931 82.395 45.6876 82.4012 45.6821C82.4021 45.681 82.4039 45.6798 82.4048 45.6788C82.411 45.6735 82.4172 45.668 82.4234 45.6627C82.4243 45.6619 82.4252 45.6608 82.4261 45.66C82.4323 45.6546 82.4385 45.6492 82.4447 45.6439C82.4456 45.6431 82.4465 45.642 82.4474 45.6412C82.4527 45.6365 82.458 45.6319 82.4634 45.6273C82.4651 45.626 82.466 45.6247 82.4678 45.6234C82.4731 45.6188 82.4785 45.6142 82.4838 45.6095C82.4864 45.6075 82.4882 45.6052 82.4909 45.6031C82.4962 45.5988 82.5007 45.5945 82.506 45.5903C82.5078 45.5883 82.5104 45.5861 82.5131 45.5842C82.5166 45.5811 82.5202 45.578 82.5237 45.5749C82.5273 45.5716 82.5308 45.5684 82.5353 45.5651C82.5379 45.5622 82.5415 45.5595 82.545 45.5566C82.5477 45.5542 82.5503 45.5517 82.553 45.5492C82.5574 45.5455 82.5619 45.5417 82.5663 45.538C82.5699 45.535 82.5734 45.5319 82.577 45.529C82.5788 45.5275 82.5805 45.5261 82.5814 45.5247C82.5885 45.5193 82.5947 45.514 82.6009 45.5085C82.6018 45.5076 82.6027 45.5066 82.6045 45.5055C82.711 45.4141 82.8175 45.326 82.9231 45.2408L82.9223 45.8463C82.4847 46.2187 82.0409 46.6409 81.6024 47.1024Z" fill="#FCE769"/>
<path fill-rule="evenodd" clip-rule="evenodd" d="M81.8154 52.3583L81.8021 52.029C82.1758 51.6608 82.5495 51.2612 82.9152 50.8364L82.9143 51.2106C82.5521 51.6199 82.1838 52.0045 81.8154 52.3583ZM81.6166 47.4463L81.6024 47.1024C82.0409 46.641 82.4847 46.2188 82.9222 45.8464L82.9214 46.171C82.4882 46.551 82.0489 46.9796 81.6166 47.4463Z" fill="#E7CE62"/>
<path fill-rule="evenodd" clip-rule="evenodd" d="M23.1266 87.8903L23.1325 87.8858L23.1376 87.8805L23.5639 87.5228L23.384 87.5255C23.8541 86.353 15.6244 76.5799 14.3962 76.8657L14.4219 76.7086L13.9916 77.0707L13.9972 77.069C13.0313 77.945 14.2535 81.032 16.7505 84.0018C19.2511 86.9752 22.0871 88.7104 23.1121 87.9009L23.1105 87.9036L23.1266 87.8903Z" fill="#FBED63"/>
<path fill-rule="evenodd" clip-rule="evenodd" d="M23.5088 87.5699C22.5319 88.3909 19.6999 86.6308 17.1832 83.6371C14.6667 80.6442 13.4185 77.5527 14.3954 76.7308C15.3723 75.9098 18.2043 77.6699 20.721 80.6628C23.2376 83.6557 24.4858 86.748 23.5088 87.5699Z" fill="#F9CF38"/>
<path fill-rule="evenodd" clip-rule="evenodd" d="M15.1446 79.1157C15.645 80.3495 16.5626 81.7927 17.7284 83.179C18.8985 84.5708 20.1667 85.7246 21.2994 86.4293C21.8038 86.7426 22.2583 86.9495 22.6138 87.0267C22.8667 87.0817 23.0136 87.0551 23.0496 87.0249L23.0515 87.0231C23.1225 86.961 23.2797 86.4675 22.7596 85.185C22.2592 83.9512 21.3416 82.508 20.1758 81.1216C19.0057 79.7299 17.7375 78.5752 16.6048 77.8713C16.1005 77.558 15.6459 77.3512 15.2904 77.274C15.0376 77.219 14.8907 77.2447 14.8553 77.2749C14.784 77.337 14.6239 77.8314 15.1446 79.1157ZM23.2086 87.2122C23.0482 87.3471 22.7343 87.3045 22.5616 87.2663C22.179 87.1829 21.6977 86.9654 21.1698 86.6379C20.0157 85.9199 18.7267 84.7483 17.5404 83.337C16.3586 81.932 15.4269 80.4648 14.917 79.208C14.4055 77.9468 14.4772 77.2784 14.6956 77.0885C14.8561 76.9536 15.1699 76.9962 15.3427 77.0335C15.7253 77.1169 16.2065 77.3344 16.7345 77.6628C17.8885 78.3799 19.1775 79.5524 20.3638 80.9636C21.5456 82.3687 22.4774 83.835 22.9872 85.0926C23.4987 86.3539 23.4283 87.0213 23.2126 87.2086L23.2086 87.2122Z" fill="#D3A730"/>
<path fill-rule="evenodd" clip-rule="evenodd" d="M22.407 82.9713C22.1528 82.563 21.868 82.1432 21.5555 81.7207H21.5556C21.868 82.1432 22.1528 82.5621 22.407 82.9713Z" fill="#51B585"/>
<path fill-rule="evenodd" clip-rule="evenodd" d="M15.8786 81.916C15.8729 81.908 15.8673 81.8991 15.8617 81.8911C15.8673 81.8991 15.873 81.908 15.8786 81.916ZM15.8609 81.8893C15.6219 81.5352 15.4039 81.1864 15.2088 80.8473C15.404 81.1864 15.6218 81.5352 15.8609 81.8893ZM15.205 80.8402C15.2029 80.8367 15.201 80.8331 15.1989 80.8296C15.2009 80.8331 15.203 80.8367 15.205 80.8402Z" fill="#FDF59D"/>
<path fill-rule="evenodd" clip-rule="evenodd" d="M22.407 82.9713L21.7979 82.8825C21.518 82.4556 21.2078 82.0225 20.8721 81.5911L21.5556 81.7207C21.868 82.1432 22.1528 82.563 22.407 82.9713ZM21.4717 82.8346L16.9332 82.1734C16.5542 81.6621 16.2137 81.1518 15.9202 80.6556L20.5044 81.5219C20.8546 81.9595 21.1788 82.3997 21.4717 82.8346ZM16.5926 82.1237L15.9571 82.0314C15.9401 82.0065 15.9233 81.9817 15.9065 81.9568C15.9057 81.9559 15.905 81.955 15.9042 81.9541C15.9002 81.9479 15.8962 81.9417 15.8922 81.9364C15.8903 81.9328 15.8881 81.9302 15.8862 81.9275C15.8837 81.924 15.8811 81.9195 15.8785 81.916C15.873 81.908 15.8673 81.8991 15.8617 81.8911C15.8614 81.8902 15.8612 81.8902 15.8609 81.8893C15.6218 81.5352 15.404 81.1864 15.2088 80.8473C15.2075 80.8447 15.2063 80.8429 15.205 80.8402C15.203 80.8367 15.2009 80.8331 15.1989 80.8296C15.1963 80.8252 15.1938 80.8207 15.1912 80.8163C15.19 80.8145 15.189 80.8127 15.1878 80.8101C15.1837 80.803 15.1794 80.7959 15.1753 80.7888C15.175 80.7879 15.175 80.7879 15.1748 80.7879C15.1165 80.6849 15.0603 80.5837 15.0062 80.4825L15.6011 80.5953C15.8865 81.0941 16.2197 81.608 16.5926 82.1237Z" fill="#FCE769"/>
<path fill-rule="evenodd" clip-rule="evenodd" d="M21.7979 82.8825L21.4717 82.8346C21.1788 82.3997 20.8546 81.9594 20.5044 81.5218L20.8721 81.5911C21.2078 82.0224 21.518 82.4556 21.7979 82.8825ZM16.9332 82.1733L16.5926 82.1236C16.2198 81.6079 15.8865 81.094 15.6011 80.5952L15.9202 80.6556C16.2137 81.1517 16.5542 81.6621 16.9332 82.1733Z" fill="#E7CE62"/>
<path fill-rule="evenodd" clip-rule="evenodd" d="M83.6075 87.8707L83.6039 87.8556L83.5986 87.8414L83.2294 86.7195L83.0927 87.0754C81.1568 85.2248 55.4235 93.7056 55.0161 96.3479L54.7264 96.173L55.0989 97.3056L55.0999 97.2932C56.061 99.8858 63.102 99.9186 70.9194 97.3491C78.747 94.776 84.401 90.5636 83.6172 87.9071L83.6217 87.9133L83.6075 87.8707Z" fill="#FBED63"/>
<path fill-rule="evenodd" clip-rule="evenodd" d="M83.2782 86.8651C84.1241 89.4364 78.4222 93.6204 70.5448 96.2094C62.6664 98.7994 55.5947 98.8145 54.7495 96.2432C53.9043 93.6719 59.6054 89.4878 67.4835 86.8988C75.3618 84.3088 82.4332 84.2938 83.2782 86.8651Z" fill="#F9CF38"/>
<path fill-rule="evenodd" clip-rule="evenodd" d="M60.0344 96.6515C62.8584 96.6408 66.4237 95.9743 70.0726 94.7752C73.7357 93.5707 77.0091 91.9864 79.2894 90.3133C80.3048 89.5678 81.0708 88.8364 81.5039 88.1982C81.8119 87.7438 81.8758 87.434 81.8447 87.3391L81.843 87.3337C81.7755 87.1447 80.9287 86.4461 77.9935 86.4568C75.1692 86.4675 71.6046 87.1331 67.9548 88.3331C64.292 89.5376 61.0189 91.1219 58.7387 92.795C57.7233 93.5405 56.9577 94.2719 56.5246 94.9101C56.2164 95.3645 56.1523 95.6743 56.1827 95.7675C56.2488 95.9565 57.0958 96.6621 60.0344 96.6515ZM82.3382 87.174C82.4776 87.5965 82.1447 88.1796 81.9344 88.4902C81.4684 89.1772 80.6598 89.953 79.5974 90.7331C77.2736 92.4382 73.9496 94.0491 70.2351 95.2695C66.5356 96.4855 62.9134 97.1618 60.0364 97.1725C57.1497 97.1831 55.8914 96.5139 55.6895 95.9343C55.5507 95.5118 55.8831 94.9278 56.0936 94.618C56.5597 93.9302 57.3678 93.1553 58.4306 92.3751C60.754 90.6701 64.0787 89.0592 67.7924 87.8388C71.4919 86.6219 75.1141 85.9464 77.9917 85.9358C80.8781 85.9251 82.1359 86.5908 82.3347 87.1633L82.3382 87.174Z" fill="#D3A730"/>
<path fill-rule="evenodd" clip-rule="evenodd" d="M62.6162 98.0033C63.8036 97.8711 65.0805 97.6545 66.4149 97.3545C65.0802 97.6545 63.8037 97.8711 62.6162 98.0033Z" fill="#FDF59D"/>
<path fill-rule="evenodd" clip-rule="evenodd" d="M70.2235 86.0912C71.159 85.8471 72.0723 85.6421 72.9537 85.477C72.0723 85.6421 71.159 85.8471 70.2235 86.0912ZM72.9741 85.4725C72.9812 85.4716 72.9874 85.4707 72.9936 85.469C72.9874 85.4707 72.9812 85.4716 72.9741 85.4725ZM73.0212 85.4637C73.0265 85.4628 73.0318 85.4619 73.0371 85.461C73.0318 85.4619 73.0265 85.4628 73.0212 85.4637ZM73.0691 85.4548C73.0726 85.4548 73.0762 85.4539 73.0797 85.453C73.0762 85.4539 73.0735 85.4548 73.0691 85.4548Z" fill="#51B585"/>
<path fill-rule="evenodd" clip-rule="evenodd" d="M62.6162 98.0032L63.3073 96.9213C64.5143 96.7535 65.7887 96.5032 67.0992 96.1766L66.4149 97.3544C65.0805 97.6544 63.8036 97.871 62.6162 98.0032ZM63.6779 96.3408L69.0031 88.0029C70.141 87.6586 71.2629 87.3683 72.352 87.1358L67.4658 95.5455C66.1601 95.8881 64.8868 96.1553 63.6779 96.3408ZM69.43 87.3337L70.2235 86.0911C71.159 85.847 72.0724 85.642 72.9537 85.4769C72.9608 85.4751 72.9679 85.4742 72.9742 85.4725C72.9813 85.4716 72.9875 85.4707 72.9937 85.4689C73.0026 85.4671 73.0114 85.4654 73.0212 85.4636C73.0265 85.4627 73.0318 85.4618 73.0372 85.4609C73.0478 85.4592 73.0585 85.4574 73.0691 85.4547C73.0736 85.4547 73.0762 85.4538 73.0798 85.4529C73.0931 85.4503 73.1064 85.4485 73.1197 85.4458C73.1206 85.4458 73.1224 85.445 73.1242 85.445C73.2023 85.4308 73.2804 85.4165 73.3585 85.4023L72.7025 86.5313C71.641 86.7453 70.5439 87.0133 69.43 87.3337Z" fill="#FCE769"/>
<path fill-rule="evenodd" clip-rule="evenodd" d="M63.3073 96.9213L63.6779 96.3408C64.8868 96.1553 66.1601 95.8882 67.4658 95.5456L67.0992 96.1766C65.7887 96.5033 64.5143 96.7536 63.3073 96.9213ZM69.0031 88.003L69.43 87.3337C70.5439 87.0133 71.641 86.7453 72.7025 86.5314L72.3519 87.1358C71.2629 87.3683 70.141 87.6586 69.0031 88.003Z" fill="#E7CE62"/>
<path fill-rule="evenodd" clip-rule="evenodd" d="M101.887 21.6766L101.897 21.6859L101.909 21.6935L102.744 22.3522L102.669 22.0169C105.045 22.4427 120.143 3.26811 119.134 1.08112L119.439 1.06843L118.595 0.403373L118.601 0.413137C116.589 -1.055 111.286 2.42527 106.696 8.245C102.1 14.0728 99.9516 20.049 101.863 21.6533L101.855 21.6515L101.887 21.6766Z" fill="#FBED63"/>
<path fill-rule="evenodd" clip-rule="evenodd" d="M102.635 22.2675C100.721 20.7577 102.919 14.779 107.544 8.91375C112.17 3.04848 117.472 -0.482464 119.386 1.0273C121.301 2.53706 119.103 8.51585 114.477 14.381C109.851 20.2463 104.549 23.7772 102.635 22.2675Z" fill="#F9CF38"/>
<path fill-rule="evenodd" clip-rule="evenodd" d="M115.215 3.35112C113.1 4.7644 110.755 7.03908 108.613 9.75612C106.462 12.4832 104.793 15.3019 103.914 17.6932C103.522 18.7581 103.312 19.6882 103.304 20.3831C103.3 20.8777 103.405 21.1421 103.475 21.1978L103.48 21.2009C103.624 21.3093 104.608 21.4126 106.806 19.9435C108.922 18.5302 111.266 16.2556 113.408 13.5385C115.56 10.8114 117.229 7.99268 118.107 5.60147C118.499 4.53656 118.71 3.60656 118.717 2.91159C118.722 2.41712 118.617 2.15254 118.547 2.09804C118.404 1.98851 117.416 1.88041 115.215 3.35112ZM103.187 21.5675C102.873 21.3196 102.832 20.7159 102.835 20.3782C102.843 19.6303 103.063 18.646 103.474 17.5314C104.369 15.0951 106.064 12.2305 108.244 9.46552C110.417 6.71103 112.799 4.40112 114.955 2.96103C117.117 1.51641 118.394 1.39206 118.834 1.72712C119.148 1.97511 119.19 2.57875 119.187 2.91656C119.179 3.66452 118.958 4.64884 118.547 5.76328C117.652 8.19967 115.957 11.0642 113.778 13.8291C111.605 16.5836 109.222 18.8936 107.066 20.3336C104.905 21.7783 103.63 21.9046 103.195 21.5737L103.187 21.5675Z" fill="#D3A730"/>
<path fill-rule="evenodd" clip-rule="evenodd" d="M110.81 18.428C111.477 17.7942 112.151 17.0994 112.822 16.3513C112.151 17.0995 111.477 17.7942 110.81 18.428Z" fill="#F9F9F6"/>
<path fill-rule="evenodd" clip-rule="evenodd" d="M110.691 5.37149C110.695 5.36794 110.698 5.36438 110.702 5.36083C110.698 5.3643 110.695 5.36803 110.691 5.37149ZM110.713 5.35045C110.727 5.3359 110.742 5.32125 110.757 5.30678C110.742 5.32125 110.727 5.33581 110.713 5.35045ZM110.758 5.3058C110.765 5.29853 110.772 5.29125 110.78 5.28388C110.772 5.29134 110.765 5.29844 110.758 5.3058ZM110.781 5.28282C111.224 4.84595 111.665 4.43518 112.101 4.05264C111.665 4.43518 111.224 4.84595 110.781 5.28282ZM112.101 4.0522C112.108 4.04634 112.114 4.04048 112.121 4.03471C112.114 4.04039 112.108 4.04643 112.101 4.0522ZM112.129 4.02734C112.134 4.0237 112.138 4.02015 112.142 4.01651C112.137 4.02024 112.134 4.02362 112.129 4.02734ZM112.151 4.00808C112.155 4.00471 112.159 4.00134 112.163 3.99806C112.159 4.00152 112.156 4.00462 112.151 4.00808ZM112.174 3.98882C112.177 3.9859 112.181 3.98288 112.183 3.97986C112.181 3.98288 112.177 3.9859 112.174 3.98882Z" fill="#FDF59D"/>
<path fill-rule="evenodd" clip-rule="evenodd" d="M110.81 18.428L110.741 17.2542C111.433 16.5654 112.122 15.8179 112.799 15.0231L112.822 16.3514C112.151 17.0994 111.477 17.7943 110.81 18.428ZM110.704 16.6257L110.186 7.87967C110.997 6.97293 111.82 6.13861 112.634 5.39757L112.787 14.3083C112.104 15.1326 111.405 15.9092 110.704 16.6257ZM110.147 7.2234L110.075 5.99864C110.268 5.79787 110.46 5.6018 110.652 5.41053C110.653 5.40938 110.654 5.40814 110.656 5.40698C110.661 5.40183 110.666 5.39668 110.671 5.39154C110.674 5.38923 110.675 5.38692 110.678 5.38461C110.683 5.38026 110.687 5.37592 110.691 5.37157C110.695 5.36811 110.698 5.36438 110.702 5.36092C110.706 5.35745 110.709 5.35399 110.713 5.35053C110.727 5.33589 110.742 5.32133 110.757 5.30686C110.757 5.30651 110.757 5.30624 110.758 5.30589C110.765 5.29852 110.772 5.29142 110.78 5.28397C110.78 5.28361 110.781 5.28325 110.781 5.2829C111.224 4.84603 111.665 4.43527 112.101 4.05272C112.101 4.05254 112.101 4.05237 112.101 4.05228C112.108 4.04651 112.114 4.04047 112.121 4.03479C112.124 4.03231 112.127 4.02991 112.129 4.02743C112.134 4.0237 112.137 4.02032 112.142 4.0166C112.145 4.01376 112.148 4.011 112.151 4.00816C112.156 4.0047 112.159 4.0016 112.163 3.99814C112.167 3.99503 112.17 3.99201 112.174 3.98891C112.177 3.98598 112.181 3.98296 112.183 3.97994C112.188 3.97674 112.191 3.97355 112.195 3.97026C112.197 3.96858 112.199 3.96716 112.2 3.96547C112.335 3.84787 112.47 3.73311 112.604 3.62109L112.624 4.77751C111.801 5.50426 110.969 6.32624 110.147 7.2234Z" fill="#FCE769"/>
<path fill-rule="evenodd" clip-rule="evenodd" d="M110.741 17.2542L110.704 16.6256C111.405 15.9092 112.104 15.1325 112.787 14.3082L112.799 15.0231C112.122 15.8178 111.433 16.5653 110.741 17.2542ZM110.186 7.87963L110.147 7.22335C110.969 6.32619 111.801 5.50421 112.624 4.77747L112.634 5.39753C111.82 6.13856 110.997 6.97288 110.186 7.87963Z" fill="#E7CE62"/>
<path fill-rule="evenodd" clip-rule="evenodd" d="M55.6283 15.8384L55.6349 15.8276L55.6397 15.8161L56.0796 14.9526L55.7932 15.0791C55.7512 12.8808 35.9306 2.80053 34.1561 4.09169L34.0905 3.82178L33.6462 4.69373L33.654 4.68725C32.7001 6.74633 36.7533 10.8651 42.7702 13.931C48.7958 17.0012 54.5183 17.8577 55.6122 15.865L55.6116 15.8712L55.6283 15.8384Z" fill="#FBED63"/>
<path fill-rule="evenodd" clip-rule="evenodd" d="M56.0234 15.0652C55.0148 17.0444 49.2812 16.1439 43.217 13.0541C37.1529 9.9642 33.0546 5.85483 34.0631 3.87563C35.0716 1.89643 40.8051 2.79669 46.8693 5.88669C52.9335 8.97651 57.0318 13.086 56.0234 15.0652Z" fill="#F9CF38"/>
<path fill-rule="evenodd" clip-rule="evenodd" d="M36.8817 7.18927C38.521 8.82764 40.9707 10.5183 43.7799 11.9497C46.5994 13.3864 49.4152 14.376 51.7084 14.7361C52.7296 14.8964 53.5982 14.9194 54.2205 14.8023C54.6632 14.7189 54.8808 14.5773 54.918 14.5042L54.9199 14.5003C54.9912 14.3518 54.9085 13.4543 53.2047 11.7514C51.5655 10.1128 49.1156 8.42229 46.3066 6.99098C43.4869 5.55418 40.6712 4.56462 38.378 4.20462C37.3569 4.04424 36.4881 4.02134 35.8659 4.13841C35.4231 4.22175 35.2057 4.36341 35.1691 4.43495C35.0969 4.58308 35.1758 5.48433 36.8817 7.18927ZM55.2998 14.6964C55.1341 15.0214 54.602 15.1654 54.2995 15.2223C53.6297 15.3484 52.7108 15.3262 51.6421 15.1583C49.3056 14.7914 46.4445 13.7871 43.5858 12.3305C40.7378 10.8794 38.2497 9.16083 36.5796 7.49157C34.9039 5.81672 34.5655 4.69731 34.7865 4.24421C34.9523 3.91927 35.4844 3.77521 35.7869 3.71832C36.4566 3.59237 37.3756 3.61456 38.4443 3.7824C40.7808 4.14933 43.6419 5.15353 46.5006 6.61021C49.3485 8.06131 51.8367 9.77983 53.5069 11.4492C55.1824 13.1239 55.5221 14.2407 55.3039 14.6882L55.2998 14.6964Z" fill="#D3A730"/>
<path fill-rule="evenodd" clip-rule="evenodd" d="M39.5999 10.9445C39.5966 10.9424 39.5934 10.9402 39.5901 10.938C39.5935 10.9403 39.5965 10.9423 39.5999 10.9445ZM39.5355 10.9015C39.5325 10.8995 39.5295 10.8974 39.5264 10.8954C39.5295 10.8974 39.5324 10.8995 39.5355 10.9015ZM39.5172 10.8892C39.5132 10.8865 39.5092 10.8838 39.5052 10.8812C39.5092 10.8838 39.5132 10.8865 39.5172 10.8892ZM39.4923 10.8724C39.4892 10.8703 39.4861 10.8683 39.483 10.8662C39.4861 10.8683 39.4892 10.8703 39.4923 10.8724ZM39.4747 10.8606C39.463 10.8527 39.4511 10.8447 39.4394 10.8368C39.4513 10.8448 39.4628 10.8525 39.4747 10.8606ZM39.4315 10.8314C39.4281 10.8291 39.4245 10.8268 39.4213 10.8245C39.4249 10.8269 39.4277 10.8289 39.4315 10.8314ZM39.4139 10.8195C39.4073 10.815 39.4007 10.8105 39.3942 10.8061C39.4006 10.8104 39.4074 10.8151 39.4139 10.8195ZM39.3895 10.8029C39.3853 10.8001 39.3812 10.7973 39.3771 10.7945C39.3813 10.7974 39.3851 10.8 39.3895 10.8029ZM39.373 10.7917C39.365 10.7863 39.357 10.7809 39.349 10.7755C39.3569 10.7808 39.3651 10.7864 39.373 10.7917ZM39.3463 10.7736C39.3424 10.7709 39.3386 10.7684 39.3346 10.7656C39.3386 10.7684 39.3424 10.7709 39.3463 10.7736ZM39.3285 10.7614C39.3159 10.7528 39.3033 10.7442 39.2907 10.7356C39.3034 10.7443 39.3157 10.7527 39.3285 10.7614ZM39.2866 10.7328C39.2734 10.7237 39.2602 10.7148 39.247 10.7056C39.2603 10.7148 39.2733 10.7237 39.2866 10.7328ZM39.2439 10.7035C39.2395 10.7005 39.235 10.6974 39.2307 10.6944C39.2352 10.6975 39.2394 10.7004 39.2439 10.7035ZM39.23 10.694C39.2206 10.6874 39.2112 10.6809 39.2017 10.6745C39.211 10.6808 39.2207 10.6875 39.23 10.694ZM39.2016 10.6744C39.1968 10.6711 39.1922 10.6679 39.1874 10.6646C39.1922 10.6679 39.1968 10.6711 39.2016 10.6744ZM39.1868 10.6642C39.1726 10.6543 39.1584 10.6445 39.1442 10.6347C39.1586 10.6447 39.1723 10.6541 39.1868 10.6642ZM39.1436 10.6343C39.13 10.6248 39.1162 10.6153 39.1025 10.6058C39.1163 10.6153 39.1299 10.6248 39.1436 10.6343ZM39.0997 10.6037C39.081 10.5908 39.0625 10.5778 39.0439 10.5648C39.0626 10.5779 39.0809 10.5907 39.0997 10.6037ZM39.0434 10.5646C39.034 10.558 39.0247 10.5514 39.0153 10.5449C39.0248 10.5515 39.0339 10.5579 39.0434 10.5646ZM39.0153 10.5448C39.0106 10.5416 39.006 10.5383 39.0014 10.5351C39.0061 10.5384 39.0105 10.5415 39.0153 10.5448ZM39.0005 10.5344C38.9864 10.5246 38.9725 10.5148 38.9585 10.5049C38.9724 10.5147 38.9865 10.5246 39.0005 10.5344ZM38.9584 10.5048C38.9444 10.4949 38.9302 10.485 38.9162 10.4751C38.9303 10.485 38.9443 10.4949 38.9584 10.5048ZM38.916 10.4748C38.9019 10.465 38.888 10.4551 38.8741 10.4453C38.8882 10.4552 38.9018 10.4649 38.916 10.4748ZM38.8736 10.4449C38.8692 10.4417 38.8647 10.4386 38.8603 10.4354C38.8647 10.4385 38.8692 10.4417 38.8736 10.4449ZM38.8583 10.434C38.8449 10.4246 38.8316 10.4151 38.8184 10.4056C38.8315 10.415 38.845 10.4246 38.8583 10.434ZM38.8165 10.4042C38.8035 10.395 38.7906 10.3858 38.7778 10.3766C38.7909 10.386 38.8033 10.3949 38.8165 10.4042ZM38.7738 10.3737C38.7612 10.3648 38.7488 10.3558 38.7362 10.3469C38.7487 10.3558 38.7612 10.3648 38.7738 10.3737ZM38.7324 10.3441C38.7285 10.3413 38.7246 10.3384 38.7207 10.3357C38.7244 10.3383 38.7287 10.3414 38.7324 10.3441ZM38.7171 10.3331C38.7099 10.3279 38.7028 10.3227 38.6956 10.3176C38.7028 10.3227 38.7099 10.3279 38.7171 10.3331ZM38.6911 10.3144C38.6874 10.3117 38.6837 10.309 38.68 10.3063C38.6838 10.309 38.6873 10.3116 38.6911 10.3144ZM38.675 10.3027C38.6675 10.2972 38.66 10.2918 38.6525 10.2865C38.66 10.2919 38.6674 10.2972 38.675 10.3027ZM38.6504 10.2849C38.6468 10.2823 38.6433 10.2798 38.6397 10.2772C38.6435 10.2799 38.6467 10.2822 38.6504 10.2849ZM38.6332 10.2724C38.6298 10.27 38.6265 10.2676 38.6232 10.2652C38.6267 10.2677 38.6297 10.2699 38.6332 10.2724ZM38.6147 10.259C38.6096 10.2553 38.6047 10.2517 38.5996 10.2481C38.6045 10.2516 38.6098 10.2554 38.6147 10.259ZM38.5924 10.2428C38.5893 10.2406 38.5861 10.2382 38.5829 10.2359C38.5861 10.2382 38.5893 10.2406 38.5924 10.2428ZM38.5746 10.2299C38.5697 10.2262 38.5647 10.2226 38.5599 10.219C38.565 10.2229 38.5694 10.2261 38.5746 10.2299ZM38.5338 10.2C38.5299 10.1972 38.5261 10.1944 38.5222 10.1915C38.5262 10.1945 38.5299 10.1971 38.5338 10.2Z" fill="#FDF59D"/>
<path fill-rule="evenodd" clip-rule="evenodd" d="M51.138 8.44283C51.1226 8.432 51.1071 8.42109 51.0918 8.41026C51.1072 8.42109 51.1226 8.43191 51.138 8.44283ZM51.0831 8.40414C51.0771 8.39996 51.071 8.3957 51.065 8.39153C51.0711 8.3957 51.077 8.39996 51.0831 8.40414ZM51.0474 8.3791C51.0438 8.37662 51.0396 8.37369 51.036 8.37121C51.0397 8.37387 51.0436 8.37644 51.0474 8.3791ZM49.8318 7.57044C49.8279 7.56804 49.8242 7.56564 49.8204 7.56325C49.8241 7.56564 49.828 7.56804 49.8318 7.57044ZM49.7989 7.54967C49.7928 7.54585 49.7871 7.54221 49.781 7.53831C49.7869 7.54212 49.7929 7.54594 49.7989 7.54967ZM49.7657 7.52872C49.7586 7.52419 49.7519 7.52002 49.7448 7.51558C49.7518 7.51993 49.7588 7.52437 49.7657 7.52872ZM49.738 7.51124C49.4728 7.34455 49.2015 7.1791 48.9244 7.01526H48.9245C49.2015 7.1791 49.4729 7.34455 49.738 7.51124Z" fill="#51B585"/>
<path fill-rule="evenodd" clip-rule="evenodd" d="M40.1619 11.3111C40.0511 11.2405 39.9415 11.1696 39.8329 11.0986C39.8327 11.0984 39.8322 11.0981 39.832 11.0979C39.8253 11.0936 39.8187 11.0892 39.8121 11.085C39.8115 11.0845 39.8108 11.0841 39.8102 11.0837C39.7964 11.0747 39.7825 11.0655 39.7688 11.0565C39.7681 11.056 39.7673 11.0556 39.7667 11.0551C39.7531 11.0462 39.7396 11.0372 39.7259 11.0282C39.725 11.0276 39.7235 11.0266 39.7225 11.0259C39.7162 11.0218 39.7099 11.0177 39.7036 11.0135C39.7033 11.0132 39.703 11.0131 39.7026 11.0128C39.6961 11.0085 39.6896 11.0042 39.683 10.9998C39.6815 10.9988 39.6798 10.9977 39.6782 10.9966C39.6734 10.9935 39.6686 10.9903 39.6638 10.9872C39.662 10.9859 39.6599 10.9845 39.6581 10.9832C39.6521 10.9793 39.6462 10.9753 39.6402 10.9714C39.6381 10.97 39.6361 10.9686 39.6338 10.9672C39.6298 10.9645 39.6258 10.9618 39.6217 10.9591C39.6188 10.9572 39.6167 10.9557 39.6139 10.9539C39.6093 10.9508 39.6046 10.9477 39.5999 10.9445C39.5965 10.9423 39.5935 10.9403 39.5901 10.938C39.5859 10.9352 39.5818 10.9325 39.5778 10.9297C39.5756 10.9283 39.5735 10.9269 39.5713 10.9255C39.5664 10.9222 39.5617 10.919 39.5568 10.9157C39.554 10.9138 39.5512 10.912 39.5484 10.9101C39.5441 10.9073 39.5398 10.9043 39.5355 10.9015C39.5324 10.8995 39.5295 10.8974 39.5264 10.8954C39.5233 10.8933 39.5203 10.8913 39.5172 10.8893C39.5132 10.8865 39.5092 10.8838 39.5052 10.8812C39.5009 10.8782 39.4965 10.8753 39.4923 10.8724C39.4892 10.8703 39.4861 10.8683 39.483 10.8662C39.4803 10.8643 39.4775 10.8624 39.4747 10.8606C39.4628 10.8525 39.4514 10.8448 39.4394 10.8368C39.4367 10.8349 39.4341 10.8332 39.4315 10.8314C39.4277 10.8289 39.4249 10.8269 39.4213 10.8245C39.4188 10.8228 39.4164 10.8212 39.4139 10.8195C39.4074 10.8151 39.4006 10.8104 39.3942 10.8061C39.3926 10.805 39.391 10.804 39.3895 10.8029C39.3851 10.8001 39.3813 10.7974 39.3771 10.7945C39.3757 10.7936 39.3743 10.7927 39.373 10.7917C39.3651 10.7864 39.3569 10.7808 39.349 10.7755C39.3482 10.7748 39.3472 10.7742 39.3464 10.7736C39.3425 10.7709 39.3386 10.7684 39.3346 10.7656C39.3327 10.7643 39.3306 10.7629 39.3285 10.7614C39.3157 10.7527 39.3034 10.7443 39.2907 10.7356C39.2894 10.7346 39.288 10.7338 39.2866 10.7328C39.2733 10.7237 39.2603 10.7148 39.247 10.7056C39.2461 10.7049 39.2449 10.7042 39.2439 10.7035C39.2394 10.7004 39.2352 10.6975 39.2307 10.6944C39.2304 10.6943 39.2303 10.6941 39.23 10.694C39.2207 10.6875 39.211 10.6808 39.2017 10.6745L39.2016 10.6744C39.1968 10.6711 39.1922 10.6679 39.1874 10.6646C39.1872 10.6644 39.1869 10.6643 39.1868 10.6642C39.1723 10.6541 39.1586 10.6447 39.1443 10.6347C39.1441 10.6346 39.1439 10.6344 39.1436 10.6343C39.1299 10.6248 39.1163 10.6153 39.1025 10.6058C39.1016 10.6051 39.1007 10.6044 39.0997 10.6037C39.0809 10.5907 39.0626 10.5779 39.0439 10.5648C39.0438 10.5648 39.0436 10.5647 39.0434 10.5646C39.0339 10.5579 39.0248 10.5515 39.0153 10.5449V10.5448C39.0105 10.5415 39.0061 10.5384 39.0014 10.5351C39.0012 10.5349 39.0007 10.5346 39.0005 10.5344C38.9865 10.5246 38.9724 10.5147 38.9585 10.5049C38.9585 10.5049 38.9585 10.5049 38.9584 10.5048C38.9443 10.4949 38.9303 10.4851 38.9162 10.4751C38.9161 10.475 38.9161 10.4749 38.916 10.4748C38.9018 10.4649 38.8882 10.4552 38.8741 10.4453C38.8739 10.4451 38.8737 10.445 38.8736 10.4449C38.8692 10.4417 38.8647 10.4385 38.8603 10.4354C38.8596 10.435 38.859 10.4345 38.8583 10.434C38.845 10.4246 38.8316 10.415 38.8184 10.4056C38.8177 10.4052 38.8171 10.4047 38.8165 10.4042C38.8033 10.3949 38.7909 10.386 38.7778 10.3766C38.7764 10.3757 38.7751 10.3747 38.7738 10.3737C38.7613 10.3648 38.7487 10.3558 38.7362 10.3469C38.735 10.346 38.7337 10.345 38.7324 10.3441C38.7287 10.3414 38.7244 10.3383 38.7207 10.3357C38.7195 10.3348 38.7184 10.334 38.7171 10.3331C38.71 10.3279 38.7028 10.3227 38.6956 10.3176C38.6941 10.3165 38.6926 10.3154 38.6911 10.3144C38.6873 10.3116 38.6838 10.309 38.68 10.3063C38.6784 10.3051 38.6767 10.3039 38.675 10.3027C38.6674 10.2972 38.66 10.2919 38.6525 10.2865C38.6518 10.286 38.6511 10.2854 38.6504 10.2849C38.6467 10.2822 38.6435 10.2799 38.6397 10.2772C38.6376 10.2757 38.6353 10.274 38.6332 10.2724C38.6297 10.2699 38.6267 10.2677 38.6232 10.2652C38.6204 10.2632 38.6176 10.261 38.6147 10.259C38.6098 10.2554 38.6045 10.2516 38.5996 10.2481C38.5972 10.2463 38.5948 10.2446 38.5924 10.2428C38.5893 10.2406 38.5861 10.2382 38.5829 10.2359C38.5801 10.2339 38.5774 10.2319 38.5746 10.2299C38.5694 10.2261 38.565 10.2229 38.5599 10.219C38.5572 10.2171 38.5545 10.2152 38.5519 10.2133C38.549 10.2111 38.5459 10.2089 38.5431 10.2068C38.54 10.2046 38.5369 10.2024 38.5339 10.2001C38.5299 10.1971 38.5262 10.1945 38.5222 10.1915C38.5185 10.1889 38.5149 10.1861 38.5111 10.1835C38.5086 10.1816 38.506 10.1796 38.5034 10.1778C38.5001 10.1754 38.4968 10.173 38.4936 10.1706C38.491 10.1687 38.4889 10.1672 38.4865 10.1653C38.4811 10.1614 38.4757 10.1574 38.4705 10.1535C38.4688 10.1523 38.467 10.151 38.4652 10.1497C38.4612 10.1467 38.457 10.1437 38.4529 10.1406C38.451 10.1392 38.449 10.1377 38.447 10.1363C38.4416 10.1323 38.4362 10.1283 38.4309 10.1243C38.4295 10.1233 38.428 10.1222 38.4265 10.1211C38.4219 10.1178 38.4173 10.1143 38.4127 10.1109C38.411 10.1097 38.4099 10.1088 38.4082 10.1076C38.3961 10.0986 38.3839 10.0896 38.3719 10.0806C38.3716 10.0804 38.3709 10.08 38.3706 10.0797C38.358 10.0704 38.3456 10.0611 38.333 10.0517C38.3327 10.0516 38.3321 10.051 38.3318 10.0508C38.0744 9.85878 37.826 9.66644 37.5874 9.47455L38.6174 9.25115C39.4131 9.85692 40.2957 10.4543 41.2435 11.0285L40.1619 11.3111ZM41.823 10.877C40.8687 10.3147 39.9767 9.72777 39.1695 9.13141L47.105 7.40996C47.9632 7.87363 48.7814 8.35958 49.5464 8.85875L41.823 10.877ZM50.1014 8.71372C49.3628 8.21863 48.5721 7.73508 47.7415 7.27186L48.9245 7.01526C49.2015 7.1791 49.4728 7.34455 49.738 7.51124C49.7402 7.51275 49.7425 7.51416 49.7448 7.51558C49.7519 7.52002 49.7586 7.52419 49.7657 7.52872C49.7708 7.53192 49.7758 7.53511 49.781 7.53831C49.7871 7.54221 49.7928 7.54585 49.7989 7.54967C49.8061 7.55419 49.8132 7.55872 49.8204 7.56325C49.8242 7.56564 49.8279 7.56804 49.8318 7.57044C49.84 7.57567 49.8481 7.58082 49.8563 7.58597C49.8592 7.58783 49.8617 7.58952 49.8647 7.59129C49.8739 7.59715 49.8831 7.60301 49.8923 7.60887C49.8943 7.61011 49.8957 7.61109 49.8977 7.61233C49.9086 7.61925 49.9195 7.62627 49.9305 7.63328L49.9311 7.63363C50.2912 7.86351 50.6396 8.09553 50.9749 8.32869C50.9762 8.32949 50.9772 8.3302 50.9784 8.331C50.9875 8.33739 50.9966 8.34369 51.0057 8.34999C51.0074 8.35123 51.0099 8.35301 51.0117 8.35425C51.0198 8.35984 51.0278 8.36553 51.036 8.37121C51.0396 8.37369 51.0438 8.37662 51.0474 8.3791C51.0532 8.38328 51.0592 8.38736 51.065 8.39153C51.071 8.3957 51.0771 8.39996 51.0831 8.40414C51.086 8.40618 51.0888 8.40822 51.0918 8.41026C51.1071 8.42109 51.1226 8.432 51.138 8.44283L50.1014 8.71372Z" fill="#FCE769"/>
<path fill-rule="evenodd" clip-rule="evenodd" d="M41.2435 11.0285C40.2957 10.4543 39.4131 9.85691 38.6174 9.25114L39.1696 9.13141C39.9767 9.72777 40.8687 10.3147 41.823 10.877L41.2435 11.0285ZM49.5464 8.85874C48.7814 8.35957 47.9632 7.87363 47.105 7.40996L47.7415 7.27185C48.5721 7.73508 49.3628 8.21863 50.1014 8.71371L49.5464 8.85874Z" fill="#E7CE62"/>
<path fill-rule="evenodd" clip-rule="evenodd" d="M36.3861 58.1946L36.4008 58.1775L36.4127 58.1583L37.4449 56.7507L36.8993 56.8926C37.4608 52.9727 5.14377 29.3149 1.61525 31.0965L1.5769 30.5977L0.534517 32.0192L0.550227 32.0099C-1.74162 35.394 4.27136 43.8895 14.0804 51.0816C23.9032 58.2838 33.8283 61.4632 36.3495 58.2374L36.3468 58.2483L36.3861 58.1946Z" fill="#FBED63"/>
<path fill-rule="evenodd" clip-rule="evenodd" d="M37.3122 56.9345C34.9463 60.161 25.0143 56.9006 15.1285 49.6521C5.24274 42.4036 -0.853413 33.9119 1.51246 30.6853C3.87833 27.4588 13.8103 30.7192 23.6962 37.9677C33.582 45.2162 39.678 53.7079 37.3122 56.9345Z" fill="#F9CF38"/>
<path fill-rule="evenodd" clip-rule="evenodd" d="M5.56386 37.3921C8.00358 40.7794 11.8692 44.4939 16.4487 47.8518C21.0451 51.222 25.7643 53.7964 29.7367 55.1005C31.5056 55.681 33.0432 55.9733 34.1833 55.9454C34.9946 55.9254 35.4223 55.7364 35.5097 55.6173L35.5143 55.611C35.6839 55.3676 35.7966 53.7482 33.2608 50.2277C30.8211 46.8403 26.9554 43.1257 22.376 39.7681C17.7795 36.3977 13.0605 33.8234 9.08804 32.5194C7.31908 31.9388 5.78141 31.6465 4.64139 31.6746C3.83004 31.6944 3.4024 31.8834 3.31684 32C3.14553 32.2423 3.02509 33.8674 5.56386 37.3921ZM36.1327 56.0695C35.7441 56.5993 34.7564 56.7013 34.2022 56.7149C32.9752 56.7451 31.348 56.4397 29.4967 55.8318C25.4492 54.5031 20.6537 51.8895 15.9933 48.4726C11.3507 45.0683 7.42487 41.293 4.93918 37.8421C2.44531 34.3797 2.16785 32.2917 2.69206 31.5503C3.08056 31.0205 4.06827 30.9185 4.62257 30.9049C5.84949 30.8748 7.47671 31.1802 9.32805 31.7881C13.3755 33.1168 18.171 35.7302 22.8313 39.1472C27.4739 42.5513 31.3997 46.3267 33.8855 49.7776C36.3793 53.24 36.6599 55.3236 36.1423 56.0561L36.1327 56.0695Z" fill="#D3A730"/>
<path fill-rule="evenodd" clip-rule="evenodd" d="M10.2019 45.6693C8.69457 44.3224 7.33718 42.973 6.15686 41.6592L8.05231 41.5602C9.29165 42.8673 10.6877 44.1849 12.2063 45.48L10.2019 45.6693ZM13.2806 45.3785C11.7466 44.1025 10.3313 42.8011 9.06869 41.507L23.6742 40.7441C25.0655 41.8167 26.3793 42.9175 27.5947 44.0264L13.2806 45.3785ZM28.6234 43.9292C27.4539 42.8353 26.1881 41.7468 24.8458 40.6829L27.0229 40.5692C28.2884 41.6253 29.4668 42.691 30.5447 43.7477L28.6234 43.9292Z" fill="#FCE769"/>
<path fill-rule="evenodd" clip-rule="evenodd" d="M12.2063 45.4801C10.6877 44.185 9.29165 42.8674 8.05231 41.5603L9.06869 41.5071C10.3313 42.8012 11.7465 44.1025 13.2806 45.3786L12.2063 45.4801ZM27.5947 44.0265C26.3793 42.9175 25.0655 41.8168 23.6742 40.7441L24.8458 40.683C26.1881 41.7469 27.4539 42.8353 28.6234 43.9293L27.5947 44.0265Z" fill="#E7CE62"/>
<path fill-rule="evenodd" clip-rule="evenodd" d="M184.722 148.621H182.393C182.056 148.436 181.722 148.251 181.387 148.06V144.742C182.735 144.501 184.081 144.242 185.424 143.968C188.204 143.402 190.971 142.769 193.722 142.07V146.64C190.74 147.377 187.74 148.038 184.722 148.621Z" fill="#119B51"/>
<path fill-rule="evenodd" clip-rule="evenodd" d="M182.993 148.946C182.792 148.839 182.592 148.731 182.393 148.621H184.722C184.146 148.733 183.57 148.841 182.993 148.946Z" fill="#522C6C"/>
<path fill-rule="evenodd" clip-rule="evenodd" d="M181.036 147.859C179.716 147.1 178.408 146.297 177.12 145.454C178.427 145.252 179.733 145.036 181.036 144.805V147.859ZM194.073 146.552V141.982C198.227 140.918 202.341 139.707 206.407 138.346V143.002C202.34 144.332 198.226 145.516 194.073 146.552ZM206.759 142.888V138.228C209.981 137.143 213.173 135.964 216.325 134.692H219.094V138.33C215.037 139.997 210.923 141.518 206.759 142.888ZM219.094 134.198H217.538C218.058 133.984 218.575 133.767 219.094 133.548V134.198Z" fill="#522C6C"/>
<path fill-rule="evenodd" clip-rule="evenodd" d="M219.094 134.692H216.325C216.73 134.529 217.135 134.364 217.538 134.198H219.094V134.692Z" fill="#522C6C"/>
<path fill-rule="evenodd" clip-rule="evenodd" d="M219.444 138.186V134.692H227.357C226.761 134.973 226.162 135.251 225.562 135.525C223.539 136.449 221.499 137.336 219.444 138.186ZM228.398 134.198H219.444V133.399C222.469 132.11 225.458 130.734 228.403 129.273C229.535 128.712 230.66 128.137 231.779 127.552V132.532C230.659 133.099 229.531 133.655 228.398 134.198Z" fill="#119B51"/>
<path fill-rule="evenodd" clip-rule="evenodd" d="M227.357 134.692H219.444V134.198H228.398C228.051 134.364 227.705 134.529 227.357 134.692Z" fill="#522C6C"/>
<path fill-rule="evenodd" clip-rule="evenodd" d="M232.131 132.353V127.367C236.301 125.169 240.383 122.8 244.36 120.27H244.465V125.421C240.451 127.897 236.336 130.211 232.131 132.353ZM244.816 125.204V120.27H252.34C249.874 121.978 247.365 123.623 244.816 125.204ZM253.05 119.775H245.131C249.258 117.117 253.268 114.284 257.151 111.281V116.817C255.797 117.823 254.43 118.809 253.05 119.775ZM257.502 116.556V111.009C259.649 109.339 261.757 107.618 263.823 105.847H269.836V106.458C267.668 108.404 265.451 110.296 263.186 112.133C261.32 113.646 259.425 115.12 257.502 116.556ZM270.188 106.142V105.847H270.515C270.406 105.945 270.297 106.044 270.188 106.142ZM271.058 105.352H270.188V100.117C273.151 97.319 276.018 94.4184 278.783 91.4237H282.522V93.8725C278.875 97.8684 275.052 101.7 271.058 105.352ZM269.836 105.352H264.396C266.242 103.755 268.057 102.119 269.836 100.448V105.352ZM282.873 93.4864V91.4237H284.718C284.109 92.1151 283.493 92.8039 282.873 93.4864ZM285.152 90.9293H282.873V86.834C285.611 83.6521 288.235 80.3707 290.735 77.0006H295.208V78.3701C294.439 79.4201 293.659 80.463 292.868 81.4962C290.397 84.7252 287.825 87.8716 285.152 90.9293ZM282.522 90.9293H279.238C280.349 89.7151 281.445 88.4849 282.522 87.2406V90.9293ZM295.559 77.8882V77.0006H296.2C295.987 77.2971 295.774 77.5926 295.559 77.8882ZM296.553 76.5062H295.559V70.161C297.227 67.675 298.834 65.1454 300.375 62.5775H305.521C302.751 67.3567 299.756 72.0053 296.553 76.5062ZM295.208 76.5062H291.1C291.435 76.0509 291.767 75.5956 292.097 75.1376C293.155 73.6687 294.194 72.1829 295.208 70.682V76.5062ZM305.807 62.0831H300.67C303.273 57.7144 305.687 53.2322 307.894 48.6558V58.352C307.214 59.6039 306.518 60.848 305.807 62.0831ZM308.245 57.7029V48.1544H313.011C311.521 51.3847 309.931 54.5701 308.245 57.7029ZM313.239 47.6601H308.37C309.17 45.9723 309.943 44.2711 310.686 42.5588L314.791 44.1664C314.669 44.4503 314.545 44.7339 314.422 45.0172C314.035 45.9016 313.641 46.7824 313.239 47.6601Z" fill="#522C6C"/>
<path fill-rule="evenodd" clip-rule="evenodd" d="M244.465 125.421V120.27H244.816V125.204C244.699 125.277 244.583 125.348 244.465 125.421Z" fill="#522C6C"/>
<path fill-rule="evenodd" clip-rule="evenodd" d="M257.151 116.817V111.281C257.268 111.191 257.385 111.1 257.502 111.009V116.556C257.385 116.643 257.267 116.731 257.151 116.817Z" fill="#522C6C"/>
<path fill-rule="evenodd" clip-rule="evenodd" d="M269.836 106.458V105.847H270.188V106.142C270.071 106.248 269.954 106.353 269.836 106.458ZM270.188 105.352H269.836V100.448C269.954 100.338 270.071 100.228 270.188 100.117V105.352Z" fill="#522C6C"/>
<path fill-rule="evenodd" clip-rule="evenodd" d="M282.522 93.8725V91.4236H282.873V93.4864C282.756 93.6151 282.64 93.7438 282.522 93.8725ZM282.873 90.9293H282.522V87.2405C282.64 87.1047 282.756 86.9698 282.873 86.834V90.9293Z" fill="#522C6C"/>
<path fill-rule="evenodd" clip-rule="evenodd" d="M295.208 78.3701V77.0005H295.559V77.8881C295.442 78.0488 295.325 78.2094 295.208 78.3701ZM295.559 76.5062H295.208V70.6819C295.325 70.5079 295.442 70.3349 295.559 70.1609V76.5062Z" fill="#522C6C"/>
<path fill-rule="evenodd" clip-rule="evenodd" d="M307.894 58.3519V48.6557C307.974 48.4887 308.054 48.3216 308.134 48.1543H308.245V57.7028C308.128 57.9197 308.012 58.1355 307.894 58.3519Z" fill="#522C6C"/>
<path fill-rule="evenodd" clip-rule="evenodd" d="M313.011 48.1543H308.134C308.213 47.9894 308.291 47.8252 308.37 47.66H313.239C313.163 47.825 313.088 47.9896 313.011 48.1543Z" fill="#522C6C"/>
<path fill-rule="evenodd" clip-rule="evenodd" d="M305.521 62.5774H300.375C300.473 62.4125 300.572 62.2483 300.67 62.083H305.807C305.712 62.2478 305.617 62.4129 305.521 62.5774Z" fill="#522C6C"/>
<path fill-rule="evenodd" clip-rule="evenodd" d="M296.2 77.0006H290.735C290.857 76.8355 290.979 76.6713 291.1 76.5062H296.553C296.436 76.6704 296.318 76.8364 296.2 77.0006Z" fill="#522C6C"/>
<path fill-rule="evenodd" clip-rule="evenodd" d="M284.718 91.4237H278.783C278.936 91.2586 279.086 91.0944 279.238 90.9293H285.152C285.007 91.0944 284.862 91.2586 284.718 91.4237Z" fill="#522C6C"/>
<path fill-rule="evenodd" clip-rule="evenodd" d="M270.515 105.847H263.823C263.877 105.8 263.931 105.753 263.985 105.707C264.123 105.589 264.26 105.47 264.396 105.352H271.058C270.878 105.517 270.696 105.683 270.515 105.847Z" fill="#522C6C"/>
<path fill-rule="evenodd" clip-rule="evenodd" d="M252.34 120.27H244.36C244.617 120.106 244.875 119.941 245.131 119.775H253.05C252.814 119.941 252.577 120.106 252.34 120.27Z" fill="#522C6C"/>
<path fill-rule="evenodd" clip-rule="evenodd" d="M181.387 148.06C181.27 147.993 181.153 147.927 181.036 147.859V144.805C181.154 144.785 181.27 144.763 181.387 144.742V148.06Z" fill="#522C6C"/>
<path fill-rule="evenodd" clip-rule="evenodd" d="M193.722 146.64V142.07C193.839 142.041 193.956 142.011 194.073 141.982V146.552C193.957 146.581 193.838 146.61 193.722 146.64Z" fill="#522C6C"/>
<path fill-rule="evenodd" clip-rule="evenodd" d="M206.407 143.002V138.346C206.525 138.307 206.642 138.267 206.759 138.228V142.888C206.643 142.926 206.525 142.964 206.407 143.002Z" fill="#522C6C"/>
<path fill-rule="evenodd" clip-rule="evenodd" d="M219.094 138.33V133.548C219.21 133.499 219.328 133.449 219.444 133.399V138.185C219.328 138.234 219.21 138.282 219.094 138.33Z" fill="#522C6C"/>
<path fill-rule="evenodd" clip-rule="evenodd" d="M231.779 132.532V127.551C231.896 127.49 232.013 127.429 232.131 127.367V132.353C232.013 132.413 231.896 132.472 231.779 132.532Z" fill="#522C6C"/>
<path fill-rule="evenodd" clip-rule="evenodd" d="M150.436 151.917C148.067 151.917 145.698 151.869 143.33 151.773V149.115H155.665V151.84C153.922 151.891 152.18 151.917 150.436 151.917ZM155.665 148.621H143.33V147.343C145.724 147.442 148.119 147.491 150.515 147.491C152.232 147.491 153.949 147.466 155.665 147.415V148.621Z" fill="#196737"/>
<path fill-rule="evenodd" clip-rule="evenodd" d="M143.33 149.115H155.665V148.621H143.33V149.115Z" fill="#522C6C"/>
<path fill-rule="evenodd" clip-rule="evenodd" d="M156.015 151.829V149.115H168.35V151.015C164.248 151.427 160.135 151.7 156.015 151.829ZM168.35 148.621H156.015V147.405C160.135 147.274 164.25 146.999 168.35 146.578V148.621Z" fill="#196737"/>
<path fill-rule="evenodd" clip-rule="evenodd" d="M156.015 149.115H168.35V148.621H156.015V149.115Z" fill="#522C6C"/>
<path fill-rule="evenodd" clip-rule="evenodd" d="M142.979 151.759C140.107 151.637 137.236 151.443 134.371 151.177C133.222 151.07 132.237 150.317 132.158 149.115H142.979V151.759ZM142.979 148.621H132.182C132.35 147.658 133.208 146.732 134.218 146.732C134.268 146.732 134.32 146.735 134.371 146.739C136.24 146.913 138.111 147.059 139.984 147.172C140.982 147.233 141.98 147.285 142.979 147.328V148.621Z" fill="#196737"/>
<path fill-rule="evenodd" clip-rule="evenodd" d="M142.979 149.115H132.158C132.154 149.064 132.152 149.011 132.152 148.958C132.152 148.846 132.162 148.733 132.182 148.621H142.979V149.115Z" fill="#522C6C"/>
<path fill-rule="evenodd" clip-rule="evenodd" d="M168.702 150.98V149.115H181.036V149.293C176.943 149.994 172.83 150.557 168.702 150.98ZM181.036 148.621H168.702V146.542C171.515 146.247 174.323 145.884 177.12 145.454C178.408 146.297 179.716 147.1 181.036 147.859V148.621Z" fill="#196737"/>
<path fill-rule="evenodd" clip-rule="evenodd" d="M168.702 149.115H181.036V148.621H168.702V149.115Z" fill="#522C6C"/>
<path fill-rule="evenodd" clip-rule="evenodd" d="M181.387 149.232V149.115H182.053C181.831 149.155 181.609 149.193 181.387 149.232ZM182.393 148.621H181.387V148.06C181.722 148.251 182.056 148.436 182.393 148.621Z" fill="#196737"/>
<path fill-rule="evenodd" clip-rule="evenodd" d="M182.053 149.115H181.387V148.621H182.393C182.592 148.731 182.792 148.839 182.993 148.946C182.679 149.003 182.367 149.06 182.053 149.115Z" fill="#522C6C"/>
<path fill-rule="evenodd" clip-rule="evenodd" d="M143.33 151.773C143.213 151.769 143.096 151.764 142.979 151.759V147.328C143.096 147.333 143.213 147.338 143.33 147.343V151.773Z" fill="#522C6C"/>
<path fill-rule="evenodd" clip-rule="evenodd" d="M155.665 151.84V147.415C155.782 147.412 155.899 147.408 156.015 147.405V151.829C155.9 151.833 155.781 151.836 155.665 151.84Z" fill="#522C6C"/>
<path fill-rule="evenodd" clip-rule="evenodd" d="M168.35 151.015V146.578C168.468 146.566 168.584 146.554 168.702 146.542V150.98C168.584 150.992 168.467 151.004 168.35 151.015Z" fill="#522C6C"/>
<path fill-rule="evenodd" clip-rule="evenodd" d="M181.036 149.293V147.859C181.153 147.927 181.27 147.993 181.387 148.06V149.232C181.282 149.25 181.176 149.269 181.071 149.286C181.06 149.288 181.047 149.291 181.036 149.293Z" fill="#522C6C"/>
<path fill-rule="evenodd" clip-rule="evenodd" d="M318.968 45.8019L308.245 41.6032V39.2158L315.111 33.7314H317.139L318.968 45.8019ZM307.894 41.4658L306.239 40.8179L307.894 39.4962V41.4658ZM317.064 33.2371H315.729L316.92 32.2863L317.064 33.2371Z" fill="#522C6C"/>
<path fill-rule="evenodd" clip-rule="evenodd" d="M308.245 41.6032L307.894 41.4658V39.4962L308.245 39.2158V41.6032Z" fill="#522C6C"/>
<path fill-rule="evenodd" clip-rule="evenodd" d="M317.139 33.7313H315.111L315.729 33.2371H317.064L317.139 33.7313Z" fill="#522C6C"/>
<path fill-rule="evenodd" clip-rule="evenodd" d="M186.781 224.975C184.974 224.975 183.173 224.969 181.387 224.958V221.23H193.722V224.947C191.43 224.965 189.117 224.975 186.781 224.975ZM181.387 220.736H193.722V206.807H181.387V220.736ZM193.722 206.313H181.387V199.309C182.868 199.299 184.355 199.295 185.853 199.295C188.503 199.295 191.125 199.309 193.722 199.338V206.313Z" fill="#522C6C"/>
<path fill-rule="evenodd" clip-rule="evenodd" d="M181.387 206.807H193.722V206.313H181.387V206.807Z" fill="#522C6C"/>
<path fill-rule="evenodd" clip-rule="evenodd" d="M181.387 221.23H193.722V220.736H181.387V221.23Z" fill="#522C6C"/>
<path fill-rule="evenodd" clip-rule="evenodd" d="M181.036 224.956C176.852 224.928 172.738 224.87 168.702 224.783V221.23H181.036V224.956ZM168.702 220.736H181.036V206.807H168.702V220.736ZM181.036 206.313H168.702V199.498C172.734 199.401 176.851 199.338 181.036 199.311V206.313Z" fill="#522C6C"/>
<path fill-rule="evenodd" clip-rule="evenodd" d="M168.702 206.807H181.036V206.313H168.702V206.807Z" fill="#522C6C"/>
<path fill-rule="evenodd" clip-rule="evenodd" d="M168.702 221.23H181.036V220.736H168.702V221.23Z" fill="#522C6C"/>
<path fill-rule="evenodd" clip-rule="evenodd" d="M194.073 224.944V221.23H206.407V224.747C202.387 224.842 198.267 224.909 194.073 224.944ZM194.073 220.736H206.407V206.807H194.073V220.736ZM206.407 206.313H194.073V199.341C198.266 199.388 202.381 199.472 206.407 199.588V206.313Z" fill="#522C6C"/>
<path fill-rule="evenodd" clip-rule="evenodd" d="M194.073 206.807H206.407V206.313H194.073V206.807Z" fill="#522C6C"/>
<path fill-rule="evenodd" clip-rule="evenodd" d="M194.073 221.23H206.407V220.736H194.073V221.23Z" fill="#522C6C"/>
<path fill-rule="evenodd" clip-rule="evenodd" d="M168.35 224.775C164.142 224.683 160.025 224.56 156.015 224.405V221.23H168.35V224.775ZM156.015 220.736H168.35V206.807H156.015V220.736ZM168.35 206.313H156.015V199.922C160.02 199.749 164.141 199.61 168.35 199.507V206.313Z" fill="#522C6C"/>
<path fill-rule="evenodd" clip-rule="evenodd" d="M156.015 206.807H168.35V206.313H156.015V206.807Z" fill="#522C6C"/>
<path fill-rule="evenodd" clip-rule="evenodd" d="M156.015 221.23H168.35V220.736H156.015V221.23Z" fill="#522C6C"/>
<path fill-rule="evenodd" clip-rule="evenodd" d="M206.759 224.738V221.23H219.094V224.336C215.1 224.501 210.981 224.636 206.759 224.738ZM206.759 220.736H219.094V206.807H206.759V220.736ZM219.094 206.313H206.759V199.599C210.978 199.723 215.096 199.884 219.094 200.08V206.313Z" fill="#522C6C"/>
<path fill-rule="evenodd" clip-rule="evenodd" d="M206.759 206.807H219.094V206.313H206.759V206.807Z" fill="#522C6C"/>
<path fill-rule="evenodd" clip-rule="evenodd" d="M206.759 221.23H219.094V220.736H206.759V221.23Z" fill="#522C6C"/>
<path fill-rule="evenodd" clip-rule="evenodd" d="M155.665 224.392C151.423 224.227 147.303 224.028 143.33 223.797V221.231H155.665V224.392ZM143.33 220.736H155.665V206.807H143.33V220.736ZM155.665 206.313H143.33V200.609C147.3 200.349 151.419 200.124 155.665 199.938V206.313Z" fill="#522C6C"/>
<path fill-rule="evenodd" clip-rule="evenodd" d="M143.33 206.807H155.665V206.313H143.33V206.807Z" fill="#522C6C"/>
<path fill-rule="evenodd" clip-rule="evenodd" d="M143.33 221.23H155.665V220.736H143.33V221.23Z" fill="#522C6C"/>
<path fill-rule="evenodd" clip-rule="evenodd" d="M219.444 224.321V221.23H231.779V223.681C227.822 223.929 223.707 224.143 219.444 224.321ZM219.444 220.736H231.779V206.807H219.444V220.736ZM231.779 206.313H219.444V200.097C223.702 200.308 227.821 200.557 231.779 200.843V206.313Z" fill="#522C6C"/>
<path fill-rule="evenodd" clip-rule="evenodd" d="M219.444 206.807H231.779V206.313H219.444V206.807Z" fill="#522C6C"/>
<path fill-rule="evenodd" clip-rule="evenodd" d="M219.444 221.23H231.779V220.736H219.444V221.23Z" fill="#522C6C"/>
<path fill-rule="evenodd" clip-rule="evenodd" d="M142.979 223.777C138.685 223.526 134.564 223.236 130.644 222.912V221.231H142.979V223.777ZM130.644 220.736H142.979V206.807H130.644V220.736ZM142.979 206.313H130.644V201.604C134.56 201.241 138.684 200.916 142.979 200.632V206.313Z" fill="#522C6C"/>
<path fill-rule="evenodd" clip-rule="evenodd" d="M130.644 206.807H142.979V206.313H130.644V206.807Z" fill="#522C6C"/>
<path fill-rule="evenodd" clip-rule="evenodd" d="M130.644 221.23H142.979V220.736H130.644V221.23Z" fill="#522C6C"/>
<path fill-rule="evenodd" clip-rule="evenodd" d="M232.131 223.659V221.231H244.465V222.724C240.57 223.074 236.449 223.386 232.131 223.659ZM244.816 222.692V221.231H257.151V221.349C253.361 221.843 249.239 222.292 244.816 222.692ZM257.502 221.303V221.231H258.052C257.871 221.254 257.684 221.279 257.502 221.303ZM261.532 220.736H257.502V206.807H269.836V219.266C267.353 219.787 264.577 220.277 261.532 220.736ZM244.816 220.736H257.151V206.807H244.816V220.736ZM232.131 220.736H244.465V206.807H232.131V220.736ZM270.188 219.193V206.807H274.127C278.099 207.92 280.964 209.12 282.522 210.38V214.813C280.489 216.431 276.238 217.902 270.188 219.193ZM282.873 214.512V210.686C283.536 211.311 283.88 211.949 283.88 212.6C283.88 213.256 283.536 213.894 282.873 214.512ZM272.267 206.313H270.188V205.813C270.907 205.978 271.6 206.144 272.267 206.313ZM269.836 206.313H257.502V203.52C262.156 204.196 266.294 204.937 269.836 205.734V206.313ZM257.151 206.313H244.816V201.97C249.235 202.423 253.358 202.923 257.151 203.469V206.313ZM244.465 206.313H232.131V200.868C236.446 201.183 240.566 201.539 244.465 201.935V206.313Z" fill="#522C6C"/>
<path fill-rule="evenodd" clip-rule="evenodd" d="M244.465 222.724V221.23H244.816V222.692C244.702 222.703 244.58 222.714 244.465 222.724ZM244.465 220.736H244.816V206.807H244.465V220.736ZM244.816 206.313H244.465V201.935C244.581 201.946 244.701 201.959 244.816 201.97V206.313Z" fill="#522C6C"/>
<path fill-rule="evenodd" clip-rule="evenodd" d="M257.151 221.349V221.23H257.502V221.303C257.385 221.318 257.268 221.334 257.151 221.349ZM257.151 220.736H257.502V206.807H257.151V220.736ZM257.502 206.313H257.151V203.469C257.266 203.485 257.387 203.503 257.502 203.52V206.313Z" fill="#522C6C"/>
<path fill-rule="evenodd" clip-rule="evenodd" d="M269.836 219.266V206.807H270.188V219.193C270.072 219.217 269.954 219.242 269.836 219.266ZM270.188 206.313H269.836V205.734C269.954 205.76 270.071 205.787 270.188 205.813V206.313Z" fill="#522C6C"/>
<path fill-rule="evenodd" clip-rule="evenodd" d="M282.522 214.813V210.38C282.648 210.482 282.765 210.583 282.873 210.686V214.512C282.764 214.613 282.648 214.713 282.522 214.813Z" fill="#522C6C"/>
<path fill-rule="evenodd" clip-rule="evenodd" d="M274.127 206.807H232.131V206.313H272.267C272.912 206.475 273.531 206.641 274.127 206.807Z" fill="#522C6C"/>
<path fill-rule="evenodd" clip-rule="evenodd" d="M258.052 221.23H232.131V220.736H261.532C260.408 220.906 259.248 221.07 258.052 221.23Z" fill="#522C6C"/>
<path fill-rule="evenodd" clip-rule="evenodd" d="M130.293 222.883C125.915 222.517 121.786 222.107 117.959 221.657V221.231H130.293V222.883ZM117.959 220.736H130.293V206.807H117.959V220.736ZM130.293 206.313H117.959V203.003C121.784 202.504 125.912 202.047 130.293 201.637V206.313Z" fill="#522C6C"/>
<path fill-rule="evenodd" clip-rule="evenodd" d="M117.959 206.807H130.293V206.313H117.959V206.807Z" fill="#522C6C"/>
<path fill-rule="evenodd" clip-rule="evenodd" d="M117.959 221.23H130.293V220.736H117.959V221.23Z" fill="#522C6C"/>
<path fill-rule="evenodd" clip-rule="evenodd" d="M117.608 221.616C116.555 221.491 115.523 221.362 114.516 221.231H117.608V221.616ZM117.608 220.736H110.937C108.936 220.443 107.047 220.137 105.273 219.818V206.807H117.608V220.736ZM117.608 206.313H105.273V205.021C108.91 204.31 113.044 203.649 117.608 203.049V206.313Z" fill="#522C6C"/>
<path fill-rule="evenodd" clip-rule="evenodd" d="M105.273 206.807H117.608V206.313H105.273V206.807Z" fill="#522C6C"/>
<path fill-rule="evenodd" clip-rule="evenodd" d="M117.608 221.23H114.516C113.288 221.07 112.095 220.905 110.937 220.736H117.608V221.23Z" fill="#522C6C"/>
<path fill-rule="evenodd" clip-rule="evenodd" d="M104.922 219.755C99.6888 218.802 95.5065 217.738 92.5872 216.579V208.492C93.9727 207.912 95.6441 207.349 97.5781 206.807H104.922V219.755ZM104.922 206.313H99.4376C101.106 205.891 102.939 205.483 104.922 205.09V206.313Z" fill="#522C6C"/>
<path fill-rule="evenodd" clip-rule="evenodd" d="M104.922 206.807H97.5781C98.1737 206.641 98.7933 206.475 99.4377 206.313H104.922V206.807Z" fill="#522C6C"/>
<path fill-rule="evenodd" clip-rule="evenodd" d="M92.2357 216.436C89.3715 215.249 87.8253 213.964 87.8253 212.6C87.8253 211.221 89.3697 209.892 92.2357 208.642V216.436Z" fill="#522C6C"/>
<path fill-rule="evenodd" clip-rule="evenodd" d="M92.5872 216.579C92.4683 216.531 92.3511 216.484 92.2357 216.436V208.642C92.3511 208.591 92.4683 208.542 92.5872 208.492V216.579Z" fill="#522C6C"/>
<path fill-rule="evenodd" clip-rule="evenodd" d="M105.273 219.818C105.156 219.798 105.037 219.777 104.922 219.755V205.09C105.04 205.067 105.154 205.045 105.273 205.021V219.818Z" fill="#522C6C"/>
<path fill-rule="evenodd" clip-rule="evenodd" d="M117.959 221.657C117.841 221.643 117.725 221.629 117.607 221.616V203.049C117.724 203.033 117.842 203.018 117.959 203.003V221.657Z" fill="#522C6C"/>
<path fill-rule="evenodd" clip-rule="evenodd" d="M130.644 222.912C130.527 222.903 130.41 222.893 130.293 222.883V201.637C130.412 201.626 130.525 201.615 130.644 201.604V222.912Z" fill="#522C6C"/>
<path fill-rule="evenodd" clip-rule="evenodd" d="M143.33 223.797C143.213 223.791 143.096 223.784 142.979 223.777V200.632C143.096 200.624 143.213 200.617 143.33 200.609V223.797Z" fill="#522C6C"/>
<path fill-rule="evenodd" clip-rule="evenodd" d="M156.015 224.405C155.899 224.401 155.781 224.396 155.665 224.392V199.938C155.785 199.933 155.896 199.928 156.015 199.922V224.405Z" fill="#522C6C"/>
<path fill-rule="evenodd" clip-rule="evenodd" d="M168.702 224.784C168.585 224.781 168.466 224.778 168.35 224.776V199.507C168.466 199.504 168.585 199.501 168.702 199.498V224.784Z" fill="#522C6C"/>
<path fill-rule="evenodd" clip-rule="evenodd" d="M181.387 224.958C181.27 224.957 181.154 224.957 181.036 224.956V199.311C181.154 199.31 181.27 199.309 181.387 199.309V224.958Z" fill="#522C6C"/>
<path fill-rule="evenodd" clip-rule="evenodd" d="M193.722 224.947V199.338C193.838 199.338 193.956 199.34 194.073 199.341V224.944C193.956 224.945 193.839 224.946 193.722 224.947Z" fill="#522C6C"/>
<path fill-rule="evenodd" clip-rule="evenodd" d="M206.407 224.747V199.588C206.523 199.591 206.644 199.595 206.759 199.599V224.738C206.641 224.741 206.525 224.744 206.407 224.747Z" fill="#522C6C"/>
<path fill-rule="evenodd" clip-rule="evenodd" d="M219.094 224.336V200.08C219.211 200.086 219.327 200.091 219.444 200.097V224.321C219.327 224.326 219.211 224.331 219.094 224.336Z" fill="#522C6C"/>
<path fill-rule="evenodd" clip-rule="evenodd" d="M231.779 223.681V200.843C231.896 200.851 232.013 200.86 232.131 200.868V223.659C232.013 223.667 231.896 223.674 231.779 223.681Z" fill="#522C6C"/>
<path fill-rule="evenodd" clip-rule="evenodd" d="M119.72 211.227C111.008 211.227 103.921 204.139 103.921 195.428V44.1223C103.921 35.4109 111.008 28.3235 119.72 28.3235H194.615C203.327 28.3235 210.414 35.4109 210.414 44.1223V195.428C210.414 204.139 203.327 211.227 194.615 211.227H119.72Z" fill="#9668CB"/>
<path fill-rule="evenodd" clip-rule="evenodd" d="M194.615 208.83H119.72C112.349 208.83 106.317 202.799 106.317 195.428V44.1223C106.317 36.7511 112.349 30.72 119.72 30.72H194.615C201.986 30.72 208.017 36.7511 208.017 44.1223V195.428C208.017 202.799 201.986 208.83 194.615 208.83Z" fill="#2B1439"/>
<path fill-rule="evenodd" clip-rule="evenodd" d="M183.279 140.862C179.358 156.144 163.791 165.353 148.509 161.432C133.227 157.512 124.017 141.944 127.938 126.663C131.86 111.382 147.426 102.171 162.708 106.093C177.99 110.013 187.2 125.58 183.279 140.862Z" fill="#D3A730"/>
<path fill-rule="evenodd" clip-rule="evenodd" d="M186.397 141.662C182.476 156.944 166.909 166.153 151.627 162.233C136.345 158.311 127.135 142.745 131.056 127.463C134.977 112.181 150.544 102.972 165.826 106.892C181.108 110.814 190.318 126.38 186.397 141.662Z" fill="#FBED63"/>
<path fill-rule="evenodd" clip-rule="evenodd" d="M185.112 141.332C181.374 155.904 166.529 164.687 151.956 160.948C137.384 157.209 128.601 142.365 132.341 127.793C136.079 113.22 150.924 104.438 165.497 108.177C180.069 111.916 188.852 126.76 185.112 141.332Z" fill="#F9CF38"/>
</g>
<mask id="mask1_201_6671" style="mask-type:alpha" maskUnits="userSpaceOnUse" x="131" y="107" width="55" height="55">
<path d="M185.112 141.332C181.374 155.904 166.529 164.687 151.956 160.948C137.384 157.209 128.602 142.365 132.341 127.793C136.079 113.22 150.924 104.438 165.497 108.177C180.069 111.916 188.852 126.76 185.112 141.332Z" fill="white"/>
</mask>
<g mask="url(#mask1_201_6671)">
<path fill-rule="evenodd" clip-rule="evenodd" d="M172.579 145.106C171.215 146.894 169.536 148.385 167.587 149.538C165.638 150.691 163.523 151.446 161.298 151.78C159.002 152.124 156.682 152.002 154.402 151.417C152.122 150.833 150.03 149.822 148.183 148.414C146.395 147.051 144.903 145.371 143.75 143.423C142.597 141.474 141.843 139.358 141.509 137.135C141.164 134.838 141.287 132.517 141.872 130.238C142.456 127.958 143.467 125.866 144.874 124.019C146.238 122.23 147.917 120.739 149.866 119.586C151.815 118.433 153.93 117.679 156.155 117.345C158.451 117.001 160.772 117.122 163.051 117.707C165.331 118.292 167.424 119.302 169.271 120.71C171.058 122.073 172.55 123.753 173.703 125.702C174.856 127.651 175.61 129.767 175.944 131.99C176.289 134.287 176.167 136.607 175.582 138.887C174.997 141.167 173.986 143.259 172.579 145.106ZM179.769 131.416C179.361 128.697 178.44 126.113 177.033 123.732C175.624 121.353 173.802 119.301 171.616 117.635C169.354 115.911 166.796 114.675 164.013 113.961C161.229 113.246 158.391 113.098 155.58 113.521C152.862 113.928 150.276 114.849 147.897 116.257C145.517 117.665 143.465 119.488 141.798 121.674C140.075 123.935 138.839 126.493 138.124 129.276C137.411 132.06 137.262 134.897 137.684 137.709C138.092 140.427 139.013 143.012 140.421 145.393C141.829 147.772 143.651 149.823 145.838 151.49C148.099 153.214 150.657 154.449 153.44 155.164C156.225 155.878 159.062 156.027 161.873 155.604C164.591 155.197 167.177 154.275 169.556 152.868C171.937 151.46 173.988 149.637 175.655 147.451C177.378 145.19 178.614 142.632 179.329 139.848C180.043 137.064 180.191 134.228 179.769 131.416Z" fill="#D3A730"/>
<path fill-rule="evenodd" clip-rule="evenodd" d="M160.124 139.382C159.709 139.588 159.089 139.585 158.262 139.373L155.812 138.745L156.621 135.596L159.059 136.221C159.9 136.437 160.452 136.727 160.717 137.093C160.981 137.459 161.054 137.87 160.936 138.33C160.809 138.825 160.538 139.176 160.124 139.382ZM158.136 129.69L160.256 130.234C160.984 130.42 161.462 130.678 161.691 131.009C161.919 131.338 161.975 131.729 161.858 132.182C161.733 132.669 161.491 133.005 161.131 133.188C160.772 133.37 160.217 133.365 159.468 133.173L157.38 132.637L158.136 129.69ZM165.454 137.438C165.095 136.649 164.392 135.977 163.344 135.422C164.144 135.356 164.792 135.154 165.286 134.813C166.027 134.302 166.516 133.588 166.752 132.668C167.032 131.573 166.867 130.551 166.255 129.603C165.643 128.655 164.588 127.988 163.089 127.604L162.149 127.362L162.79 124.862L160.341 124.234L159.699 126.734L158.94 126.54L159.581 124.038L157.132 123.41L156.49 125.911L152.877 124.984L152.248 127.433L154.102 127.908L151.371 138.555L149.517 138.079L148.889 140.528L152.502 141.455L151.96 143.569L154.409 144.198L154.951 142.084L155.711 142.278L155.169 144.392L157.617 145.021L158.16 142.906L158.401 142.969C158.754 143.059 159.49 143.173 160.609 143.309C161.448 143.412 162.1 143.398 162.562 143.268C163.309 143.06 163.952 142.683 164.492 142.135C165.031 141.588 165.405 140.912 165.612 140.106C165.866 139.117 165.813 138.227 165.454 137.438Z" fill="#D3A730"/>
</g>
<path fill-rule="evenodd" clip-rule="evenodd" d="M185.482 200.049H128.852C124.479 200.049 120.901 196.471 120.901 192.098V152.343C120.901 147.97 124.479 144.392 128.852 144.392H185.482C189.856 144.392 193.433 147.97 193.433 152.343V192.098C193.433 196.471 189.856 200.049 185.482 200.049Z" fill="#50341F"/>
<path fill-rule="evenodd" clip-rule="evenodd" d="M134.553 147.971H131.372C131.152 147.971 130.975 147.793 130.975 147.573C130.975 147.353 131.152 147.176 131.372 147.176H134.553C134.774 147.176 134.951 147.353 134.951 147.573C134.951 147.793 134.774 147.971 134.553 147.971ZM140.917 147.971H137.735C137.515 147.971 137.337 147.793 137.337 147.573C137.337 147.353 137.515 147.176 137.735 147.176H140.917C141.136 147.176 141.314 147.353 141.314 147.573C141.314 147.793 141.136 147.971 140.917 147.971ZM147.279 147.971H144.098C143.878 147.971 143.7 147.793 143.7 147.573C143.7 147.353 143.878 147.176 144.098 147.176H147.279C147.499 147.176 147.676 147.353 147.676 147.573C147.676 147.793 147.499 147.971 147.279 147.971ZM153.641 147.971H150.46C150.241 147.971 150.063 147.793 150.063 147.573C150.063 147.353 150.241 147.176 150.46 147.176H153.641C153.861 147.176 154.039 147.353 154.039 147.573C154.039 147.793 153.861 147.971 153.641 147.971ZM160.004 147.971H156.823C156.603 147.971 156.425 147.793 156.425 147.573C156.425 147.353 156.603 147.176 156.823 147.176H160.004C160.224 147.176 160.402 147.353 160.402 147.573C160.402 147.793 160.224 147.971 160.004 147.971ZM166.367 147.971H163.185C162.966 147.971 162.789 147.793 162.789 147.573C162.789 147.353 162.966 147.176 163.185 147.176H166.367C166.587 147.176 166.764 147.353 166.764 147.573C166.764 147.793 166.587 147.971 166.367 147.971ZM172.73 147.971H169.548C169.328 147.971 169.151 147.793 169.151 147.573C169.151 147.353 169.328 147.176 169.548 147.176H172.73C172.95 147.176 173.127 147.353 173.127 147.573C173.127 147.793 172.95 147.971 172.73 147.971ZM179.093 147.971H175.911C175.691 147.971 175.513 147.793 175.513 147.573C175.513 147.353 175.691 147.176 175.911 147.176H179.093C179.312 147.176 179.489 147.353 179.489 147.573C179.489 147.793 179.312 147.971 179.093 147.971ZM185.455 147.971H182.274C182.054 147.971 181.876 147.793 181.876 147.573C181.876 147.353 182.054 147.176 182.274 147.176H185.455C185.675 147.176 185.853 147.353 185.853 147.573C185.853 147.793 185.675 147.971 185.455 147.971ZM125.414 149.438C125.314 149.438 125.215 149.402 125.138 149.327C124.98 149.175 124.975 148.923 125.127 148.765C125.93 147.929 126.999 147.383 128.139 147.226C128.354 147.196 128.557 147.348 128.587 147.565C128.617 147.783 128.465 147.984 128.247 148.014C127.284 148.146 126.38 148.609 125.7 149.317C125.622 149.397 125.518 149.438 125.414 149.438ZM190.113 151.593C189.935 151.593 189.772 151.473 189.728 151.291C189.493 150.347 188.939 149.496 188.166 148.893C187.992 148.758 187.961 148.508 188.096 148.335C188.231 148.162 188.48 148.131 188.655 148.266C189.567 148.978 190.223 149.984 190.499 151.101C190.552 151.314 190.422 151.529 190.209 151.582C190.177 151.59 190.145 151.593 190.113 151.593ZM124.082 155.452C123.862 155.452 123.684 155.274 123.684 155.054V152.344C123.684 152.172 123.693 152.002 123.709 151.835C123.731 151.617 123.924 151.465 124.144 151.478C124.362 151.5 124.522 151.694 124.501 151.913C124.486 152.055 124.479 152.199 124.479 152.344V155.054C124.479 155.274 124.302 155.452 124.082 155.452ZM190.253 157.944C190.033 157.944 189.856 157.766 189.856 157.547V154.365C189.856 154.146 190.033 153.968 190.253 153.968C190.473 153.968 190.651 154.146 190.651 154.365V157.547C190.651 157.766 190.473 157.944 190.253 157.944ZM124.082 161.815C123.862 161.815 123.684 161.637 123.684 161.417V158.236C123.684 158.017 123.862 157.838 124.082 157.838C124.302 157.838 124.479 158.017 124.479 158.236V161.417C124.479 161.637 124.302 161.815 124.082 161.815ZM190.253 164.307C190.033 164.307 189.856 164.128 189.856 163.909V160.728C189.856 160.508 190.033 160.331 190.253 160.331C190.473 160.331 190.651 160.508 190.651 160.728V163.909C190.651 164.128 190.473 164.307 190.253 164.307ZM124.082 168.177C123.862 168.177 123.684 167.999 123.684 167.779V164.598C123.684 164.379 123.862 164.201 124.082 164.201C124.302 164.201 124.479 164.379 124.479 164.598V167.779C124.479 167.999 124.302 168.177 124.082 168.177ZM190.253 170.67C190.033 170.67 189.856 170.491 189.856 170.272V167.091C189.856 166.871 190.033 166.694 190.253 166.694C190.473 166.694 190.651 166.871 190.651 167.091V170.272C190.651 170.491 190.473 170.67 190.253 170.67ZM124.082 174.54C123.862 174.54 123.684 174.362 123.684 174.142V170.961C123.684 170.741 123.862 170.563 124.082 170.563C124.302 170.563 124.479 170.741 124.479 170.961V174.142C124.479 174.362 124.302 174.54 124.082 174.54ZM190.253 177.032C190.033 177.032 189.856 176.854 189.856 176.634V173.453C189.856 173.233 190.033 173.056 190.253 173.056C190.473 173.056 190.651 173.233 190.651 173.453V176.634C190.651 176.854 190.473 177.032 190.253 177.032ZM124.082 180.902C123.862 180.902 123.684 180.724 123.684 180.505V177.323C123.684 177.104 123.862 176.926 124.082 176.926C124.302 176.926 124.479 177.104 124.479 177.323V180.505C124.479 180.724 124.302 180.902 124.082 180.902ZM190.253 183.395C190.033 183.395 189.856 183.217 189.856 182.997V179.815C189.856 179.595 190.033 179.418 190.253 179.418C190.473 179.418 190.651 179.595 190.651 179.815V182.997C190.651 183.217 190.473 183.395 190.253 183.395ZM124.082 187.264C123.862 187.264 123.684 187.086 123.684 186.867V183.686C123.684 183.466 123.862 183.289 124.082 183.289C124.302 183.289 124.479 183.466 124.479 183.686V186.867C124.479 187.086 124.302 187.264 124.082 187.264ZM190.253 189.757C190.033 189.757 189.856 189.579 189.856 189.36V186.178C189.856 185.958 190.033 185.781 190.253 185.781C190.473 185.781 190.651 185.958 190.651 186.178V189.36C190.651 189.579 190.473 189.757 190.253 189.757ZM124.215 193.615C124.035 193.615 123.873 193.494 123.829 193.311C123.733 192.916 123.684 192.508 123.684 192.098V190.048C123.684 189.829 123.862 189.652 124.082 189.652C124.302 189.652 124.479 189.829 124.479 190.048V192.098C124.479 192.445 124.521 192.79 124.602 193.125C124.653 193.338 124.522 193.553 124.309 193.605C124.277 193.612 124.246 193.615 124.215 193.615ZM188.94 195.779C188.842 195.779 188.743 195.742 188.666 195.669C188.507 195.518 188.501 195.266 188.653 195.107C189.327 194.398 189.747 193.473 189.837 192.504C189.857 192.286 190.053 192.134 190.269 192.145C190.488 192.164 190.649 192.359 190.629 192.577C190.523 193.724 190.026 194.817 189.229 195.655C189.151 195.738 189.046 195.779 188.94 195.779ZM128.908 197.266H128.852C127.683 197.266 126.577 196.883 125.657 196.157C125.485 196.022 125.456 195.772 125.591 195.599C125.727 195.428 125.977 195.398 126.15 195.533C126.928 196.147 127.863 196.471 128.852 196.471C129.073 196.471 129.278 196.648 129.278 196.868C129.278 197.088 129.128 197.266 128.908 197.266ZM135.271 197.266H132.089C131.869 197.266 131.692 197.088 131.692 196.868C131.692 196.648 131.869 196.471 132.089 196.471H135.271C135.491 196.471 135.668 196.648 135.668 196.868C135.668 197.088 135.491 197.266 135.271 197.266ZM141.633 197.266H138.452C138.232 197.266 138.054 197.088 138.054 196.868C138.054 196.648 138.232 196.471 138.452 196.471H141.633C141.853 196.471 142.03 196.648 142.03 196.868C142.03 197.088 141.853 197.266 141.633 197.266ZM147.996 197.266H144.815C144.595 197.266 144.417 197.088 144.417 196.868C144.417 196.648 144.595 196.471 144.815 196.471H147.996C148.215 196.471 148.394 196.648 148.394 196.868C148.394 197.088 148.215 197.266 147.996 197.266ZM154.358 197.266H151.177C150.958 197.266 150.779 197.088 150.779 196.868C150.779 196.648 150.958 196.471 151.177 196.471H154.358C154.578 196.471 154.756 196.648 154.756 196.868C154.756 197.088 154.578 197.266 154.358 197.266ZM160.721 197.266H157.54C157.32 197.266 157.143 197.088 157.143 196.868C157.143 196.648 157.32 196.471 157.54 196.471H160.721C160.941 196.471 161.119 196.648 161.119 196.868C161.119 197.088 160.941 197.266 160.721 197.266ZM167.084 197.266H163.902C163.682 197.266 163.505 197.088 163.505 196.868C163.505 196.648 163.682 196.471 163.902 196.471H167.084C167.304 196.471 167.481 196.648 167.481 196.868C167.481 197.088 167.304 197.266 167.084 197.266ZM173.447 197.266H170.265C170.045 197.266 169.868 197.088 169.868 196.868C169.868 196.648 170.045 196.471 170.265 196.471H173.447C173.666 196.471 173.844 196.648 173.844 196.868C173.844 197.088 173.666 197.266 173.447 197.266ZM179.809 197.266H176.628C176.408 197.266 176.23 197.088 176.23 196.868C176.23 196.648 176.408 196.471 176.628 196.471H179.809C180.029 196.471 180.207 196.648 180.207 196.868C180.207 197.088 180.029 197.266 179.809 197.266ZM185.482 197.266H182.991C182.771 197.266 182.593 197.088 182.593 196.868C182.593 196.648 182.771 196.471 182.991 196.471H185.482C185.696 196.471 185.907 196.455 186.113 196.425C186.328 196.399 186.531 196.544 186.563 196.761C186.595 196.978 186.444 197.181 186.226 197.212C185.98 197.248 185.73 197.266 185.482 197.266Z" fill="#291E16"/>
<path fill-rule="evenodd" clip-rule="evenodd" d="M177.531 184.147H193.433V160.294H177.531C175.345 160.294 173.556 162.083 173.556 164.27V180.171C173.556 182.357 175.345 184.147 177.531 184.147Z" fill="#5F3B21"/>
<path fill-rule="evenodd" clip-rule="evenodd" d="M184.621 172.22C184.621 174.288 182.945 175.964 180.878 175.964C178.81 175.964 177.134 174.288 177.134 172.22C177.134 170.153 178.81 168.477 180.878 168.477C182.945 168.477 184.621 170.153 184.621 172.22Z" fill="#F9D021"/>
<path fill-rule="evenodd" clip-rule="evenodd" d="M118.113 115.953C118.113 117.43 116.915 118.629 115.437 118.629C113.959 118.629 112.76 117.43 112.76 115.953C112.76 114.475 113.959 113.277 115.437 113.277C116.915 113.277 118.113 114.475 118.113 115.953Z" fill="#F1BC27"/>
<path fill-rule="evenodd" clip-rule="evenodd" d="M138.34 94.7644C138.34 96.2422 137.142 97.4404 135.664 97.4404C134.185 97.4404 132.987 96.2422 132.987 94.7644C132.987 93.2857 134.185 92.0884 135.664 92.0884C137.142 92.0884 138.34 93.2857 138.34 94.7644Z" fill="#F1BC27"/>
<path fill-rule="evenodd" clip-rule="evenodd" d="M158.566 100.116C158.566 101.595 157.368 102.793 155.89 102.793C154.411 102.793 153.213 101.595 153.213 100.116C153.213 98.6387 154.411 97.4404 155.89 97.4404C157.368 97.4404 158.566 98.6387 158.566 100.116Z" fill="#F1BC27"/>
<path fill-rule="evenodd" clip-rule="evenodd" d="M178.793 75.8005C178.793 77.2792 177.594 78.4775 176.117 78.4775C174.638 78.4775 173.44 77.2792 173.44 75.8005C173.44 74.3227 174.638 73.1245 176.117 73.1245C177.594 73.1245 178.793 74.3227 178.793 75.8005Z" fill="#F1BC27"/>
<path fill-rule="evenodd" clip-rule="evenodd" d="M199.019 65.9053C199.019 67.3835 197.821 68.582 196.343 68.582C194.864 68.582 193.666 67.3835 193.666 65.9053C193.666 64.4272 194.864 63.229 196.343 63.229C197.821 63.229 199.019 64.4272 199.019 65.9053Z" fill="#F1BC27"/>
<path fill-rule="evenodd" clip-rule="evenodd" d="M115.701 116.205L115.174 115.701L135.548 94.357L155.758 99.7047L175.886 75.5076L196.182 65.5779L196.503 66.2326L176.346 76.0934L156.022 100.528L135.778 95.1718L115.701 116.205Z" fill="#F1BC27"/>
<path fill-rule="evenodd" clip-rule="evenodd" d="M261.3 209.994C261.3 209.994 259.154 207.841 257.726 206.863L256.462 201.766H249.725L249.324 209.107C249.042 211.212 250.711 213.248 254.02 213.003C257.33 212.759 261.3 209.994 261.3 209.994Z" fill="#91928E"/>
<path fill-rule="evenodd" clip-rule="evenodd" d="M268.296 213.765C267.645 212.951 265.415 212.385 265.016 212.207C263.807 211.67 260.081 207.7 260.081 207.7C257.714 206.492 256.333 206.854 254.95 208.113C254.04 208.941 254.283 209.757 253.893 210.566C253.893 210.566 250.548 209.794 250.11 209.033C249.468 207.923 249.247 207.597 248.553 208.434C248.39 208.632 248.287 217.057 248.287 217.057L267.654 217.311C267.654 217.311 269.351 215.083 268.296 213.765Z" fill="#0A0B09"/>
<path fill-rule="evenodd" clip-rule="evenodd" d="M223.791 211.707L223.272 202.583H216.686C216.686 202.583 216.168 206.21 215.65 207.838C215.132 209.467 212.615 211.464 212.615 212.427C212.615 213.389 223.791 214.909 223.791 211.707Z" fill="#91928E"/>
<path fill-rule="evenodd" clip-rule="evenodd" d="M213.265 210.172C213.264 210.182 213.274 210.189 213.278 210.198C212.165 211.31 210.919 212.582 210.644 213.219C210.211 214.222 209.975 215.43 210.528 216.374C210.772 216.79 211.125 217.091 211.539 217.311C215.923 217.311 219.852 217.311 224.235 217.311C224.63 215.633 224.051 211.234 224.051 210.81C224.051 210.386 223.343 210.105 222.988 209.751C223.002 208.794 222.791 207.875 221.653 207.267C220.976 206.906 218.104 206.855 216.803 206.864C214.48 206.881 213.478 208.718 213.265 210.172Z" fill="#0A0B09"/>
<path fill-rule="evenodd" clip-rule="evenodd" d="M216.05 153.785C216.268 147.362 226.189 147.787 227.828 152.574C228.655 154.986 226.585 167.149 226.54 169.334C226.494 171.518 224.372 205.252 224.372 205.252C224.372 205.252 218.861 205.815 215.082 205.061C215.082 205.061 213.947 171.618 214.139 165.94C214.331 160.261 216.05 153.785 216.05 153.785Z" fill="#1B1B1B"/>
<path fill-rule="evenodd" clip-rule="evenodd" d="M243.099 152.313C242.544 145.91 252.445 146.672 254.647 151.228C255.757 153.524 256.325 165.375 256.542 167.55C256.76 169.725 257.886 204.231 257.886 204.231C257.886 204.231 252.468 204.492 248.626 204.195C248.626 204.195 242.014 169.014 241.524 163.354C241.033 157.694 243.099 152.313 243.099 152.313Z" fill="#1B1B1B"/>
<path fill-rule="evenodd" clip-rule="evenodd" d="M228.989 49.473H240.952V31.6016H228.989V49.473Z" fill="#E9B297"/>
<path fill-rule="evenodd" clip-rule="evenodd" d="M225.957 32.7972C224.709 32.7265 223.447 32.6532 222.256 32.2757C221.065 31.8983 219.935 31.1913 219.285 30.1237C218.637 29.0561 218.559 27.5972 219.298 26.5887C220.035 25.5803 221.516 25.4307 222.597 26.0558C223.118 26.3564 226.727 32.8409 225.957 32.7972Z" fill="#ECC4A7"/>
<path fill-rule="evenodd" clip-rule="evenodd" d="M228.028 7.69813C228.221 7.63662 230.071 7.14136 230.269 7.09875C236.316 5.79011 242.217 5.2889 243.847 14.8755C243.847 14.8755 245.785 25.8636 245.82 28.0812C245.838 29.2064 245.408 30.3904 245.031 31.4315C244.456 33.0171 243.711 34.5558 242.777 35.9616C241.632 37.6851 240.148 39.3055 238.113 39.8501C236.225 40.3553 234.658 40.1908 232.975 39.5537C231.299 38.9195 229.742 37.9699 228.317 36.8917C227.231 36.07 226.12 35.151 225.302 34.05C225.205 33.9191 225.112 33.7852 225.033 33.6425C223.955 31.7035 220.148 21.2156 220.148 21.2156C216.773 12.0958 222.136 9.58343 228.028 7.69813Z" fill="#ECC4A7"/>
<path fill-rule="evenodd" clip-rule="evenodd" d="M228.028 7.69813C228.221 7.63662 230.071 7.14136 230.269 7.09875C236.316 5.79011 242.217 5.2889 243.847 14.8755C243.847 14.8755 245.785 25.8636 245.82 28.0812C245.838 29.2064 245.408 30.3904 245.031 31.4315C244.456 33.0171 243.711 34.5558 242.777 35.9616C241.632 37.6851 240.148 39.3055 238.113 39.8501C236.225 40.3553 234.658 40.1908 232.975 39.5537C231.299 38.9195 229.742 37.9699 228.317 36.8917C227.231 36.07 226.12 35.151 225.302 34.05C225.205 33.9191 225.112 33.7852 225.033 33.6425C223.955 31.7035 220.148 21.2156 220.148 21.2156C216.773 12.0958 222.136 9.58343 228.028 7.69813Z" fill="#ECC4A7"/>
<path fill-rule="evenodd" clip-rule="evenodd" d="M234.195 39.698C231.203 39.1162 226.564 34.6376 226.065 33.7233C225.067 31.7286 224.138 28.4138 224.138 25.5686C224.138 23.4319 223.764 21.2074 223.764 19.1295C226.589 19.1295 231.576 18.7842 233.959 18.7667C239.358 18.7273 243.847 14.8755 243.847 14.8755C242.217 5.2889 236.316 5.79011 230.269 7.09875C230.071 7.14136 228.221 7.63662 228.028 7.69813C222.136 9.58343 216.773 12.0958 220.148 21.2156C220.148 21.2156 223.955 31.7035 225.033 33.6424C225.112 33.7852 225.205 33.9191 225.302 34.05C226.12 35.151 227.231 36.07 228.317 36.8917C229.742 37.9699 231.299 38.9195 232.975 39.5537C234.447 40.1112 235.832 40.3068 237.42 40.0085C236.357 40.0225 235.28 39.9255 234.195 39.698Z" fill="#E39774"/>
<path fill-rule="evenodd" clip-rule="evenodd" d="M235.188 22.5854C235.188 22.5854 237.758 25.7729 237.717 26.4926C237.646 27.7287 235.696 27.855 235.696 27.855C235.696 27.855 237.151 26.9895 236.933 26.1729C236.713 25.3565 235.188 22.5854 235.188 22.5854Z" fill="#D16048"/>
<path fill-rule="evenodd" clip-rule="evenodd" d="M240.893 27.4422C240.893 27.4422 238.298 29.0308 236.639 29.3679C234.979 29.7049 232 29.6799 232 29.6799C231.71 29.7529 234.364 33.9861 237.462 33.2424C240.546 32.5027 241.086 27.3937 240.893 27.4422Z" fill="#FFFFFE"/>
<path fill-rule="evenodd" clip-rule="evenodd" d="M241.602 18.5971C241.578 18.5823 241.553 18.5696 241.529 18.5573C240.176 17.8656 238.839 17.8581 237.673 18.5578C237.572 18.618 237.468 18.6906 237.413 18.8694C237.31 19.21 237.424 19.7465 237.561 20.2231C238.842 19.1243 240.345 18.7936 241.937 19.2668C241.94 19.0946 241.869 18.8886 241.788 18.7701C241.729 18.6847 241.665 18.6348 241.602 18.5971Z" fill="#21202A"/>
<path fill-rule="evenodd" clip-rule="evenodd" d="M227.139 22.4664C227.153 22.4414 227.167 22.4181 227.182 22.3952C228.01 21.1205 229.164 20.4463 230.523 20.4703C230.641 20.4719 230.768 20.4828 230.904 20.6105C231.164 20.8543 231.333 21.376 231.453 21.8571C229.794 21.5448 228.326 22.0089 227.184 23.2136C227.094 23.0663 227.053 22.8525 227.064 22.7089C227.073 22.6055 227.103 22.5306 227.139 22.4664Z" fill="#21202A"/>
<path fill-rule="evenodd" clip-rule="evenodd" d="M238.851 22.1672C238.673 21.4985 239.01 20.8275 239.605 20.6683C240.2 20.5091 240.827 20.9222 241.007 21.5908C241.021 21.6442 241.076 21.8513 241.09 21.9044L241.347 22.8661C241.526 23.5319 241.057 23.9039 240.509 24.0504C239.962 24.197 239.371 24.1083 239.193 23.4425L238.936 22.4808C238.922 22.4277 238.866 22.2206 238.851 22.1672Z" fill="#21202A"/>
<path fill-rule="evenodd" clip-rule="evenodd" d="M239.227 22.0111C239.241 22.0648 239.296 22.0967 239.35 22.0823C239.404 22.0679 239.436 22.0127 239.421 21.9591C239.407 21.9054 239.352 21.8735 239.298 21.8878C239.245 21.9022 239.213 21.9574 239.227 22.0111Z" fill="#FFFFFE"/>
<path fill-rule="evenodd" clip-rule="evenodd" d="M228.993 24.8046C228.815 24.1359 229.152 23.4649 229.747 23.3057C230.341 23.1466 230.969 23.5596 231.147 24.2283C231.162 24.2817 231.217 24.4888 231.232 24.5417L231.489 25.5035C231.667 26.1694 231.199 26.5414 230.651 26.6879C230.103 26.8343 229.512 26.7458 229.335 26.0798L229.077 25.1182C229.063 25.0651 229.007 24.858 228.993 24.8046Z" fill="#21202A"/>
<path fill-rule="evenodd" clip-rule="evenodd" d="M229.368 24.6485C229.383 24.7021 229.438 24.7339 229.492 24.7196C229.545 24.7053 229.577 24.6501 229.563 24.5964C229.549 24.5427 229.494 24.5108 229.439 24.5252C229.386 24.5396 229.354 24.5948 229.368 24.6485Z" fill="#FFFFFE"/>
<path fill-rule="evenodd" clip-rule="evenodd" d="M221.963 28.1291C222.178 28.708 222.393 29.287 222.609 29.8659C223.634 28.466 223.849 26.5822 223.636 24.8457C223.411 22.9999 222.764 21.2347 222.352 19.4212C222.209 18.7928 222.114 18.0944 222.214 17.4673C223.653 18.2793 225.344 18.6487 226.99 18.4817C225.507 17.5928 224.23 16.3606 223.289 14.9094C228.574 18.4735 235.81 18.9123 241.487 16.0131C239.738 15.2321 238.343 13.7189 237.653 11.9363C239.522 12.5426 240.864 14.2123 241.697 15.9908C242.531 17.7671 242.961 19.7033 243.676 21.5303C243.928 22.1752 244.234 22.8309 244.773 23.2653C244.968 23.4216 245.2 23.5401 245.444 23.6078C245.668 19.9346 245.902 16.1921 245.036 12.6136C244.181 9.08394 242.078 5.67334 238.788 4.13553C236.163 2.90864 233.083 3.00192 230.28 3.7355C227.477 4.46908 224.874 5.79734 222.239 7.00417C220.943 7.59832 219.186 8.07432 218.275 6.97675C218.116 8.8482 218.424 10.7569 219.156 12.4857C218.613 13.2678 218.265 14.2154 218.169 15.1567C217.953 17.2807 218.709 19.3697 219.452 21.3709C220.289 23.6237 221.126 25.8765 221.963 28.1291Z" fill="#21202A"/>
<path fill-rule="evenodd" clip-rule="evenodd" d="M255.818 113.119C255.331 125.383 256.129 129.558 255.644 141.822C255.307 146.388 256.183 154.892 255.629 157.265C254.854 160.581 243.202 162.466 242.247 154.834C240.829 140.339 240.292 131.435 237.264 117.378L233.003 117.049V99.4819C233.003 99.4819 253.254 96.8316 253.958 98.6556C254.662 100.48 255.818 113.119 255.818 113.119Z" fill="black"/>
<path fill-rule="evenodd" clip-rule="evenodd" d="M217.485 113.843C216.54 126.071 214.326 153.974 215.138 157.883C215.829 161.218 227.955 167.652 228.39 154.751C229.044 140.201 232.345 130.124 235.24 117.122L238.727 114.56L240.186 98.9884C240.186 98.9884 219.824 97.4094 219.217 99.268C218.61 101.127 217.485 113.843 217.485 113.843Z" fill="black"/>
<path fill-rule="evenodd" clip-rule="evenodd" d="M237.282 111.098C244.41 110.815 251.565 108.825 255.218 107.171C254.831 103.622 254.331 99.6222 253.958 98.6556C253.49 97.4432 244.381 98.2083 238.328 98.8571C233.29 98.5198 219.711 97.7547 219.217 99.2681C218.806 100.526 218.158 106.755 217.782 110.651C223.02 111.202 226.021 111.543 237.282 111.098Z" fill="#2B1439"/>
<path fill-rule="evenodd" clip-rule="evenodd" d="M241.326 42.5436C241.326 42.5436 252.312 46.1447 254.817 48.4749C257.323 50.8051 254.817 68.3874 254.817 71.1417C254.817 73.8949 255.93 98.6795 255.93 101.857C255.93 105.035 249.35 107.726 235.227 107.726C221.104 107.726 216.776 102.493 216.776 100.798C216.776 99.1038 218.827 81.3097 218.827 78.9789C218.827 76.6491 213.245 53.4796 213.245 50.9375C213.245 48.3954 228.616 42.5436 228.616 42.5436L238.68 47.9933L241.326 42.5436Z" fill="#522C6C"/>
<path fill-rule="evenodd" clip-rule="evenodd" d="M221.132 99.3098C221.132 94.1068 221.769 81.1509 221.344 79.8772C219.852 75.4784 218.127 71.3121 216.471 67.0349C217.707 72.7127 218.827 77.9361 218.827 78.979C218.827 81.3098 216.776 99.1038 216.776 100.798C216.776 102.183 219.667 105.93 228.43 107.254C225.762 104.682 223.296 102.196 221.132 99.3098Z" fill="#371D49"/>
<path fill-rule="evenodd" clip-rule="evenodd" d="M255.804 58.8555C254.738 60.2457 254.054 63.2045 254.054 63.2045C254.054 63.2045 253.839 80.5136 253.839 81.576C253.885 84.8219 220.374 87.4109 220.386 90.6346C220.387 90.9612 253.945 91.9243 253.946 92.25C253.951 96.1873 253.901 100.124 253.734 104.088C253.72 104.323 253.709 104.557 253.698 104.792C255.197 103.922 255.931 102.917 255.931 101.857C255.931 98.6796 254.817 73.895 254.817 71.1417C254.817 69.6914 255.512 64.1347 255.804 58.8555Z" fill="#371D49"/>
<path fill-rule="evenodd" clip-rule="evenodd" d="M238.68 47.9933L243.448 52.4876L241.538 56.7627L247.271 93.2112L242.293 100.962L236.612 93.5804L238.68 57.2012L235.668 52.8114L238.68 47.9933Z" fill="#9668CB"/>
<path fill-rule="evenodd" clip-rule="evenodd" d="M241.146 42.1971C241.146 42.1971 243.284 42.761 243.986 43.4626C244.687 44.1643 244.279 54.2707 244.279 54.2707L238.68 47.9933L241.146 42.1971Z" fill="#B49BD1"/>
<path fill-rule="evenodd" clip-rule="evenodd" d="M228.858 42.0533C228.858 42.0533 226.944 43.0605 226.167 44.0594C225.558 44.8429 235.604 55.2486 235.604 55.2486L238.68 47.9933L228.858 42.0533Z" fill="#B49BD1"/>
<path fill-rule="evenodd" clip-rule="evenodd" d="M212.051 88.8133C212.626 87.331 215.797 71.7799 216.881 68.1347C218.151 63.8614 217.654 49.1253 215.249 48.7833C212.843 48.4412 208.916 55.415 207.961 58.0518C206.79 61.285 204.225 74.6547 201.952 83.1515C200.053 90.2485 210.252 93.4455 212.051 88.8133Z" fill="#522C6C"/>
<path fill-rule="evenodd" clip-rule="evenodd" d="M260.18 90.1456C259.605 88.6633 255.014 72.2805 254.187 68.5686C253.337 64.7469 251.853 48.5341 254.258 48.1921C256.664 47.85 260.591 54.8238 261.545 57.4606C262.716 60.6938 269.148 76.8417 270.525 84.0728C271.907 91.326 261.979 94.7778 260.18 90.1456Z" fill="#522C6C"/>
<path fill-rule="evenodd" clip-rule="evenodd" d="M251.122 73.6074C251.122 73.6074 252.504 71.8074 254.004 71.3822C255.504 70.9562 261.357 71.9787 262.046 72.0648C262.819 72.1615 261.957 73.6606 261.311 73.8444C260.013 74.2136 254.86 73.176 254.108 73.516C253.356 73.855 251.388 76.2373 251.388 76.2373L251.122 73.6074Z" fill="#ECC4A7"/>
<path fill-rule="evenodd" clip-rule="evenodd" d="M250.877 75.9737C250.877 75.9737 252.259 74.1737 253.759 73.7485C255.259 73.3225 260.375 74.3157 261.354 74.4284C262.334 74.542 261.196 76.09 260.456 76.2515C259.144 76.5382 254.638 75.9728 253.885 76.3127C253.134 76.6518 251.142 78.6036 251.142 78.6036L250.877 75.9737Z" fill="#ECC4A7"/>
<path fill-rule="evenodd" clip-rule="evenodd" d="M250.656 79.286C250.656 79.286 251.73 77.3085 252.979 76.6721C254.228 76.0357 258.623 76.2807 259.46 76.2514C260.296 76.2221 259.415 77.9156 258.797 78.1819C257.699 78.6541 253.846 78.7437 253.227 79.1875C252.607 79.6313 251.025 81.8458 251.025 81.8458L250.656 79.286Z" fill="#ECC4A7"/>
<path fill-rule="evenodd" clip-rule="evenodd" d="M249.913 81.6097C249.913 81.6097 250.785 79.5949 251.966 79.2976C252.842 79.0774 256.507 78.6887 257.247 78.6629C257.987 78.6372 258.11 79.6721 257.564 79.9073C256.593 80.3254 253.257 80.873 252.709 81.2653C252.162 81.6576 250.238 83.8739 250.238 83.8739L249.913 81.6097Z" fill="#ECC4A7"/>
<path fill-rule="evenodd" clip-rule="evenodd" d="M248.596 75.8698C248.596 75.8698 249.174 73.895 249.877 73.216C250.367 72.742 252.075 72.7465 252.075 72.7465L251.494 73.7894L248.596 75.8698Z" fill="#ECC4A7"/>
<path fill-rule="evenodd" clip-rule="evenodd" d="M251.463 73.4263L252.606 81.2964C252.606 81.2964 251.071 84.4668 249.375 84.505C247.679 84.5431 246.623 85.1458 246.337 84.2662C246.052 83.3866 247.237 77.8206 248.269 75.994C249.302 74.1683 251.463 73.4263 251.463 73.4263Z" fill="#ECC4A7"/>
<path fill-rule="evenodd" clip-rule="evenodd" d="M247.171 74.3538C247.171 74.3538 247.829 85.6419 247.966 88.2487C247.966 88.2487 210.769 92.2091 206.707 90.5955C203.091 89.1585 202.66 84.3141 204.542 81.5511C206.424 78.7872 210.192 76.941 216.251 76.4715C222.309 76.002 247.171 74.3538 247.171 74.3538Z" fill="#4B2963"/>
<path fill-rule="evenodd" clip-rule="evenodd" d="M221.218 82.8088C225.398 83.7337 234.548 85.4174 238.78 85.9925C243.971 86.6991 249.161 87.4047 254.351 88.1112C255.869 88.3171 257.49 88.4973 258.911 87.481C259.512 87.0514 259.865 84.2627 258.769 82.4112C257.848 80.857 256.969 79.5923 254.491 78.173C252.633 77.1106 250.527 77.0192 248.468 76.9411C240.152 76.6278 219.12 75.9381 219.12 75.9381C219.12 75.9381 214.797 81.3887 221.218 82.8088Z" fill="#ECC4A7"/>
<path fill-rule="evenodd" clip-rule="evenodd" d="M226.329 73.9828C226.329 73.9828 225.024 82.2505 226.213 86.0334C226.213 86.0334 260.494 92.6991 264.072 92.3032C268.989 91.7591 270.933 83.005 264.152 79.16L226.329 73.9828Z" fill="#4B2963"/>
<path fill-rule="evenodd" clip-rule="evenodd" d="M217.166 72.0364C217.166 72.0364 216.148 79.5479 217.232 81.1775C218.318 82.8071 219.602 84.4535 221.714 83.9947C223.826 83.5358 224.333 82.1352 224.482 81.0151C224.631 79.8949 222.807 75.4935 221.1 73.6509C219.393 71.8091 217.166 72.0364 217.166 72.0364Z" fill="#ECC4A7"/>
<path fill-rule="evenodd" clip-rule="evenodd" d="M220.088 78.7136C220.088 78.7136 217.95 77.4541 216.561 77.3627C215.533 77.2943 212.952 77.8988 212.116 78.0124C211.281 78.1251 211.836 78.9878 212.499 79.1352C213.677 79.3961 217.062 79.0073 217.714 79.4298C218.686 80.06 220.088 78.7136 220.088 78.7136Z" fill="#ECC4A7"/>
<path fill-rule="evenodd" clip-rule="evenodd" d="M220.657 73.4361C220.657 73.4361 218.701 70.6642 217.019 69.9701C215.338 69.2752 209.829 68.4287 209.035 68.5882C207.688 68.8589 207.967 69.9666 209.079 70.287C210.733 70.7645 215.813 71.6787 216.641 72.158C217.469 72.6364 219.455 75.4323 219.455 75.4323L220.657 73.4361Z" fill="#ECC4A7"/>
<path fill-rule="evenodd" clip-rule="evenodd" d="M220.076 75.2467C220.076 75.2467 218.698 73.152 217.017 72.457C215.335 71.762 210.081 74.178 208.998 74.5455C207.899 74.9174 208.912 76.1476 210.063 75.8973C210.861 75.7242 215.724 74.2197 216.553 74.6981C217.381 75.1765 219.452 77.92 219.452 77.92L220.076 75.2467Z" fill="#ECC4A7"/>
<path fill-rule="evenodd" clip-rule="evenodd" d="M219.919 77.9848C219.919 77.9848 218.75 75.9328 217.351 75.2289C215.952 74.5251 211.795 75.4348 210.705 75.6274C209.768 75.7934 210.007 77.1887 211.501 77.139C212.832 77.0955 216.184 76.7653 216.876 77.2437C217.567 77.723 219.098 79.3171 219.098 79.3171L219.919 77.9848Z" fill="#ECC4A7"/>
</svg>
