<svg width="211" height="287" viewBox="0 0 211 287" fill="none" xmlns="http://www.w3.org/2000/svg">
<circle opacity="0.2" cx="109.492" cy="181.346" r="96.3757" fill="#9279CE"/>
<path d="M160.246 204.442C154.543 200.735 132.873 198.169 132.873 198.169L83.2595 200.165C83.2595 200.165 68.6935 200.636 61.0189 204.727C53.7687 208.592 49.6135 216.703 49.6135 216.703L25.6622 269.738L54.7459 265.461L70.1432 242.935L77.2716 286.846H136.295L147.985 239.228L165.664 265.461L193.607 269.738L174.503 224.972C174.503 224.972 166.731 208.657 160.246 204.442Z" fill="#522C6C"/>
<g filter="url(#filter0_d_3288_82560)">
<rect x="97.5162" y="228.678" width="23.9514" height="39.9189" rx="6" fill="#150620"/>
</g>
<path d="M83.5445 261.184L26.2324 270.023C21.7118 281.264 22.7115 285.298 33.3607 286.846L90.6729 268.597C98.9792 267.212 102.892 265.481 108.922 261.184C115.965 266.812 120.883 268.631 131.732 268.597L188.474 286.846C198.763 282.043 200.298 278.264 191.611 268.597L136.295 261.184C135.245 252.553 124.321 244.43 120.897 243.791C117.474 243.151 120.897 250.349 120.897 250.349L110.917 248.353C110.917 248.353 111.203 244.076 108.922 243.791C106.64 243.505 97.8012 248.353 97.8012 248.353C97.8012 248.353 101.131 240.069 97.8012 240.654C95.1037 241.128 93.6985 243.103 91.5284 245.216C86.5337 250.08 83.5445 261.184 83.5445 261.184Z" fill="#E6B19E"/>
<path d="M147.7 184.767H117.476H68.4324C62.4139 150.646 85.0674 91.8312 121.468 110.347C146.285 122.971 148.46 166.614 147.7 184.767Z" fill="#261A2F"/>
<path d="M97.5162 193.037V174.503L117.476 173.933L117.191 191.611L133.158 198.169C133.158 198.169 131.732 207.579 108.351 207.579C84.9703 207.579 83.2595 200.165 83.2595 200.165L97.5162 193.037Z" fill="#E6B19E"/>
<path opacity="0.5" d="M117.191 187.619L97.5162 174.788L117.476 173.933L117.191 187.619Z" fill="url(#paint0_linear_3288_82560)"/>
<path d="M131.447 137.435C132.683 139.431 133.158 144.849 130.307 151.977C130.307 151.977 133.077 145.998 136.295 146.275C140.19 146.609 141.886 151.535 139.716 155.684C138.192 158.598 137.465 160.586 134.014 161.102C131.716 161.445 129.963 158.081 128.596 160.246C125.174 165.664 123.428 170.946 117.191 174.218C110.67 177.638 106.641 179.065 98.3717 175.358C90.1027 171.652 86.396 160.246 86.396 160.246C86.1313 163.139 75.7058 161.009 76.1311 152.547C76.2893 149.4 77.2578 145.62 80.4081 145.704C81.8642 145.743 82.9218 147.258 83.6211 148.789C83.2181 147.428 82.8238 145.859 82.6892 144.564C82.3549 141.344 83.2595 136.295 83.2595 136.295L122.323 121.183L131.447 137.435Z" fill="#E6B19E"/>
<path fill-rule="evenodd" clip-rule="evenodd" d="M103.267 34.7869C104.154 50.6833 117.325 63.3002 133.443 63.3002C150.136 63.3002 163.668 49.7683 163.668 33.0759C163.668 16.3835 150.136 2.85156 133.443 2.85156C133.061 2.85156 132.681 2.85864 132.303 2.87268V34.7869H103.267Z" fill="#522C6C"/>
<path fill-rule="evenodd" clip-rule="evenodd" d="M129.451 0V31.9335H102.407C102.191 30.5396 102.078 29.1112 102.078 27.6567C102.078 12.4767 114.308 0.152954 129.451 0Z" fill="#8B0D6E"/>
<path d="M105.5 155.969V159.105H108.636" stroke="black" stroke-linecap="round"/>
<path d="M110.632 165.378C110.632 165.378 108.078 167.659 105.785 167.659C102.934 167.659 100.938 165.378 100.938 165.378" stroke="black" stroke-linecap="round"/>
<path d="M123.464 143.423C121.943 141.522 117.704 138.405 112.914 141.142" stroke="black" stroke-width="2" stroke-linecap="round"/>
<path d="M100.368 142.282C98.0693 141.48 96.3757 140.857 92.0986 143.138" stroke="black" stroke-width="2" stroke-linecap="round"/>
<rect x="2.85135" y="82.1191" width="42.2" height="33.0757" fill="#9668CB"/>
<path d="M39.3486 89.5322L29.7739 99.1779H17.0937L8.55405 107.781" stroke="white" stroke-width="3" stroke-linecap="round"/>
<circle cx="189.615" cy="124.034" r="21.3851" fill="#F7931A"/>
<path d="M199.066 121.122C196.706 117.413 193.252 115.277 189.615 115.277C187.796 115.277 186.029 115.809 184.414 116.8C182.8 117.801 181.349 119.262 180.164 121.122C179.142 122.726 179.142 125.331 180.164 126.935C182.524 130.654 185.977 132.78 189.615 132.78C191.434 132.78 193.201 132.248 194.815 131.257C196.43 130.256 197.881 128.795 199.066 126.935C200.088 125.341 200.088 122.726 199.066 121.122ZM189.615 128.161C187.326 128.161 185.487 126.312 185.487 124.034C185.487 121.755 187.326 119.906 189.615 119.906C191.904 119.906 193.743 121.755 193.743 124.034C193.743 126.312 191.904 128.161 189.615 128.161Z" fill="white"/>
<path d="M189.615 121.111C188.011 121.111 186.703 122.419 186.703 124.033C186.703 125.638 188.011 126.945 189.615 126.945C191.219 126.945 192.537 125.638 192.537 124.033C192.537 122.429 191.219 121.111 189.615 121.111Z" fill="white"/>
<rect y="200.735" width="26.8027" height="6.27297" rx="3.13649" fill="#522C6C"/>
<rect x="193.892" y="168.229" width="17.1081" height="3.99189" rx="1.99595" fill="#E98786"/>
<g filter="url(#filter1_f_3288_82560)">
<rect x="180.776" y="72.4243" width="8.55405" height="8.55405" rx="4.27703" fill="#9668CB"/>
</g>
<g filter="url(#filter2_f_3288_82560)">
<rect x="39.3486" y="49.6133" width="8.55405" height="8.55405" rx="4.27703" fill="black"/>
</g>
<circle cx="97.8014" cy="151.407" r="2.56622" fill="black"/>
<circle cx="117.761" cy="151.407" r="2.56622" fill="black"/>
<rect x="106.641" y="234.951" width="4.56216" height="4.56216" rx="2" fill="white"/>
<defs>
<filter id="filter0_d_3288_82560" x="93.5162" y="228.678" width="31.9514" height="47.9189" filterUnits="userSpaceOnUse" color-interpolation-filters="sRGB">
<feFlood flood-opacity="0" result="BackgroundImageFix"/>
<feColorMatrix in="SourceAlpha" type="matrix" values="0 0 0 0 0 0 0 0 0 0 0 0 0 0 0 0 0 0 127 0" result="hardAlpha"/>
<feOffset dy="4"/>
<feGaussianBlur stdDeviation="2"/>
<feComposite in2="hardAlpha" operator="out"/>
<feColorMatrix type="matrix" values="0 0 0 0 0.180597 0 0 0 0 0.0730729 0 0 0 0 0.254167 0 0 0 1 0"/>
<feBlend mode="normal" in2="BackgroundImageFix" result="effect1_dropShadow_3288_82560"/>
<feBlend mode="normal" in="SourceGraphic" in2="effect1_dropShadow_3288_82560" result="shape"/>
</filter>
<filter id="filter1_f_3288_82560" x="178.776" y="70.4243" width="12.5541" height="12.5542" filterUnits="userSpaceOnUse" color-interpolation-filters="sRGB">
<feFlood flood-opacity="0" result="BackgroundImageFix"/>
<feBlend mode="normal" in="SourceGraphic" in2="BackgroundImageFix" result="shape"/>
<feGaussianBlur stdDeviation="1" result="effect1_foregroundBlur_3288_82560"/>
</filter>
<filter id="filter2_f_3288_82560" x="35.3486" y="45.6133" width="16.5541" height="16.5542" filterUnits="userSpaceOnUse" color-interpolation-filters="sRGB">
<feFlood flood-opacity="0" result="BackgroundImageFix"/>
<feBlend mode="normal" in="SourceGraphic" in2="BackgroundImageFix" result="shape"/>
<feGaussianBlur stdDeviation="2" result="effect1_foregroundBlur_3288_82560"/>
</filter>
<linearGradient id="paint0_linear_3288_82560" x1="109.207" y1="175.358" x2="116.905" y2="187.619" gradientUnits="userSpaceOnUse">
<stop stop-color="#C68C79"/>
<stop offset="1" stop-color="#C68C79" stop-opacity="0"/>
</linearGradient>
</defs>
</svg>
