<svg width="103" height="77" viewBox="0 0 103 77" fill="none" xmlns="http://www.w3.org/2000/svg">
<path d="M92.6794 70.7588H85.8567V70.8103H92.6794V70.7588Z" fill="#EBEBEB"/>
<path d="M68.2314 71.3193H66.4412V71.3708H68.2314V71.3193Z" fill="#EBEBEB"/>
<path d="M85.6507 68.8472H81.6975V68.8987H85.6507V68.8472Z" fill="#EBEBEB"/>
<path d="M19.7039 69.1934H10.8068V69.2449H19.7039V69.1934Z" fill="#EBEBEB"/>
<path d="M22.8433 69.1934H21.5394V69.2449H22.8433V69.1934Z" fill="#EBEBEB"/>
<path d="M46.3809 70.0625H27.0828V70.114H46.3809V70.0625Z" fill="#EBEBEB"/>
<path d="M48.822 58.2568H9.04542C8.73381 58.2563 8.43515 58.1321 8.21501 57.9116C7.99486 57.691 7.87122 57.3921 7.87122 57.0805V1.16596C7.87393 0.856141 7.99877 0.559904 8.21862 0.341593C8.43848 0.123282 8.73559 0.000530736 9.04542 0H48.822C49.1339 0 49.4331 0.123927 49.6537 0.344519C49.8743 0.56511 49.9982 0.864296 49.9982 1.17626V57.0805C49.9982 57.3925 49.8743 57.6917 49.6537 57.9123C49.4331 58.1329 49.1339 58.2568 48.822 58.2568ZM9.04542 0.0412002C8.74747 0.0417458 8.46191 0.160487 8.25142 0.371362C8.04093 0.582236 7.92272 0.868012 7.92272 1.16596V57.0805C7.92272 57.3785 8.04093 57.6643 8.25142 57.8751C8.46191 58.086 8.74747 58.2048 9.04542 58.2053H48.822C49.1201 58.2048 49.4059 58.0861 49.6167 57.8753C49.8275 57.6644 49.9462 57.3787 49.9467 57.0805V1.16596C49.9462 0.867822 49.8275 0.582051 49.6167 0.371236C49.4059 0.16042 49.1201 0.0417447 48.822 0.0412002H9.04542Z" fill="#EBEBEB"/>
<path d="M93.3819 58.2568H53.6033C53.2915 58.2563 52.9926 58.1322 52.7721 57.9117C52.5517 57.6912 52.4275 57.3923 52.427 57.0805V1.16596C52.4303 0.855953 52.5556 0.559718 52.7757 0.341464C52.9959 0.12321 53.2932 0.000524948 53.6033 0H93.3819C93.6913 0.00107213 93.9879 0.124063 94.2073 0.342316C94.4267 0.560569 94.5513 0.856497 94.554 1.16596V57.0805C94.554 57.3918 94.4306 57.6904 94.2109 57.9108C93.9912 58.1313 93.6931 58.2557 93.3819 58.2568ZM53.6033 0.0412002C53.3051 0.0417447 53.0194 0.16042 52.8085 0.371236C52.5977 0.582051 52.479 0.867822 52.4785 1.16596V57.0805C52.479 57.3787 52.5977 57.6644 52.8085 57.8753C53.0194 58.0861 53.3051 58.2048 53.6033 58.2053H93.3819C93.68 58.2048 93.9658 58.0861 94.1766 57.8753C94.3874 57.6644 94.5061 57.3787 94.5066 57.0805V1.16596C94.5061 0.867822 94.3874 0.582051 94.1766 0.371236C93.9658 0.16042 93.68 0.0417447 93.3819 0.0412002H53.6033Z" fill="#EBEBEB"/>
<path d="M103 67.4443H0V67.4958H103V67.4443Z" fill="#EBEBEB"/>
<path d="M93.8659 3.37207H79.1884V53.1643H93.8659V3.37207Z" fill="#FAFAFA"/>
<path d="M94.2388 20.9976H75.8883V52.7298H94.2388V20.9976Z" fill="#E0E0E0"/>
<path d="M79.413 16.5645V24.5222H80.8612H89.2681H90.7162V16.5645H79.413Z" fill="#E0E0E0"/>
<path d="M79.4131 22.1738H77.0647V24.5222H79.4131V22.1738Z" fill="#FAFAFA"/>
<path d="M83.9635 22.1738H81.6151V24.5222H83.9635V22.1738Z" fill="#FAFAFA"/>
<path d="M88.5142 22.1738H86.1658V24.5222H88.5142V22.1738Z" fill="#FAFAFA"/>
<path d="M93.0666 22.1738H90.7162V24.5222H93.0666V22.1738Z" fill="#F0F0F0"/>
<path d="M79.4131 26.4424H77.0647V28.7928H79.4131V26.4424Z" fill="#F0F0F0"/>
<path d="M83.9635 26.4424H81.6151V28.7928H83.9635V26.4424Z" fill="#F0F0F0"/>
<path d="M88.5142 26.4424H86.1658V28.7928H88.5142V26.4424Z" fill="#FAFAFA"/>
<path d="M93.0666 26.4424H90.7162V28.7928H93.0666V26.4424Z" fill="#FAFAFA"/>
<path d="M79.4131 30.7104H77.0647V33.0588H79.4131V30.7104Z" fill="#F0F0F0"/>
<path d="M83.9635 30.7104H81.6151V33.0588H83.9635V30.7104Z" fill="#FAFAFA"/>
<path d="M88.5142 30.7104H86.1658V33.0588H88.5142V30.7104Z" fill="#FAFAFA"/>
<path d="M83.9635 18.4824H81.6151V20.8308H83.9635V18.4824Z" fill="#FAFAFA"/>
<path d="M88.5142 18.4824H86.1658V20.8308H88.5142V18.4824Z" fill="#F0F0F0"/>
<path d="M93.0666 30.7104H90.7162V33.0588H93.0666V30.7104Z" fill="#F0F0F0"/>
<path d="M79.4131 34.979H77.0647V37.3274H79.4131V34.979Z" fill="#FAFAFA"/>
<path d="M83.9635 34.979H81.6151V37.3274H83.9635V34.979Z" fill="#F0F0F0"/>
<path d="M88.5142 34.979H86.1658V37.3274H88.5142V34.979Z" fill="#F0F0F0"/>
<path d="M93.0666 34.979H90.7162V37.3274H93.0666V34.979Z" fill="#FAFAFA"/>
<path d="M79.4131 39.249H77.0647V41.5995H79.4131V39.249Z" fill="#F0F0F0"/>
<path d="M83.9635 39.249H81.6151V41.5995H83.9635V39.249Z" fill="#FAFAFA"/>
<path d="M88.5142 39.249H86.1658V41.5995H88.5142V39.249Z" fill="#FAFAFA"/>
<path d="M93.0666 39.249H90.7162V41.5995H93.0666V39.249Z" fill="#F0F0F0"/>
<path d="M79.4131 43.5176H77.0647V45.866H79.4131V43.5176Z" fill="#F0F0F0"/>
<path d="M83.9635 43.5176H81.6151V45.866H83.9635V43.5176Z" fill="#FAFAFA"/>
<path d="M88.5142 43.5176H86.1658V45.866H88.5142V43.5176Z" fill="#F0F0F0"/>
<path d="M93.0666 43.5176H90.7162V45.866H93.0666V43.5176Z" fill="#FAFAFA"/>
<path d="M79.4131 47.7856H77.0647V50.1361H79.4131V47.7856Z" fill="#FAFAFA"/>
<path d="M83.9635 47.7856H81.6151V50.1361H83.9635V47.7856Z" fill="#FAFAFA"/>
<path d="M88.5142 47.7856H86.1658V50.1361H88.5142V47.7856Z" fill="#F0F0F0"/>
<path d="M93.0666 47.7856H90.7162V50.1361H93.0666V47.7856Z" fill="#F0F0F0"/>
<path opacity="0.1" d="M93.8371 3.37207H79.1596V53.1643H93.8371V3.37207Z" fill="white"/>
<g opacity="0.3">
<path d="M92.4013 3.37207H87.721L82.6019 53.1643H87.2802L92.4013 3.37207Z" fill="white"/>
</g>
<path d="M93.9895 2.7417H79.0648V4.00448H93.9895V2.7417Z" fill="#E0E0E0"/>
<path d="M93.9895 52.73H79.0648V53.9928H93.9895V52.73Z" fill="#EBEBEB"/>
<path d="M94.5684 55.0698H78.3892V1.50977H94.5684V55.0698ZM79.6231 53.8338H93.3365V2.74577H79.6231V53.8338Z" fill="#EBEBEB"/>
<path d="M77.8556 3.37207H63.1781V53.1643H77.8556V3.37207Z" fill="#FAFAFA"/>
<path d="M76.7452 37.5H64.1937V52.9026H76.7452V37.5Z" fill="#E6E6E6"/>
<path d="M75.6536 39.208H72.7325H71.9291H71.1257V40.8148H71.9291H72.7325H75.6536V39.208Z" fill="#E6E6E6"/>
<path d="M75.6536 42.3203H72.7325H71.9291H71.1257V43.9271H71.9291H72.7325H75.6536V42.3203Z" fill="#FAFAFA"/>
<path d="M75.6536 45.4331H72.7325H71.9291H71.1257V47.0399H71.9291H72.7325H75.6536V45.4331Z" fill="#E6E6E6"/>
<path d="M75.6536 48.5459H72.7325H71.4924H71.1257V50.1527H71.4924H72.7325H75.6536V48.5459Z" fill="#FAFAFA"/>
<path d="M69.8134 39.208H66.8944H66.091H65.2876V40.8148H66.091H66.8944H69.8134V39.208Z" fill="#FAFAFA"/>
<path d="M69.8134 42.3203H66.8944H65.7614H65.2876V43.9271H65.7614H66.8944H69.8134V42.3203Z" fill="#FAFAFA"/>
<path d="M69.8134 45.4331H66.8944H66.091H65.2876V47.0399H66.091H66.8944H69.8134V45.4331Z" fill="#E6E6E6"/>
<path d="M69.8134 48.5459H66.8944H66.091H65.2876V50.1527H66.091H66.8944H69.8134V48.5459Z" fill="#FAFAFA"/>
<path opacity="0.1" d="M77.8083 3.37207H63.1308V53.1643H77.8083V3.37207Z" fill="white"/>
<g opacity="0.3">
<path d="M76.391 3.37207H71.7128L66.5916 53.1643H71.2719L76.391 3.37207Z" fill="white"/>
</g>
<path d="M77.9792 2.7417H63.0545V4.00448H77.9792V2.7417Z" fill="#E0E0E0"/>
<path d="M77.9792 52.73H63.0545V53.9928H77.9792V52.73Z" fill="#EBEBEB"/>
<path d="M78.5602 55.0698H62.381V1.50977H78.5602V55.0698ZM63.6129 53.8338H77.3263V2.74577H63.6129V53.8338Z" fill="#EBEBEB"/>
<path d="M39.3975 3.37207H24.72V53.1643H39.3975V3.37207Z" fill="#FAFAFA"/>
<path opacity="0.1" d="M39.3686 3.37207H24.6911V53.1643H39.3686V3.37207Z" fill="white"/>
<g opacity="0.3">
<path d="M37.9349 3.37207H33.2546L28.1355 53.1643H32.8138L37.9349 3.37207Z" fill="white"/>
</g>
<path d="M39.5231 2.7417H24.5984V4.00448H39.5231V2.7417Z" fill="#E0E0E0"/>
<path d="M39.5231 52.73H24.5984V53.9928H39.5231V52.73Z" fill="#EBEBEB"/>
<path d="M40.102 55.0698H23.9228V1.50977H40.102V55.0698ZM25.1567 53.8338H38.8681V2.74577H25.1567V53.8338Z" fill="#EBEBEB"/>
<path d="M23.4099 3.37207H8.73236V53.1643H23.4099V3.37207Z" fill="#FAFAFA"/>
<path d="M21.1974 24.4585H9.83649V33.9922H21.1974V24.4585Z" fill="#E6E6E6"/>
<path d="M12.018 25.647H10.5636V27.1013H12.018V25.647Z" fill="#FAFAFA"/>
<path d="M14.8361 25.647H13.3818V27.1013H14.8361V25.647Z" fill="#FAFAFA"/>
<path d="M17.6541 25.647H16.1998V27.1013H17.6541V25.647Z" fill="#FAFAFA"/>
<path d="M20.4703 25.647H19.0159V27.1013H20.4703V25.647Z" fill="#FAFAFA"/>
<path d="M12.018 28.29H10.5636V29.7444H12.018V28.29Z" fill="#FAFAFA"/>
<path d="M14.8361 28.29H13.3818V29.7444H14.8361V28.29Z" fill="#FAFAFA"/>
<path d="M17.6541 28.29H16.1998V29.7444H17.6541V28.29Z" fill="#FAFAFA"/>
<path d="M20.4703 28.29H19.0159V29.7444H20.4703V28.29Z" fill="#E6E6E6"/>
<path d="M12.018 30.9312H10.5636V32.3855H12.018V30.9312Z" fill="#E6E6E6"/>
<path d="M14.8361 30.9312H13.3818V32.3855H14.8361V30.9312Z" fill="#E6E6E6"/>
<path d="M17.6541 30.9312H16.1998V32.3855H17.6541V30.9312Z" fill="#FAFAFA"/>
<path d="M20.4703 30.9312H19.0159V32.3855H20.4703V30.9312Z" fill="#E6E6E6"/>
<path d="M21.1974 33.8726H9.83649V43.4062H21.1974V33.8726Z" fill="#E6E6E6"/>
<path d="M12.018 35.0591H10.5636V36.5134H12.018V35.0591Z" fill="#FAFAFA"/>
<path d="M14.8361 35.0591H13.3818V36.5134H14.8361V35.0591Z" fill="#FAFAFA"/>
<path d="M17.6541 35.0591H16.1998V36.5134H17.6541V35.0591Z" fill="#FAFAFA"/>
<path d="M20.4703 35.0591H19.0159V36.5134H20.4703V35.0591Z" fill="#FAFAFA"/>
<path d="M12.018 37.7021H10.5636V39.1565H12.018V37.7021Z" fill="#FAFAFA"/>
<path d="M14.8361 37.7021H13.3818V39.1565H14.8361V37.7021Z" fill="#FAFAFA"/>
<path d="M17.6541 37.7021H16.1998V39.1565H17.6541V37.7021Z" fill="#FAFAFA"/>
<path d="M20.4703 37.7021H19.0159V39.1565H20.4703V37.7021Z" fill="#E6E6E6"/>
<path d="M12.018 40.3447H10.5636V41.7991H12.018V40.3447Z" fill="#E6E6E6"/>
<path d="M14.8361 40.3447H13.3818V41.7991H14.8361V40.3447Z" fill="#E6E6E6"/>
<path d="M17.6541 40.3447H16.1998V41.7991H17.6541V40.3447Z" fill="#FAFAFA"/>
<path d="M20.4703 40.3447H19.0159V41.7991H20.4703V40.3447Z" fill="#E6E6E6"/>
<path d="M21.1974 43.2847H9.83649V52.8183H21.1974V43.2847Z" fill="#E6E6E6"/>
<path d="M12.018 44.4731H10.5636V45.9275H12.018V44.4731Z" fill="#FAFAFA"/>
<path d="M14.8361 44.4731H13.3818V45.9275H14.8361V44.4731Z" fill="#FAFAFA"/>
<path d="M17.6541 44.4731H16.1998V45.9275H17.6541V44.4731Z" fill="#FAFAFA"/>
<path d="M20.4703 44.4731H19.0159V45.9275H20.4703V44.4731Z" fill="#FAFAFA"/>
<path d="M12.018 47.1162H10.5636V48.5706H12.018V47.1162Z" fill="#FAFAFA"/>
<path d="M14.8361 47.1162H13.3818V48.5706H14.8361V47.1162Z" fill="#FAFAFA"/>
<path d="M17.6541 47.1162H16.1998V48.5706H17.6541V47.1162Z" fill="#FAFAFA"/>
<path d="M20.4703 47.1162H19.0159V48.5706H20.4703V47.1162Z" fill="#E6E6E6"/>
<path d="M12.018 49.7593H10.5636V51.2136H12.018V49.7593Z" fill="#E6E6E6"/>
<path d="M14.8361 49.7593H13.3818V51.2136H14.8361V49.7593Z" fill="#E6E6E6"/>
<path d="M17.6541 49.7593H16.1998V51.2136H17.6541V49.7593Z" fill="#FAFAFA"/>
<path d="M20.4703 49.7593H19.0159V51.2136H20.4703V49.7593Z" fill="#E6E6E6"/>
<path opacity="0.1" d="M23.2162 3.37207H8.5387V53.1643H23.2162V3.37207Z" fill="white"/>
<g opacity="0.3">
<path d="M21.9451 3.37207H17.2668L12.1477 53.1643H16.826L21.9451 3.37207Z" fill="white"/>
</g>
<path d="M23.5355 2.7417H8.61084V4.00448H23.5355V2.7417Z" fill="#E0E0E0"/>
<path d="M23.5355 52.73H8.61084V53.9928H23.5355V52.73Z" fill="#EBEBEB"/>
<path d="M24.1144 55.0698H7.93518V1.50977H24.1144V55.0698ZM9.16912 53.8338H22.8805V2.74577H9.16912V53.8338Z" fill="#EBEBEB"/>
<path d="M50.1652 61.7197L50.0004 61.7403C49.9901 61.6558 48.9889 53.2758 51.0551 46.4283C53.1151 39.6303 51.6937 35.2837 51.6731 35.2425L51.8317 35.189C51.8461 35.2322 53.2737 39.62 51.2137 46.4757C49.1578 53.2902 50.1549 61.6373 50.1652 61.7197Z" fill="#E0E0E0"/>
<path d="M51.9738 36.1756C51.614 35.747 51.1257 35.4458 50.5812 35.3166L50.6204 35.1538C51.1996 35.2914 51.7191 35.6121 52.1015 36.0684L51.9738 36.1756Z" fill="#E0E0E0"/>
<path d="M52.6803 36.8691L52.2051 37.1377L52.2872 37.283L52.7624 37.0144L52.6803 36.8691Z" fill="#E0E0E0"/>
<path d="M51.7946 40.7323C51.3801 39.7877 50.6127 39.0425 49.6563 38.6559L49.7181 38.5034C50.7144 38.9055 51.5142 39.681 51.947 40.6644L51.7946 40.7323Z" fill="#E0E0E0"/>
<path d="M51.3496 45.9671H51.1827C51.1772 45.6301 51.0972 45.2985 50.9483 44.9961C50.7994 44.6937 50.5854 44.428 50.3217 44.2182L50.4247 44.0884C50.7079 44.3139 50.9377 44.5993 51.0976 44.9241C51.2575 45.2489 51.3436 45.6051 51.3496 45.9671Z" fill="#E0E0E0"/>
<path d="M50.9788 47.3055L50.8223 47.2458C50.9078 47.0333 51.036 46.8407 51.199 46.6798C51.362 46.5189 51.5563 46.3933 51.7699 46.3105L51.8275 46.4671C51.636 46.5409 51.4617 46.6535 51.3157 46.7978C51.1697 46.942 51.055 47.1149 50.9788 47.3055Z" fill="#E0E0E0"/>
<path d="M49.8994 55.7994L49.7717 55.6943C49.9777 55.4492 50.128 54.5201 50.2104 54.0216C50.229 53.9021 50.2455 53.8012 50.2599 53.7271L50.4226 53.7579C50.4103 53.83 50.3938 53.931 50.3732 54.0484C50.2516 54.7962 50.1136 55.5419 49.8994 55.7994Z" fill="#E0E0E0"/>
<path d="M49.8046 58.4669C49.6887 58.1405 49.4728 57.8589 49.1877 57.6622C48.9026 57.4654 48.5627 57.3636 48.2164 57.371V57.2041C48.5993 57.195 48.9753 57.3072 49.2906 57.5248C49.6059 57.7424 49.8442 58.0541 49.9715 58.4154L49.8046 58.4669Z" fill="#E0E0E0"/>
<path d="M51.076 60.2093L49.9037 61.521L50.0281 61.6322L51.2005 60.3205L51.076 60.2093Z" fill="#E0E0E0"/>
<path d="M51.912 51.6546C52.1778 52.5137 50.3258 54.1514 50.3258 54.1514C50.3258 54.1514 47.8724 53.8444 47.6066 52.9833C47.3409 52.1223 47.963 50.7173 49.1516 50.3507C50.3402 49.984 51.638 50.7956 51.912 51.6546Z" fill="#F0F0F0"/>
<path d="M53.9597 41.2224C53.7249 42.135 51.9697 42.7839 51.9697 42.7839C51.9697 42.7839 50.7461 41.3687 50.9809 40.4561C51.2158 39.5435 52.186 38.5362 53.008 38.7483C53.8299 38.9605 54.1945 40.3098 53.9597 41.2224Z" fill="#EBEBEB"/>
<path d="M46.9206 54.8641C48.0207 55.2947 48.6963 57.2414 48.6963 57.2414C48.6963 57.2414 46.8815 58.2199 45.7794 57.7914C44.6773 57.3629 43.5134 56.1434 43.8265 55.3462C44.1396 54.549 45.8185 54.4357 46.9206 54.8641Z" fill="#F5F5F5"/>
<path d="M49.335 44.1459C49.5572 44.3332 49.8121 44.4778 50.0869 44.5723C50.2254 44.6166 50.3733 44.6223 50.5149 44.589C50.6564 44.5556 50.7862 44.4843 50.8903 44.3828C51.1272 44.1109 51.0633 43.6906 50.915 43.3631C50.6204 42.7142 49.5348 41.6142 48.7005 41.9211C47.4975 42.3846 48.7973 43.7483 49.335 44.1459Z" fill="#E6E6E6"/>
<path d="M51.7987 45.7999C51.6401 45.9956 51.4732 46.2407 51.5597 46.4776C51.6087 46.5781 51.6898 46.6594 51.7902 46.7087C51.8905 46.7579 52.0044 46.7723 52.1139 46.7495C52.3316 46.6987 52.5351 46.5994 52.7092 46.4591C53.1336 46.1624 54.005 45.5444 53.4488 44.9656C52.8926 44.3867 52.1304 45.3858 51.7987 45.7999Z" fill="#EBEBEB"/>
<path d="M48.2432 37.5597C48.1515 37.5647 48.0638 37.5984 47.9924 37.6561C47.9211 37.7138 47.8697 37.7925 47.8456 37.8811C47.8106 38.0871 47.9857 38.2766 48.1546 38.4064C48.5769 38.7318 49.8438 39.6094 50.1281 38.7627C50.3959 37.9635 48.8035 37.4917 48.2432 37.5597Z" fill="#E0E0E0"/>
<path d="M50.5812 34.7747C50.3196 34.7995 50.0579 34.7047 49.7963 34.7212C49.5347 34.7377 49.2422 34.9478 49.3019 35.2053C49.3617 35.4628 49.6501 35.5205 49.8911 35.5369C50.3051 35.5616 50.7205 35.5325 51.1271 35.4504C51.2231 35.4418 51.3123 35.3968 51.3763 35.3248C51.4835 35.1682 51.3145 34.9581 51.1333 34.9128C50.9466 34.8888 50.7629 34.8453 50.5853 34.783L50.5812 34.7747Z" fill="#E6E6E6"/>
<path d="M53.148 36.5753C53.4117 36.5753 53.665 36.4702 53.9287 36.4702C54.1924 36.4702 54.4952 36.6597 54.454 36.9193C54.4128 37.1789 54.1265 37.2592 53.8855 37.2901C53.4753 37.3445 53.0597 37.3445 52.6495 37.2901C52.5522 37.288 52.4594 37.2489 52.3899 37.1809C52.2745 37.0305 52.429 36.8122 52.5959 36.7442C52.7813 36.7083 52.9623 36.6523 53.1356 36.5773L53.148 36.5753Z" fill="#F0F0F0"/>
<path d="M52.8782 55.9311C52.9379 55.8691 53.0173 55.8297 53.1028 55.8198C53.1589 55.8262 53.2112 55.8512 53.2515 55.8907C53.2919 55.9303 53.3178 55.9822 53.3252 56.0382C53.3373 56.1504 53.3232 56.264 53.284 56.3698C53.1048 56.9652 51.1066 61.2809 50.6452 60.5063C50.3733 60.0469 51.0428 58.5308 51.2405 58.1002C51.6209 57.2659 52.1799 56.5254 52.8782 55.9311Z" fill="#F0F0F0"/>
<path d="M51.6833 34.9373C51.8123 34.5719 52.0329 34.2456 52.3239 33.9897C52.6391 33.7611 53.1479 33.7446 53.3745 34.0598C53.632 34.412 53.3745 34.9476 52.9811 35.1351C52.5876 35.3225 52.1282 35.2649 51.6956 35.2051C51.6956 35.1413 51.6956 35.0774 51.6853 35.0135L51.6833 34.9373Z" fill="#E6E6E6"/>
<path d="M53.08 67.4756C50.9393 67.8402 48.7523 67.8402 46.6116 67.4756L44.0963 60.0596H55.5973L53.08 67.4756Z" fill="#F0F0F0"/>
<path d="M51.6215 11.9441C53.98 11.9441 55.8919 10.0322 55.8919 7.6737C55.8919 5.31524 53.98 3.40332 51.6215 3.40332C49.263 3.40332 47.3511 5.31524 47.3511 7.6737C47.3511 10.0322 49.263 11.9441 51.6215 11.9441Z" fill="#E0E0E0"/>
<path d="M55.5517 8.18107C55.9295 5.85308 54.3487 3.65953 52.0207 3.28164C49.6927 2.90375 47.4991 4.48463 47.1212 6.81263C46.7433 9.14062 48.3242 11.3342 50.6522 11.7121C52.9802 12.0899 55.1738 10.5091 55.5517 8.18107Z" fill="#EBEBEB"/>
<path opacity="0.8" d="M54.761 7.52305C54.761 8.20102 54.56 8.86376 54.1833 9.42746C53.8067 9.99117 53.2713 10.4305 52.645 10.69C52.0186 10.9494 51.3294 11.0173 50.6644 10.885C49.9995 10.7528 49.3887 10.4263 48.9093 9.9469C48.4299 9.46751 48.1035 8.85673 47.9712 8.19179C47.8389 7.52686 47.9068 6.83763 48.1663 6.21128C48.4257 5.58492 48.8651 5.04957 49.4288 4.67291C49.9925 4.29626 50.6552 4.09521 51.3332 4.09521C52.2423 4.09521 53.1142 4.45636 53.757 5.09921C54.3999 5.74205 54.761 6.61393 54.761 7.52305Z" fill="white"/>
<path d="M51.1478 7.84621C51.0829 7.78083 51.0466 7.69242 51.0468 7.60034C51.047 7.50826 51.0837 7.42001 51.1488 7.3549C51.2139 7.28979 51.3021 7.25312 51.3942 7.25293C51.4863 7.25274 51.5747 7.28903 51.6401 7.35387C51.6726 7.38615 51.6985 7.42454 51.7162 7.46683C51.7338 7.50913 51.743 7.5545 51.7431 7.60034C51.7432 7.64618 51.7342 7.69159 51.7167 7.73396C51.6992 7.77633 51.6735 7.81483 51.6411 7.84724C51.6087 7.87966 51.5702 7.90535 51.5278 7.92285C51.4855 7.94035 51.4401 7.9493 51.3942 7.94921C51.3484 7.94911 51.303 7.93996 51.2607 7.92229C51.2184 7.90461 51.18 7.87876 51.1478 7.84621Z" fill="#E0E0E0"/>
<path d="M51.3332 7.48221L53.3561 7.42041L53.3623 7.63053L51.5289 7.68615L51.3311 10.875L51.123 10.8627L51.3332 7.48221Z" fill="#E0E0E0"/>
<path d="M42.5 76.6341C64.559 76.6341 82.4414 75.59 82.4414 74.3021C82.4414 73.0143 64.559 71.9702 42.5 71.9702C20.4411 71.9702 2.55872 73.0143 2.55872 74.3021C2.55872 75.59 20.4411 76.6341 42.5 76.6341Z" fill="#F5F5F5"/>
<path d="M79.6521 63.4297L80.6986 46.7726C80.7906 45.3076 80.5815 43.8394 80.0842 42.4584C79.5868 41.0774 78.8118 39.8129 77.8069 38.743C76.8021 37.673 75.5886 36.8203 74.2415 36.2375C72.8943 35.6546 71.4421 35.3539 69.9742 35.354C67.2296 35.3544 64.5891 36.405 62.5945 38.2904C60.6 40.1758 59.4025 42.753 59.2478 45.4933L58.156 64.948H78.035C78.447 64.9477 78.8435 64.7907 79.1438 64.5087C79.4442 64.2267 79.6259 63.8409 79.6521 63.4297Z" fill="#683089"/>
<path opacity="0.4" d="M79.6892 62.8301L80.6986 46.7765C80.7906 45.3115 80.5815 43.8433 80.0842 42.4623C79.5868 41.0813 78.8118 39.8168 77.8069 38.7469C76.8021 37.6769 75.5886 36.8242 74.2415 36.2414C72.8943 35.6585 71.4421 35.3578 69.9742 35.3579C67.2296 35.3583 64.5891 36.4089 62.5945 38.2943C60.6 40.1798 59.4025 42.7569 59.2478 45.4972L58.156 64.9478H77.4355C78.0096 64.9459 78.5614 64.7262 78.9798 64.3331C79.3981 63.94 79.6516 63.4029 79.6892 62.8301Z" fill="black"/>
<path d="M76.4262 64.948L77.5674 46.7726C77.6592 45.3077 77.4498 43.8396 76.9524 42.4587C76.455 41.0778 75.6799 39.8135 74.6751 38.7436C73.6703 37.6737 72.457 36.821 71.11 36.2381C69.763 35.6551 68.3108 35.3542 66.8431 35.354C64.0983 35.3539 61.4576 36.4044 59.4629 38.2899C57.4682 40.1754 56.2709 42.7529 56.1167 45.4933L55.0187 64.948H76.4262Z" fill="#683089"/>
<path d="M76.7682 68.0773H77.0421C77.116 68.0733 77.186 68.0431 77.2396 67.9921C77.2932 67.9411 77.3269 67.8727 77.3347 67.7992L77.7467 64.9502H76.0781L76.4901 67.7992C76.4977 67.8703 76.5294 67.9367 76.58 67.9873C76.6306 68.0379 76.697 68.0697 76.7682 68.0773Z" fill="#683089"/>
<path opacity="0.7" d="M76.7682 68.0773H77.0421C77.116 68.0733 77.186 68.0431 77.2396 67.9921C77.2932 67.9411 77.3269 67.8727 77.3347 67.7992L77.7467 64.9502H76.0781L76.4901 67.7992C76.4977 67.8703 76.5294 67.9367 76.58 67.9873C76.6306 68.0379 76.697 68.0697 76.7682 68.0773Z" fill="white"/>
<path d="M49.8542 68.0773H50.1014C50.1715 68.07 50.2368 68.0381 50.2855 67.9871C50.3342 67.9362 50.3631 67.8695 50.3672 67.7992L50.74 64.9502H49.2239L49.5926 67.7992C49.5965 67.8689 49.6249 67.935 49.6727 67.9859C49.7206 68.0368 49.7849 68.0691 49.8542 68.0773Z" fill="#683089"/>
<path opacity="0.5" d="M49.8542 68.0773H50.1014C50.1715 68.07 50.2368 68.0381 50.2855 67.9871C50.3342 67.9362 50.3631 67.8695 50.3672 67.7992L50.74 64.9502H49.2239L49.5926 67.7992C49.5965 67.8689 49.6249 67.935 49.6727 67.9859C49.7206 68.0368 49.7849 68.0691 49.8542 68.0773Z" fill="white"/>
<path d="M57.6018 68.0773H57.8511C57.9212 68.07 57.9865 68.0381 58.0352 67.9871C58.0838 67.9362 58.1128 67.8695 58.1168 67.7992L58.4835 64.9502H56.9694L57.332 67.7992C57.3361 67.8702 57.3657 67.9373 57.4152 67.9884C57.4648 68.0394 57.531 68.071 57.6018 68.0773Z" fill="#683089"/>
<path opacity="0.7" d="M57.6018 68.0773H57.8511C57.9212 68.07 57.9865 68.0381 58.0352 67.9871C58.0838 67.9362 58.1128 67.8695 58.1168 67.7992L58.4835 64.9502H56.9694L57.332 67.7992C57.3361 67.8702 57.3657 67.9373 57.4152 67.9884C57.4648 68.0394 57.531 68.071 57.6018 68.0773Z" fill="white"/>
<path d="M68.4251 68.0773H68.6991C68.773 68.0729 68.8431 68.0427 68.897 67.9918C68.9508 67.941 68.9851 67.8728 68.9936 67.7992L69.4056 64.9502H67.735L68.147 67.7992C68.1542 67.8705 68.1858 67.9371 68.2365 67.9878C68.2872 68.0384 68.3538 68.07 68.4251 68.0773Z" fill="#683089"/>
<path opacity="0.5" d="M68.4251 68.0773H68.6991C68.773 68.0729 68.8431 68.0427 68.897 67.9918C68.9508 67.941 68.9851 67.8728 68.9936 67.7992L69.4056 64.9502H67.735L68.147 67.7992C68.1542 67.8705 68.1858 67.9371 68.2365 67.9878C68.2872 68.0384 68.3538 68.07 68.4251 68.0773Z" fill="white"/>
<path d="M59.3549 58.0922H52.0296L51.5455 51.0305L51.4404 49.5143L51.393 48.816C51.3798 48.6328 51.3557 48.4505 51.3209 48.2701C51.3209 48.2309 51.3044 48.1877 51.2962 48.1485C51.2918 48.119 51.2842 48.09 51.2735 48.062C51.0761 47.3423 50.6916 46.6877 50.1591 46.1648C49.5446 45.5578 48.7322 45.1922 47.8704 45.1348H54.7611C54.8353 45.1348 54.9115 45.1348 54.9877 45.1348C55.9219 45.1389 56.8174 45.5086 57.4824 46.1648C58.0155 46.6875 58.4007 47.3421 58.5989 48.062C58.6096 48.09 58.6172 48.119 58.6216 48.1485C58.67 48.3684 58.7023 48.5915 58.7184 48.816L58.7658 49.5143L59.3549 58.0922Z" fill="#683089"/>
<path opacity="0.1" d="M59.3549 58.0922H52.0296L51.5455 51.0305L51.4404 49.5143L51.393 48.816C51.3798 48.6328 51.3557 48.4505 51.3209 48.2701C51.3209 48.2309 51.3044 48.1877 51.2962 48.1485C51.2918 48.119 51.2842 48.09 51.2735 48.062C51.0761 47.3423 50.6916 46.6877 50.1591 46.1648C49.5446 45.5578 48.7322 45.1922 47.8704 45.1348H54.7611C54.8353 45.1348 54.9115 45.1348 54.9877 45.1348C55.9219 45.1389 56.8174 45.5086 57.4824 46.1648C58.0155 46.6875 58.4007 47.3421 58.5989 48.062C58.6096 48.09 58.6172 48.119 58.6216 48.1485C58.67 48.3684 58.7023 48.5915 58.7184 48.816L58.7658 49.5143L59.3549 58.0922Z" fill="black"/>
<g opacity="0.1">
<path d="M65.16 54.3223H68.1017C68.8185 54.3223 69.3974 54.7755 69.3974 55.3337V57.0724C69.3974 57.6327 68.8185 58.0838 68.1017 58.0838H65.16V54.3223Z" fill="black"/>
</g>
<path d="M53.1481 58.084H66.1055C66.7222 58.084 67.222 57.5841 67.222 56.9675V55.4369C67.222 54.8203 66.7222 54.3204 66.1055 54.3204H53.1481C52.5315 54.3204 52.0316 54.8203 52.0316 55.4369V56.9675C52.0316 57.5841 52.5315 58.084 53.1481 58.084Z" fill="#683089"/>
<path d="M83.7 49.2899C83.7017 50.2748 83.3551 51.2287 82.7214 51.9826C82.0876 52.7366 81.2077 53.2422 80.2371 53.4099L79.4852 63.4483C79.4193 64.3011 78.7992 64.9541 78.0576 64.9541H69.9783C70.7199 64.9541 71.3379 64.3011 71.4038 63.4483L71.8158 58.0923L72.164 53.4037C72.7989 53.2947 73.3999 53.0395 73.9193 52.6584C74.4388 52.2773 74.8625 51.7807 75.1572 51.2078C75.1977 51.135 75.2341 51.06 75.2663 50.9832C75.5044 50.4505 75.6266 49.8734 75.6248 49.2899C75.6244 49.0041 75.5954 48.7191 75.5383 48.4391C75.5156 48.3279 75.4868 48.2166 75.4559 48.1075C75.3092 47.6168 75.0746 47.1568 74.7637 46.7499C74.3738 46.2422 73.8726 45.8307 73.2987 45.5472C72.7248 45.2636 72.0934 45.1155 71.4533 45.1143H79.5326C80.1801 45.1119 80.819 45.263 81.3969 45.5551C81.9618 45.8363 82.455 46.2429 82.8389 46.7437C83.3995 47.4739 83.7024 48.3693 83.7 49.2899Z" fill="#683089"/>
<path opacity="0.3" d="M83.7 49.2899C83.7017 50.2748 83.3551 51.2287 82.7214 51.9826C82.0876 52.7366 81.2077 53.2422 80.2371 53.4099L79.4852 63.4483C79.4193 64.3011 78.7992 64.9541 78.0576 64.9541H69.9783C70.7199 64.9541 71.3379 64.3011 71.4038 63.4483L71.8158 58.0923L72.164 53.4037C72.7989 53.2947 73.3999 53.0395 73.9193 52.6584C74.4388 52.2773 74.8625 51.7807 75.1572 51.2078C75.1977 51.135 75.2341 51.06 75.2663 50.9832C75.5044 50.4505 75.6266 49.8734 75.6248 49.2899C75.6244 49.0041 75.5954 48.7191 75.5383 48.4391C75.5156 48.3279 75.4868 48.2166 75.4559 48.1075C75.3092 47.6168 75.0746 47.1568 74.7637 46.7499C74.3738 46.2422 73.8726 45.8307 73.2987 45.5472C72.7248 45.2636 72.0934 45.1155 71.4533 45.1143H79.5326C80.1801 45.1119 80.819 45.263 81.3969 45.5551C81.9618 45.8363 82.455 46.2429 82.8389 46.7437C83.3995 47.4739 83.7024 48.3693 83.7 49.2899Z" fill="black"/>
<path d="M75.6268 49.292C75.6268 51.352 74.2693 53.068 72.4874 53.412L71.7993 63.4483C71.7396 64.3012 71.1813 64.9562 70.5057 64.9562H48.9292C48.2577 64.9562 47.6932 64.3012 47.6355 63.4483L46.9454 53.3935C45.1986 53.0268 43.8781 51.3335 43.8781 49.2982C43.874 48.4437 44.1164 47.6061 44.5764 46.8859C44.9244 46.3368 45.4037 45.883 45.9711 45.5655C46.4874 45.2751 47.0699 45.1226 47.6623 45.1226C48.5969 45.1281 49.4924 45.4976 50.159 46.1526C50.6915 46.6747 51.076 47.3286 51.2735 48.0478C51.2842 48.0771 51.2918 48.1075 51.2962 48.1384C51.3449 48.3575 51.3772 48.5799 51.393 48.8038L51.4424 49.5021L52.0295 58.0923H67.4054L68.0419 48.8223C68.1325 47.5122 68.7711 46.4204 69.6569 45.9033C70.2167 45.4553 70.9006 45.19 71.616 45.1432C71.6913 45.1356 71.7669 45.1321 71.8426 45.1329C72.4178 45.1297 72.9846 45.2713 73.4906 45.5449C73.5063 45.5519 73.5215 45.5601 73.5359 45.5696C74.0583 45.8596 74.5067 46.2664 74.8461 46.7582C75.3574 47.504 75.6297 48.3877 75.6268 49.292Z" fill="#683089"/>
<path opacity="0.1" d="M67.049 64.9499H48.921C48.2495 64.9499 47.685 64.2948 47.6274 63.442L46.9373 53.3871C45.1904 53.0204 43.8699 51.3271 43.8699 49.2918C43.8658 48.4373 44.1083 47.5997 44.5683 46.8796C44.9163 46.3304 45.3956 45.8766 45.9629 45.5591C46.4793 45.2687 47.0617 45.1162 47.6541 45.1162C48.5887 45.1217 49.4843 45.4912 50.1509 46.1462C50.6833 46.6683 51.0679 47.3223 51.2653 48.0414C51.276 48.0708 51.2836 48.1011 51.288 48.132C51.3367 48.3511 51.3691 48.5735 51.3848 48.7974L51.4342 49.4958L52.0296 58.0921H67.4054L67.049 64.9499Z" fill="white"/>
<path d="M64.6987 36.4048C64.3402 36.6108 64.0127 36.7817 63.6687 36.9568C63.3247 37.1319 62.9868 37.2926 62.6387 37.4533C61.9465 37.7685 61.2461 38.0713 60.5251 38.3329C59.7984 38.6032 59.0586 38.837 58.3086 39.0333C57.5284 39.243 56.7317 39.3857 55.9272 39.4597L55.7562 39.4762H55.6759C54.9487 39.3918 54.3039 39.2702 53.6571 39.126C53.0102 38.9818 52.3696 38.8397 51.7351 38.6769C51.1006 38.5142 50.4703 38.3473 49.8399 38.1661C49.2095 37.9848 48.5854 37.7973 47.9612 37.5851L48.2475 36.1555C49.5433 36.2379 50.8369 36.3615 52.1183 36.4954L54.032 36.687C54.6624 36.7488 55.3071 36.8023 55.8716 36.8229H55.6223C56.2688 36.7078 56.9063 36.5467 57.5299 36.3409C58.1747 36.1349 58.8194 35.9001 59.4642 35.624C60.109 35.348 60.7476 35.0637 61.3821 34.7609C61.7076 34.6126 62.0227 34.456 62.3317 34.3015C62.6407 34.147 62.9703 33.9822 63.2526 33.8359L64.6987 36.4048Z" fill="#263238"/>
<path opacity="0.1" d="M64.6987 36.4048C64.3402 36.6108 64.0127 36.7817 63.6687 36.9568C63.3247 37.1319 62.9868 37.2926 62.6387 37.4533C61.9465 37.7685 61.2461 38.0713 60.5251 38.3329C59.7984 38.6032 59.0586 38.837 58.3086 39.0333C57.5284 39.243 56.7317 39.3857 55.9272 39.4597L55.7562 39.4762H55.6759C54.9487 39.3918 54.3039 39.2702 53.6571 39.126C53.0102 38.9818 52.3696 38.8397 51.7351 38.6769C51.1006 38.5142 50.4703 38.3473 49.8399 38.1661C49.2095 37.9848 48.5854 37.7973 47.9612 37.5851L48.2475 36.1555C49.5433 36.2379 50.8369 36.3615 52.1183 36.4954L54.032 36.687C54.6624 36.7488 55.3071 36.8023 55.8716 36.8229H55.6223C56.2688 36.7078 56.9063 36.5467 57.5299 36.3409C58.1747 36.1349 58.8194 35.9001 59.4642 35.624C60.109 35.348 60.7476 35.0637 61.3821 34.7609C61.7076 34.6126 62.0227 34.456 62.3317 34.3015C62.6407 34.147 62.9703 33.9822 63.2526 33.8359L64.6987 36.4048Z" fill="black"/>
<path d="M47.9858 35.3704C47.6813 35.1567 47.3447 34.9926 46.9888 34.8843L46.4553 36.9669L48.0538 37.6385L48.2351 37.416C48.358 37.2674 48.4494 37.0954 48.5036 36.9103C48.5578 36.7252 48.5737 36.531 48.5504 36.3396C48.5271 36.1482 48.465 35.9635 48.3679 35.7969C48.2708 35.6303 48.1408 35.4852 47.9858 35.3704Z" fill="#FFC3BD"/>
<path d="M46.4552 36.9667L46.9887 34.884L45.4973 34.0703L45.0482 35.537L46.4552 36.9667Z" fill="#FFC3BD"/>
<path opacity="0.2" d="M59.6826 38.5221H59.7402H59.765C60.5519 38.4377 62.8653 38.0483 64.538 36.3983C64.2887 35.9162 63.9468 35.5434 63.5286 35.4589C62.375 35.2405 60.9618 36.0666 59.6826 38.5221Z" fill="black"/>
<path d="M61.04 49.2897C63.0135 43.9605 61.7157 39.0597 61.9629 36.3467C62.0237 35.6779 62.3006 35.0471 62.7518 34.5498C63.2031 34.0525 63.804 33.7157 64.4638 33.5904C65.811 33.3309 67.4775 33.0383 69.0658 32.8241C69.5096 32.7628 69.9614 32.7983 70.3903 32.9281C70.8191 33.0578 71.2148 33.2788 71.5502 33.5759C71.8856 33.8729 72.1528 34.239 72.3334 34.649C72.514 35.059 72.6038 35.5032 72.5966 35.9512C72.4586 43.9852 69.8836 49.2897 69.8836 49.2897L65.7224 49.2711L61.04 49.2897Z" fill="#683089"/>
<path opacity="0.8" d="M61.04 49.2897C63.0135 43.9605 61.7157 39.0597 61.9629 36.3467C62.0237 35.6779 62.3006 35.0471 62.7518 34.5498C63.2031 34.0525 63.804 33.7157 64.4638 33.5904C65.811 33.3309 67.4775 33.0383 69.0658 32.8241C69.5096 32.7628 69.9614 32.7983 70.3903 32.9281C70.8191 33.0578 71.2148 33.2788 71.5502 33.5759C71.8856 33.8729 72.1528 34.239 72.3334 34.649C72.514 35.059 72.6038 35.5032 72.5966 35.9512C72.4586 43.9852 69.8836 49.2897 69.8836 49.2897L65.7224 49.2711L61.04 49.2897Z" fill="white"/>
<path d="M45.2522 67.4731L44.7249 70.9401H46.3996L47.4997 67.4731H45.2522Z" fill="#FFC3BD"/>
<path d="M44.5106 70.1677L46.7498 70.1141C46.7673 70.1121 46.785 70.1138 46.8018 70.119C46.8186 70.1243 46.8341 70.1331 46.8473 70.1447C46.8605 70.1564 46.8712 70.1707 46.8785 70.1867C46.8858 70.2027 46.8897 70.2201 46.8899 70.2377V71.8857C46.8798 71.977 46.8368 72.0615 46.7689 72.1233C46.701 72.1851 46.6129 72.22 46.5211 72.2215C45.7424 72.2215 45.3716 72.1927 44.387 72.2215C43.3386 72.2182 42.2914 72.1494 41.2516 72.0155C40.4544 71.8795 40.6707 71.1318 41.0312 71.1194C42.6586 71.0597 43.5691 70.7198 44.1542 70.2954C44.2561 70.2156 44.3811 70.1708 44.5106 70.1677Z" fill="#263238"/>
<path opacity="0.2" d="M45.04 68.8636L45.2522 67.4731H47.4997L46.96 69.2077L45.04 68.8636Z" fill="black"/>
<path d="M60.01 48.0414C60.01 48.0414 46.3831 48.1774 46.1709 52.4931C45.8701 58.6978 44.8216 68.1491 44.8216 68.1491L47.3904 68.8557C47.3904 68.8557 51.0572 59.4765 51.1994 54.6293C55.033 53.8671 64.886 54.6293 66.0437 52.112C66.6095 50.8308 66.7622 49.4052 66.4804 48.0332L60.01 48.0414Z" fill="#683089"/>
<path opacity="0.6" d="M60.01 48.0414C60.01 48.0414 46.3831 48.1774 46.1709 52.4931C45.8701 58.6978 44.8216 68.1491 44.8216 68.1491L47.3904 68.8557C47.3904 68.8557 51.0572 59.4765 51.1994 54.6293C55.033 53.8671 64.886 54.6293 66.0437 52.112C66.6095 50.8308 66.7622 49.4052 66.4804 48.0332L60.01 48.0414Z" fill="black"/>
<path d="M57.2413 68.8144L58.1498 71.1669H59.9873L59.3549 68.6929L57.2413 68.8144Z" fill="#FFC3BD"/>
<path opacity="0.2" d="M59.5258 69.3605L59.1695 67.5498L56.8478 67.8382L57.4432 69.412L59.5258 69.3605Z" fill="black"/>
<path d="M57.6513 70.3881H59.9977C60.0356 70.3853 60.0731 70.3975 60.1021 70.4222C60.131 70.4469 60.149 70.482 60.1522 70.5199L60.2655 72.2771C60.2633 72.3722 60.2239 72.4626 60.1557 72.5289C60.0875 72.5952 59.996 72.632 59.9008 72.6314C59.0768 72.617 58.6937 72.5717 57.6616 72.5717C57.0292 72.5717 55.7479 72.6335 54.8724 72.6335C53.9969 72.6335 54.0216 71.8095 54.3903 71.7456C56.0589 71.4119 56.7037 70.9525 57.2908 70.5096C57.3952 70.4322 57.5214 70.3897 57.6513 70.3881Z" fill="#263238"/>
<path d="M63.6748 48.0411C63.6748 48.0411 51.3148 48.8795 51.6197 53.1911C51.9513 57.9126 56.9015 68.8615 56.9015 68.8615H59.3921C59.3921 68.8615 57.7441 58.9282 56.986 54.1161C60.4715 54.1161 68.5488 54.6414 69.7106 52.1179C70.2741 50.836 70.4253 49.4106 70.1432 48.0391L63.6748 48.0411Z" fill="#683089"/>
<path opacity="0.5" d="M63.6748 48.0411C63.6748 48.0411 51.3148 48.8795 51.6197 53.1911C51.9513 57.9126 56.9015 68.8615 56.9015 68.8615H59.3921C59.3921 68.8615 57.7441 58.9282 56.986 54.1161C60.4715 54.1161 68.5488 54.6414 69.7106 52.1179C70.2741 50.836 70.4253 49.4106 70.1432 48.0391L63.6748 48.0411Z" fill="black"/>
<path d="M65.5473 30.5744C65.8315 31.6745 65.9201 33.0464 64.3834 33.6129C63.9569 34.2927 63.7489 35.0096 65.3907 34.7542C66.6977 34.5852 67.887 33.9126 68.7052 32.8796C67.7226 32.0185 67.9018 29.3776 68.1511 27.8882L65.5473 30.5744Z" fill="#FFC3BD"/>
<path d="M65.3661 32.5771C63.955 32.8182 62.7952 33.91 62.1731 35.1975C61.551 36.485 61.4006 37.9517 61.413 39.3834C61.4253 40.8151 61.5881 42.2406 61.5489 43.6702C61.5057 45.3182 61.1081 46.4863 60.5396 48.0395C60.5396 48.4082 61.0978 48.6163 61.5696 48.7131C62.5542 46.5645 63.2011 44.5087 63.1331 42.1479C63.0816 40.434 63.0589 38.4811 63.3391 36.7919C63.6193 35.1027 65.6401 32.8964 65.5433 32.5916L65.3661 32.5771Z" fill="#263238"/>
<path opacity="0.3" d="M66.7462 31.3824C66.5983 31.4922 66.4298 31.571 66.2507 31.6142C66.0715 31.6574 65.8856 31.664 65.7039 31.6337C65.7072 31.3661 65.6879 31.0987 65.6462 30.8344L67.3519 29.4336C67.3892 29.6156 67.4133 29.8001 67.424 29.9857C67.4424 30.2573 67.3896 30.5291 67.2707 30.7741C67.1518 31.019 66.971 31.2287 66.7462 31.3824Z" fill="black"/>
<path d="M64.1959 24.0691C62.3934 25.0888 62.3749 27.9708 62.9311 29.6311C63.0714 30.0668 63.3288 30.4555 63.6751 30.7548C64.0214 31.0541 64.4433 31.2524 64.8947 31.3281C65.3461 31.4038 65.8096 31.354 66.2346 31.184C66.6596 31.0141 67.0297 30.7306 67.3045 30.3645C68.1861 29.25 68.0584 28.1253 68.0152 26.1889C67.9719 24.2525 66.0005 23.0515 64.1959 24.0691Z" fill="#FFC3BD"/>
<path opacity="0.2" d="M64.7769 29.2523C64.1959 29.5015 63.5594 29.8249 62.9723 29.7549C63.1302 30.1724 63.3973 30.5399 63.7457 30.819C64.094 31.0981 64.5109 31.2786 64.9527 31.3417C65.3946 31.4049 65.8454 31.3483 66.2579 31.1779C66.6705 31.0074 67.0298 30.7295 67.2983 30.3729C68.0255 29.4583 68.25 28.8403 68.044 27.1758C66.9151 28.4983 66.019 28.7167 64.7769 29.2523Z" fill="black"/>
<path d="M66.5196 24.7204C66.3325 25.0245 66.2492 25.3812 66.2822 25.7367C66.3153 26.0923 66.4629 26.4274 66.7029 26.6918C66.8657 26.8628 67.0655 26.9946 67.2221 27.1697C67.4662 27.4445 67.5934 27.8037 67.5764 28.1709C67.613 27.9347 67.7307 27.7185 67.9092 27.5596C68.0878 27.4006 68.316 27.3087 68.5549 27.2995C68.3104 28.0562 68.066 28.8116 67.8215 29.5655C68.3054 29.3398 68.7236 28.9943 69.0365 28.5617C69.3494 28.1291 69.5467 27.6237 69.6096 27.0935C69.7662 25.6309 67.9616 22.4977 66.5196 24.7204Z" fill="#263238"/>
<path d="M62.3131 24.821C62.1752 24.9742 62.0769 25.1588 62.0267 25.3587C62.0026 25.4577 62.0094 25.5617 62.0463 25.6568C62.0831 25.7518 62.1482 25.8332 62.2327 25.8901C62.3888 25.953 62.5614 25.9617 62.723 25.9149L64.371 25.6285C65.3145 25.4637 66.258 25.301 67.1891 25.0764C67.6011 24.9776 68.0769 24.8189 68.2417 24.4234C68.7753 23.1359 66.4969 22.9691 65.7347 23.0041C64.4369 23.0721 63.1247 23.8178 62.3131 24.821Z" fill="#263238"/>
<path d="M68.3077 26.9699C67.768 27.0914 67.5372 27.868 67.5517 28.3666C67.5517 28.9331 67.9637 29.3018 68.4416 28.9598C68.7965 28.696 69.038 28.3072 69.1173 27.8722C69.2141 27.3386 68.8495 26.8483 68.3077 26.9699Z" fill="#FFC3BD"/>
<path d="M64.4946 28.9372C64.4128 28.9917 64.32 29.0275 64.2228 29.0421C64.1256 29.0567 64.0264 29.0497 63.9322 29.0217C64.1382 28.5561 64.1135 28.6612 64.1773 27.8701L64.4946 28.9372Z" fill="#ED847E"/>
<path d="M65.4443 26.3684C65.2898 26.1954 64.8675 26.1295 64.6388 26.1624C64.6157 26.1654 64.5923 26.1594 64.5735 26.1456C64.5547 26.1318 64.5419 26.1112 64.5379 26.0883C64.5348 26.0635 64.5411 26.0386 64.5556 26.0183C64.5701 25.9981 64.5918 25.9841 64.6162 25.9791C64.9046 25.9358 65.3845 26.0223 65.5802 26.2386C65.5972 26.256 65.6067 26.2793 65.6067 26.3035C65.6067 26.3278 65.5972 26.3511 65.5802 26.3684C65.5687 26.3804 65.5546 26.3895 65.539 26.3952C65.5223 26.4003 65.5045 26.4005 65.4877 26.3958C65.4709 26.391 65.4558 26.3815 65.4443 26.3684Z" fill="#263238"/>
<path d="M62.7787 26.7537C62.7593 26.7404 62.7459 26.72 62.7413 26.6969C62.7367 26.6739 62.7412 26.6499 62.754 26.6301C62.8261 26.5001 62.9275 26.3887 63.0501 26.3047C63.1728 26.2207 63.3133 26.1664 63.4605 26.146C63.4718 26.1457 63.483 26.1477 63.4935 26.1518C63.504 26.156 63.5135 26.1622 63.5216 26.17C63.5297 26.1779 63.5361 26.1873 63.5404 26.1977C63.5448 26.2081 63.5471 26.2192 63.5471 26.2305C63.5482 26.2555 63.5396 26.28 63.5231 26.2988C63.5066 26.3176 63.4834 26.3293 63.4585 26.3314C63.3423 26.35 63.2319 26.3946 63.1356 26.4621C63.0392 26.5295 62.9595 26.618 62.9023 26.7208C62.8948 26.7342 62.8841 26.7455 62.8712 26.7538C62.8582 26.7621 62.8434 26.767 62.8281 26.7681C62.8104 26.7696 62.7928 26.7644 62.7787 26.7537Z" fill="#263238"/>
<path d="M64.336 29.7756C64.5341 30.0277 64.7164 30.2919 64.8819 30.5666L65.0096 30.513C65.5905 30.2617 65.7553 29.9115 65.7636 29.6005C65.7565 29.353 65.6802 29.1125 65.5432 28.9062C65.3372 29.2626 64.816 29.5469 64.5317 29.6849C64.4102 29.7447 64.336 29.7756 64.336 29.7756Z" fill="#2E353A"/>
<path d="M64.5275 29.6849L64.612 29.8003C64.6352 29.8312 64.6681 29.8535 64.7054 29.8636C64.7427 29.8737 64.7824 29.871 64.818 29.8559C65.2465 29.6499 65.5307 29.4439 65.642 29.2111C65.6521 29.1892 65.6574 29.1653 65.6574 29.1411C65.6574 29.1169 65.6521 29.093 65.642 29.071C65.6145 29.0139 65.5828 28.9588 65.5472 28.9062C65.3309 29.2626 64.8118 29.5469 64.5275 29.6849Z" fill="white"/>
<path d="M65.0055 30.5127C65.5864 30.2614 65.7512 29.9112 65.7595 29.6001C65.5388 29.7019 65.3428 29.8502 65.1847 30.0348C65.0759 30.1711 65.0131 30.3384 65.0055 30.5127Z" fill="#DE5753"/>
<path d="M63.4399 27.3979C63.339 27.4165 63.2834 27.5607 63.3122 27.7152C63.3411 27.8697 63.4502 27.9809 63.5512 27.9603C63.6521 27.9397 63.7077 27.7996 63.6789 27.6451C63.6501 27.4906 63.5409 27.3979 63.4399 27.3979Z" fill="#263238"/>
<path d="M65.2073 27.1139C65.1064 27.1324 65.0508 27.2745 65.0796 27.4311C65.1085 27.5877 65.2176 27.6968 65.3186 27.6762C65.4195 27.6556 65.4751 27.5135 65.4463 27.359C65.4175 27.2045 65.3083 27.0953 65.2073 27.1139Z" fill="#263238"/>
<path opacity="0.9" d="M62.6612 28.2344L63.9611 27.9419L63.9837 28.494L62.7745 28.7824L62.6612 28.2344Z" fill="white"/>
<g opacity="0.8">
<path opacity="0.9" d="M64.3567 27.8557L64.5112 28.3624L66.1798 28.004L66.0809 27.4189L64.3567 27.8557Z" fill="white"/>
</g>
<path d="M63.9693 28.1459L63.9611 27.942L64.3566 27.8555L64.4143 28.047L63.9693 28.1459Z" fill="#263238"/>
<path d="M63.4955 49.0529C63.4955 49.0529 65.8418 49.9613 66.3795 50.1385C66.9975 50.3805 67.648 50.5297 68.3097 50.5814C68.6452 50.6039 68.9817 50.5548 69.2967 50.4372C69.6118 50.3197 69.8982 50.1364 70.1369 49.8995C70.6972 49.3021 70.8723 48.3957 71.0186 47.545C71.4471 45.0469 71.8769 42.5488 72.3082 40.0507C72.5142 38.8147 73.0559 36.9607 73.0106 36.2623C72.9262 34.9645 72.1001 33.4319 69.9968 32.5894C69.1728 32.2618 68.3715 32.3834 67.6835 33.2074C67.2715 33.6976 66.0725 34.8801 65.778 36.9627C65.5431 38.6313 65.1764 40.7923 65.1991 42.4877C65.2259 44.7166 64.336 47.5264 63.4955 49.0529Z" fill="#263238"/>
<path d="M72.8953 35.5766C73.1342 37.7478 71.9333 43.2213 71.7025 43.5509C70.7179 46.7253 68.0131 45.0135 67.6217 44.8672C66.9398 44.6159 66.2456 44.1235 65.5967 43.796C64.338 43.178 63.1453 42.6671 61.9752 41.8905L62.6344 40.5886C63.9178 41.0253 67.5496 41.9647 68.149 42.1109C68.4086 42.1789 69.4201 42.7083 69.4098 42.01C69.5519 41.7772 69.7497 37.2431 70.1843 35.6405C70.2339 35.4606 70.3202 35.293 70.4377 35.1481L70.4768 35.0987C70.6355 34.8998 70.8457 34.7484 71.0846 34.6609C71.3235 34.5734 71.5818 34.5532 71.8313 34.6025C72.0809 34.6518 72.3121 34.7688 72.4997 34.9405C72.6874 35.1123 72.8242 35.3323 72.8953 35.5766Z" fill="#263238"/>
<path opacity="0.1" d="M72.8953 35.5766C73.1342 37.7478 71.9333 43.2213 71.7025 43.5509C70.7179 46.7253 68.0131 45.0135 67.6217 44.8672C66.9398 44.6159 66.2456 44.1235 65.5967 43.796C64.338 43.178 63.1453 42.6671 61.9752 41.8905L62.6344 40.5886C63.9178 41.0253 67.5496 41.9647 68.149 42.1109C68.4086 42.1789 69.4201 42.7083 69.4098 42.01C69.5519 41.7772 69.7497 37.2431 70.1843 35.6405C70.2339 35.4606 70.3202 35.293 70.4377 35.1481L70.4768 35.0987C70.6355 34.8998 70.8457 34.7484 71.0846 34.6609C71.3235 34.5734 71.5818 34.5532 71.8313 34.6025C72.0809 34.6518 72.3121 34.7688 72.4997 34.9405C72.6874 35.1123 72.8242 35.3323 72.8953 35.5766Z" fill="white"/>
<path d="M62.1194 43.7751H56.0218L55.3255 35.8193H61.4231L62.1194 43.7751Z" fill="#263238"/>
<path opacity="0.5" d="M62.1194 43.7751H56.0218L55.3255 35.8193H61.4231L62.1194 43.7751Z" fill="white"/>
<path d="M61.9031 43.736H55.8055L55.1093 35.7803H61.2069L61.9031 43.736Z" fill="#683089"/>
<path opacity="0.8" d="M61.9031 43.736H55.8055L55.1093 35.7803H61.2069L61.9031 43.736Z" fill="white"/>
<path d="M59.4847 36.2767H56.92L56.8335 35.2817H59.3961L59.4847 36.2767Z" fill="#683089"/>
<path d="M56.8335 35.2818L57.0848 35.1953H59.7402L59.7772 35.6176L59.5795 35.8463L59.5671 36.1924L59.4847 36.2768L59.3961 35.2818H56.8335Z" fill="#683089"/>
<path opacity="0.5" d="M56.8335 35.2818L57.0848 35.1953H59.7402L59.7772 35.6176L59.5795 35.8463L59.5671 36.1924L59.4847 36.2768L59.3961 35.2818H56.8335Z" fill="black"/>
<path d="M63.1206 41.0187L63.2587 41.7624C62.9291 42.6214 61.04 42.3948 61.04 42.3948V40.1968L62.7066 40.5841C62.8099 40.6093 62.9039 40.6637 62.9773 40.7407C63.0507 40.8178 63.1004 40.9142 63.1206 41.0187Z" fill="#FFC3BD"/>
<path d="M61.0359 40.1968L61.0442 42.3989L59.3714 42.4401L58.9883 40.5037L61.0359 40.1968Z" fill="#FFC3BD"/>
<path d="M67.4054 58.0924L68.0419 48.8224C68.1326 47.5122 68.7712 46.4204 69.657 45.9033C70.2168 45.4554 70.9006 45.1901 71.616 45.1432C71.6913 45.1356 71.767 45.1322 71.8426 45.1329C72.4178 45.1297 72.9846 45.2714 73.4906 45.5449C73.5064 45.5519 73.5215 45.5602 73.5359 45.5696C74.0583 45.8597 74.5067 46.2665 74.8461 46.7583C75.3598 47.5061 75.6329 48.393 75.6289 49.3003C75.6289 51.3603 74.2714 53.0763 72.4895 53.4203L71.7994 63.4484C71.7396 64.3012 71.1814 64.9563 70.5057 64.9563H67.049L67.4054 58.0924Z" fill="#683089"/>
<path opacity="0.1" d="M67.4054 58.0924L68.0419 48.8224C68.1326 47.5122 68.7712 46.4204 69.657 45.9033C70.2168 45.4554 70.9006 45.1901 71.616 45.1432C71.6913 45.1356 71.767 45.1322 71.8426 45.1329C72.4178 45.1297 72.9846 45.2714 73.4906 45.5449C73.5064 45.5519 73.5215 45.5602 73.5359 45.5696C74.0583 45.8597 74.5067 46.2665 74.8461 46.7583C75.3598 47.5061 75.6329 48.393 75.6289 49.3003C75.6289 51.3603 74.2714 53.0763 72.4895 53.4203L71.7994 63.4484C71.7396 64.3012 71.1814 64.9563 70.5057 64.9563H67.049L67.4054 58.0924Z" fill="white"/>
<path d="M35.9698 14.9557V23.5685C35.9698 23.7871 35.883 23.9967 35.7284 24.1512C35.5739 24.3057 35.3643 24.3925 35.1458 24.3925H26.3249L23.1731 26.8295C23.0836 26.8971 22.9771 26.9383 22.8655 26.9485C22.754 26.9588 22.6417 26.9377 22.5415 26.8876C22.4413 26.8374 22.357 26.7603 22.2983 26.6649C22.2395 26.5695 22.2086 26.4595 22.209 26.3475V24.3925H21.7166C21.4981 24.3925 21.2885 24.3057 21.134 24.1512C20.9795 23.9967 20.8926 23.7871 20.8926 23.5685V14.9536C20.8932 14.8463 20.915 14.7402 20.9568 14.6414C20.9986 14.5426 21.0596 14.453 21.1362 14.378C21.2128 14.3029 21.3036 14.2437 21.4032 14.2039C21.5028 14.1641 21.6094 14.1445 21.7166 14.1461H35.1602C35.3749 14.1461 35.5808 14.2314 35.7327 14.3832C35.8845 14.535 35.9698 14.741 35.9698 14.9557V14.9557Z" stroke="#683089" stroke-miterlimit="10"/>
<path d="M27.7091 12.9326H26.0261V13.1386H27.7091V12.9326Z" fill="#683089"/>
<path d="M19.84 15.3594H19.634V14.3438C19.6346 13.9688 19.7839 13.6094 20.0493 13.3444C20.3146 13.0795 20.6743 12.9307 21.0493 12.9307H24.8046V13.1367H21.0451C20.725 13.1372 20.418 13.2645 20.1914 13.4907C19.9648 13.7169 19.837 14.0236 19.8359 14.3438L19.84 15.3594Z" fill="#683089"/>
<path d="M31.7405 20.456C31.651 20.4565 31.5623 20.4385 31.4801 20.4031C31.3979 20.3677 31.3239 20.3156 31.2627 20.2503C31.2016 20.1849 31.1546 20.1075 31.1248 20.0231C31.095 19.9387 31.083 19.849 31.0896 19.7597C31.31 17.2486 33.2999 17.0178 33.5492 14.1627C33.6213 13.3387 33.3205 13.0297 32.7458 13.0297C32.1711 13.0297 31.8167 13.3407 31.7446 14.1627L31.7034 14.6324C31.6849 14.8446 31.5874 15.0421 31.4302 15.1859C31.2731 15.3297 31.0677 15.4093 30.8547 15.409C30.7368 15.4089 30.6202 15.3842 30.5123 15.3367C30.4045 15.2891 30.3076 15.2196 30.228 15.1327C30.1484 15.0457 30.0878 14.9431 30.0499 14.8315C30.012 14.7198 29.9978 14.6015 30.0081 14.484L30.0266 14.278C30.1873 12.4405 31.1823 11.394 32.9394 11.394C34.6966 11.394 35.5062 12.4446 35.3455 14.278C35.0839 17.2547 32.9106 17.7162 32.7252 19.8153C32.7262 19.8256 32.7262 19.8359 32.7252 19.8462C32.7158 20.0127 32.6432 20.1694 32.5222 20.2842C32.4012 20.3991 32.241 20.4634 32.0742 20.4642L31.7405 20.456ZM32.6325 22.2029C32.6139 22.4189 32.5149 22.6201 32.3551 22.7666C32.1952 22.913 31.9862 22.9942 31.7694 22.9939C31.6492 22.9941 31.5303 22.9692 31.4203 22.9209C31.3103 22.8726 31.2115 22.802 31.1303 22.7134C31.0491 22.6248 30.9873 22.5203 30.9487 22.4065C30.9101 22.2928 30.8956 22.1722 30.9062 22.0525C30.9248 21.8361 31.0241 21.6346 31.1844 21.4881C31.3447 21.3416 31.5542 21.2606 31.7714 21.2614C31.8913 21.2619 32.0098 21.2871 32.1194 21.3357C32.2291 21.3842 32.3274 21.4549 32.4084 21.5434C32.4893 21.6318 32.551 21.7361 32.5895 21.8496C32.6281 21.9631 32.6428 22.0834 32.6325 22.2029Z" fill="#683089"/>
<path d="M29.419 18.4392H24.681C24.5718 18.4392 24.467 18.3958 24.3897 18.3186C24.3124 18.2413 24.269 18.1365 24.269 18.0272C24.269 17.918 24.3124 17.8132 24.3897 17.7359C24.467 17.6586 24.5718 17.6152 24.681 17.6152H29.419C29.5283 17.6152 29.6331 17.6586 29.7104 17.7359C29.7876 17.8132 29.831 17.918 29.831 18.0272C29.831 18.1365 29.7876 18.2413 29.7104 18.3186C29.6331 18.3958 29.5283 18.4392 29.419 18.4392Z" fill="#683089"/>
<path d="M28.764 20.0706H24.6893C24.58 20.0706 24.4752 20.0272 24.398 19.9499C24.3207 19.8726 24.2773 19.7679 24.2773 19.6586C24.2773 19.5493 24.3207 19.4445 24.398 19.3673C24.4752 19.29 24.58 19.2466 24.6893 19.2466H28.764C28.8732 19.2466 28.978 19.29 29.0553 19.3673C29.1326 19.4445 29.176 19.5493 29.176 19.6586C29.176 19.7679 29.1326 19.8726 29.0553 19.9499C28.978 20.0272 28.8732 20.0706 28.764 20.0706Z" fill="#683089"/>
<path d="M28.1089 21.7H24.6893C24.58 21.7 24.4752 21.6566 24.398 21.5793C24.3207 21.502 24.2773 21.3972 24.2773 21.288C24.2773 21.1787 24.3207 21.0739 24.398 20.9966C24.4752 20.9194 24.58 20.876 24.6893 20.876H28.1089C28.2182 20.876 28.3229 20.9194 28.4002 20.9966C28.4775 21.0739 28.5209 21.1787 28.5209 21.288C28.5209 21.3972 28.4775 21.502 28.4002 21.5793C28.3229 21.6566 28.2182 21.7 28.1089 21.7Z" fill="#683089"/>
<path d="M18.4146 55.313H15.4049C14.6716 55.313 14.0783 55.7765 14.0783 56.343V58.1228C14.0783 58.6955 14.6716 59.1528 15.4049 59.1528H18.4146V55.313Z" fill="#683089"/>
<path d="M4.42724 63.6953L3.38076 47.0381C3.28874 45.5734 3.49779 44.1054 3.99502 42.7247C4.49224 41.3439 5.2671 40.0797 6.27179 39.0099C7.27648 37.9402 8.48969 37.0876 9.83658 36.5049C11.1835 35.9221 12.6355 35.6215 14.1031 35.6216C16.8481 35.6214 19.489 36.6719 21.484 38.5573C23.4791 40.4428 24.6768 43.0203 24.8315 45.7609L25.9275 65.2155H6.03816C5.6269 65.2137 5.23169 65.0557 4.93259 64.7734C4.63349 64.4911 4.45284 64.1057 4.42724 63.6953Z" fill="#683089"/>
<path opacity="0.4" d="M4.39016 63.0917L3.38076 47.0381C3.28874 45.5734 3.49779 44.1054 3.99502 42.7247C4.49224 41.3439 5.2671 40.0797 6.27179 39.0099C7.27648 37.9402 8.48969 37.0876 9.83658 36.5049C11.1835 35.9221 12.6355 35.6215 14.1031 35.6216C16.8481 35.6214 19.489 36.6719 21.484 38.5573C23.4791 40.4428 24.6768 43.0203 24.8315 45.7609L25.9275 65.2155H6.65616C6.07901 65.2167 5.52318 64.9975 5.10209 64.6029C4.68099 64.2082 4.42636 63.6677 4.39016 63.0917Z" fill="black"/>
<path d="M7.6531 65.2155L6.51186 47.0381C6.41983 45.5733 6.62894 44.1051 7.12629 42.7242C7.62364 41.3433 8.39869 40.0789 9.4036 39.0092C10.4085 37.9394 11.622 37.0869 12.9691 36.5043C14.3162 35.9216 15.7685 35.6212 17.2362 35.6216C19.9809 35.622 22.6213 36.6726 24.6159 38.558C26.6105 40.4434 27.8079 43.0206 27.9626 45.7609L29.0606 65.2155H7.6531Z" fill="#683089"/>
<path d="M7.31113 68.3445H7.03715C6.96301 68.3397 6.89292 68.309 6.83908 68.2578C6.78525 68.2066 6.75109 68.1381 6.74257 68.0643L6.33057 65.2153H8.00123L7.58923 68.0643C7.58207 68.1358 7.55053 68.2027 7.49989 68.2537C7.44925 68.3048 7.3826 68.3368 7.31113 68.3445Z" fill="#683089"/>
<path opacity="0.7" d="M7.31113 68.3445H7.03715C6.96301 68.3397 6.89292 68.309 6.83908 68.2578C6.78525 68.2066 6.75109 68.1381 6.74257 68.0643L6.33057 65.2153H8.00123L7.58923 68.0643C7.58207 68.1358 7.55053 68.2027 7.49989 68.2537C7.44925 68.3048 7.3826 68.3368 7.31113 68.3445Z" fill="white"/>
<path d="M34.2251 68.3445H33.9758C33.9055 68.3368 33.8402 68.3044 33.7916 68.2531C33.7429 68.2018 33.714 68.1349 33.7101 68.0643L33.3434 65.2153H34.8575L34.4908 68.0643C34.4868 68.1349 34.4579 68.2018 34.4093 68.2531C34.3606 68.3044 34.2954 68.3368 34.2251 68.3445Z" fill="#683089"/>
<path opacity="0.5" d="M34.2251 68.3445H33.9758C33.9055 68.3368 33.8402 68.3044 33.7916 68.2531C33.7429 68.2018 33.714 68.1349 33.7101 68.0643L33.3434 65.2153H34.8575L34.4908 68.0643C34.4868 68.1349 34.4579 68.2018 34.4093 68.2531C34.3606 68.3044 34.2954 68.3368 34.2251 68.3445Z" fill="white"/>
<path d="M26.4774 68.3445H26.2261C26.1558 68.3368 26.0905 68.3044 26.0419 68.2531C25.9932 68.2018 25.9643 68.1349 25.9604 68.0643L25.5916 65.2153H27.1078L26.7411 68.0643C26.7368 68.1345 26.7081 68.2009 26.6599 68.2521C26.6117 68.3032 26.5472 68.3359 26.4774 68.3445Z" fill="#683089"/>
<path opacity="0.7" d="M26.4774 68.3445H26.2261C26.1558 68.3368 26.0905 68.3044 26.0419 68.2531C25.9932 68.2018 25.9643 68.1349 25.9604 68.0643L25.5916 65.2153H27.1078L26.7411 68.0643C26.7368 68.1345 26.7081 68.2009 26.6599 68.2521C26.6117 68.3032 26.5472 68.3359 26.4774 68.3445Z" fill="white"/>
<path d="M15.6542 68.3445H15.3802C15.306 68.3401 15.2356 68.3095 15.1817 68.2582C15.1278 68.207 15.0938 68.1383 15.0856 68.0643L14.6736 65.2153H16.3443L15.9323 68.0643C15.9252 68.1358 15.8936 68.2027 15.843 68.2537C15.7923 68.3048 15.7257 68.3368 15.6542 68.3445Z" fill="#683089"/>
<path opacity="0.5" d="M15.6542 68.3445H15.3802C15.306 68.3401 15.2356 68.3095 15.1817 68.2582C15.1278 68.207 15.0938 68.1383 15.0856 68.0643L14.6736 65.2153H16.3443L15.9323 68.0643C15.9252 68.1358 15.8936 68.2027 15.843 68.2537C15.7923 68.3048 15.7257 68.3368 15.6542 68.3445Z" fill="white"/>
<path d="M24.7244 58.3495H32.0497L32.5338 51.294L32.6368 49.7779L32.6863 49.0795C32.6989 48.8964 32.7223 48.7141 32.7563 48.5336C32.7563 48.4945 32.7748 48.4533 32.7831 48.4142C32.7875 48.3839 32.7951 48.3542 32.8057 48.3256C33.0032 47.6065 33.3877 46.9525 33.9202 46.4304C34.534 45.8237 35.3457 45.4581 36.2068 45.4004H29.3161C29.2399 45.4004 29.1657 45.4004 29.0895 45.4004C28.1548 45.4051 27.2589 45.7747 26.5928 46.4304C26.0603 46.9525 25.6758 47.6065 25.4783 48.3256C25.4676 48.3542 25.4601 48.3839 25.4557 48.4142C25.4073 48.6333 25.3749 48.8557 25.3588 49.0795L25.3115 49.7779L24.7244 58.3495Z" fill="#683089"/>
<path opacity="0.1" d="M24.7244 58.3495H32.0497L32.5338 51.294L32.6368 49.7779L32.6863 49.0795C32.6989 48.8964 32.7223 48.7141 32.7563 48.5336C32.7563 48.4945 32.7748 48.4533 32.7831 48.4142C32.7875 48.3839 32.7951 48.3542 32.8057 48.3256C33.0032 47.6065 33.3877 46.9525 33.9202 46.4304C34.534 45.8237 35.3457 45.4581 36.2068 45.4004H29.3161C29.2399 45.4004 29.1657 45.4004 29.0895 45.4004C28.1548 45.4051 27.2589 45.7747 26.5928 46.4304C26.0603 46.9525 25.6758 47.6065 25.4783 48.3256C25.4676 48.3542 25.4601 48.3839 25.4557 48.4142C25.4073 48.6333 25.3749 48.8557 25.3588 49.0795L25.3115 49.7779L24.7244 58.3495Z" fill="black"/>
<g opacity="0.1">
<path d="M18.9192 54.5898H15.9755C15.2607 54.5898 14.6818 55.043 14.6818 55.6013V57.342C14.6818 57.9003 15.2607 58.3535 15.9755 58.3535H18.9192V54.5898Z" fill="black"/>
</g>
<path d="M30.9311 54.5879H17.9737C17.3571 54.5879 16.8572 55.0878 16.8572 55.7044V57.235C16.8572 57.8516 17.3571 58.3515 17.9737 58.3515H30.9311C31.5477 58.3515 32.0476 57.8516 32.0476 57.235V55.7044C32.0476 55.0878 31.5477 54.5879 30.9311 54.5879Z" fill="#683089"/>
<path d="M0.373114 49.5572C0.371369 50.5422 0.718016 51.496 1.35174 52.25C1.98546 53.004 2.86542 53.5095 3.83597 53.6772L4.59611 63.7074C4.66203 64.5602 5.28003 65.2153 6.02163 65.2153H14.103C13.3614 65.2153 12.7434 64.5602 12.6775 63.7074L12.2655 58.3514L11.9112 53.6731C11.2771 53.5622 10.6774 53.306 10.1588 52.9247C9.64027 52.5434 9.21699 52.0472 8.92211 51.4751C8.88297 51.4009 8.84795 51.3247 8.81499 51.2485C8.576 50.7168 8.4531 50.1402 8.45449 49.5572C8.45456 49.2707 8.48425 48.9849 8.54307 48.7044C8.56573 48.5932 8.59457 48.4819 8.62341 48.3748C8.77124 47.8836 9.0064 47.423 9.31763 47.0152C9.70264 46.5154 10.1956 46.1091 10.7596 45.8266C11.3349 45.5373 11.9697 45.3864 12.6136 45.3857H4.54667C4.12758 45.3855 3.71085 45.4487 3.31067 45.5732C2.48653 45.8274 1.76167 46.3313 1.23625 47.0152C0.675743 47.744 0.372244 48.6378 0.373114 49.5572Z" fill="#683089"/>
<path opacity="0.3" d="M0.373114 49.5572C0.371369 50.5422 0.718016 51.496 1.35174 52.25C1.98546 53.004 2.86542 53.5095 3.83597 53.6772L4.59611 63.7074C4.66203 64.5602 5.28003 65.2153 6.02163 65.2153H14.103C13.3614 65.2153 12.7434 64.5602 12.6775 63.7074L12.2655 58.3514L11.9112 53.6731C11.2771 53.5622 10.6774 53.306 10.1588 52.9247C9.64027 52.5434 9.21699 52.0472 8.92211 51.4751C8.88297 51.4009 8.84795 51.3247 8.81499 51.2485C8.576 50.7168 8.4531 50.1402 8.45449 49.5572C8.45456 49.2707 8.48425 48.9849 8.54307 48.7044C8.56573 48.5932 8.59457 48.4819 8.62341 48.3748C8.77124 47.8836 9.0064 47.423 9.31763 47.0152C9.70264 46.5154 10.1956 46.1091 10.7596 45.8266C11.3349 45.5373 11.9697 45.3864 12.6136 45.3857H4.54667C4.12758 45.3855 3.71085 45.4487 3.31067 45.5732C2.48653 45.8274 1.76167 46.3313 1.23625 47.0152C0.675743 47.744 0.372244 48.6378 0.373114 49.5572Z" fill="black"/>
<path d="M8.45246 49.5574C8.45246 51.6174 9.81 53.3354 11.5919 53.6774L12.2799 63.7158C12.3397 64.5707 12.8979 65.2237 13.5736 65.2237H35.1501C35.8216 65.2237 36.3861 64.5707 36.4437 63.7158L37.1338 53.663C38.8787 53.2963 40.1991 51.603 40.1991 49.5656C40.2039 48.7113 39.9621 47.8738 39.5028 47.1534C39.1539 46.6043 38.6739 46.1506 38.1062 45.8329C37.5899 45.5444 37.0084 45.3926 36.417 45.3921C35.4822 45.3963 34.5861 45.766 33.9202 46.4221C33.3874 46.9443 33.0022 47.5981 32.8037 48.3173C32.7947 48.3463 32.7878 48.3759 32.7831 48.4059C32.7337 48.6248 32.7014 48.8473 32.6863 49.0712L32.6369 49.7696L32.0498 58.3474H16.6739L16.0374 49.0774C15.9447 47.7673 15.3081 46.6755 14.4223 46.1584C13.8616 45.7121 13.1783 45.447 12.4633 45.3983C12.3871 45.3983 12.3129 45.3983 12.2367 45.3983C11.6615 45.3951 11.0947 45.5368 10.5887 45.8103C10.5721 45.8161 10.5562 45.8237 10.5413 45.8329C10.0201 46.1247 9.57214 46.5312 9.23114 47.0216C8.71931 47.7678 8.44763 48.6525 8.45246 49.5574Z" fill="#683089"/>
<path opacity="0.1" d="M17.0282 65.2154H35.1562C35.8278 65.2154 36.3922 64.5624 36.4499 63.7075L37.14 53.6547C38.8848 53.288 40.2053 51.5947 40.2053 49.5574C40.21 48.703 39.9683 47.8655 39.509 47.1451C39.16 46.596 38.6801 46.1423 38.1123 45.8246C37.596 45.5361 37.0145 45.3843 36.4231 45.3838C35.4883 45.388 34.5923 45.7577 33.9264 46.4138C33.3936 46.936 33.0084 47.5898 32.8099 48.309C32.8008 48.338 32.794 48.3676 32.7893 48.3976C32.7399 48.6165 32.7075 48.839 32.6924 49.063L32.643 49.7613L32.0559 58.3391H16.6739L17.0282 65.2154Z" fill="white"/>
<path d="M22.5449 68.7607L24.302 69.2468L25.88 65.1165L24.1228 64.6304L22.5449 68.7607Z" fill="#FFC3BD"/>
<path d="M25.089 68.6989C24.9503 68.5192 24.7499 68.3974 24.5266 68.3569L22.7241 68.0047C22.682 67.9925 22.6368 67.9973 22.5983 68.0181C22.5598 68.0389 22.5309 68.074 22.5181 68.1159L21.9598 69.7639C21.9438 69.8087 21.9369 69.8561 21.9393 69.9036C21.9418 69.9511 21.9536 69.9976 21.974 70.0405C21.9945 70.0834 22.0233 70.1218 22.0587 70.1535C22.0941 70.1852 22.1354 70.2096 22.1802 70.2253H22.1926C22.86 70.489 23.3112 70.3984 24.3535 70.6003C24.9983 70.7239 26.3476 71.1523 27.2499 71.1153C28.1522 71.0782 28.1501 70.1862 27.7711 70.1203C26.4321 69.9143 25.4021 69.1068 25.089 68.6989Z" fill="#263238"/>
<g opacity="0.2">
<path d="M25.88 65.1186L25.0663 67.2486L23.3091 66.7584L24.1207 64.6304L25.88 65.1186Z" fill="black"/>
</g>
<path d="M20.0152 49.4399C20.0152 49.4399 30.5954 49.3822 30.2658 52.9254C30.0433 55.3191 28.8938 57.8344 27.9998 60.2631C26.6999 63.7836 25.5731 66.8551 25.5731 66.8551L23.1629 66.0208C23.1629 66.0208 25.328 55.8403 26.7865 54.7979H17.8399C14.8797 54.7979 13.6004 51.5472 16.4823 47.7568C18.2436 47.763 20.0152 49.4399 20.0152 49.4399Z" fill="#683089"/>
<path opacity="0.6" d="M20.0152 49.4401C20.0152 49.4401 30.5954 49.3824 30.2658 52.9256C30.4285 55.1277 25.5711 66.8512 25.5711 66.8512L23.1609 66.0169C23.1609 66.0169 25.3259 55.8364 26.7844 54.794H17.8399C14.8797 54.794 13.6004 51.5433 16.4823 47.7529C18.2436 47.7632 20.0152 49.4401 20.0152 49.4401Z" fill="black"/>
<path d="M27.4764 43.0068C26.1745 44.1954 23.6181 41.3815 23.2061 41.0478C22.3244 40.3268 19.7329 37.9083 19.8689 37.0678C20.2809 34.5958 24.3349 38.0978 25.5071 40.5122L27.4764 43.0068Z" fill="#263238"/>
<path d="M16.0827 35.5683C15.4297 35.7063 14.7231 35.4715 14.2637 35.9556C13.8043 36.4397 13.6127 37.1195 13.5468 37.7828C13.4888 38.7095 13.5372 39.6398 13.691 40.5555C13.8283 41.6721 13.9719 42.7879 14.1216 43.903C14.2144 44.8215 14.1791 45.7485 14.0165 46.6573C13.9993 46.7538 14.0147 46.8533 14.0602 46.9402C14.1057 47.027 14.1787 47.0963 14.2678 47.1372C14.2678 47.1372 19.3334 47.3103 20.8063 47.2547C21.5891 47.2258 21.0514 45.1658 21.2924 43.9587C21.346 43.6909 21.8692 42.5908 21.9475 42.3107C22.3101 40.982 22.069 40.0673 21.7415 38.7324C21.4964 37.7622 21.3954 36.3634 20.901 36.2604C20.0111 36.0771 17.8996 35.181 16.0827 35.5683Z" fill="#683089"/>
<path opacity="0.8" d="M16.0827 35.5683C15.4297 35.7063 14.7231 35.4715 14.2637 35.9556C13.8043 36.4397 13.6127 37.1195 13.5468 37.7828C13.4888 38.7095 13.5372 39.6398 13.691 40.5555C13.8283 41.6721 13.9719 42.7879 14.1216 43.903C14.2144 44.8215 14.1791 45.7485 14.0165 46.6573C13.9993 46.7538 14.0147 46.8533 14.0602 46.9402C14.1057 47.027 14.1787 47.0963 14.2678 47.1372C14.2678 47.1372 19.3334 47.3103 20.8063 47.2547C21.5891 47.2258 21.0514 45.1658 21.2924 43.9587C21.346 43.6909 21.8692 42.5908 21.9475 42.3107C22.3101 40.982 22.069 40.0673 21.7415 38.7324C21.4964 37.7622 21.3954 36.3634 20.901 36.2604C20.0111 36.0771 17.8996 35.181 16.0827 35.5683Z" fill="white"/>
<path d="M15.3596 36.5199C15.2916 36.4169 13.5056 34.9173 13.1863 36.6497C12.7352 39.062 13.6683 41.4351 13.6683 41.4351C13.6683 41.4351 13.8743 44.0451 14.6407 44.3067C15.407 44.5683 16.1197 44.6322 16.3752 44.1852C16.5404 43.8367 16.6275 43.4564 16.6306 43.0707C16.6306 43.0707 16.5441 38.3163 15.3596 36.5199Z" fill="#263238"/>
<path d="M16.5936 32.2578C16.777 33.3682 16.9315 35.3973 16.1384 36.1121C16.1384 36.1121 18.0768 37.1277 19.3499 38.8993C19.6326 38.6883 19.8416 38.3936 19.9474 38.0571C20.0531 37.7207 20.0502 37.3594 19.9391 37.0247C19.8752 36.8134 19.7693 36.6173 19.6277 36.4481C19.4861 36.2789 19.3117 36.14 19.1151 36.04C18.3632 35.628 18.4353 34.8493 18.6413 34.1201L16.5936 32.2578Z" fill="#E8BFBF"/>
<path opacity="0.2" d="M16.8469 34.1426L17.5699 34.4207C17.8795 34.5403 18.2107 34.5937 18.5422 34.5772C18.4907 34.8037 18.4907 35.0388 18.5422 35.2653C18.283 35.3362 18.0088 35.3303 17.7528 35.2484C17.4968 35.1665 17.2702 35.0121 17.1002 34.8038C16.9834 34.5972 16.898 34.3744 16.8469 34.1426Z" fill="black"/>
<path d="M34.7957 65.2093H36.765L34.703 60.2715L33.3681 62.5375L34.7957 65.2093Z" fill="#FFC3BD"/>
<path d="M36.6023 64.7416L34.293 64.2163C34.2534 64.2064 34.2116 64.2117 34.1757 64.2311C34.1398 64.2506 34.1126 64.2828 34.0994 64.3214L33.4546 66.0971C33.4417 66.1419 33.4377 66.1888 33.443 66.2351C33.4482 66.2814 33.4625 66.3262 33.4851 66.3669C33.5077 66.4077 33.5381 66.4436 33.5746 66.4726C33.611 66.5016 33.6529 66.5231 33.6977 66.5359C34.5072 66.7048 34.9048 66.7419 35.9204 66.9747C36.5384 67.1168 38.1287 67.5329 38.9919 67.7286C39.855 67.9243 40.0816 67.0797 39.7376 66.9191C38.1967 66.2063 37.3624 65.5244 36.9154 64.9435C36.8373 64.8422 36.7267 64.7709 36.6023 64.7416Z" fill="#263238"/>
<g opacity="0.2">
<path d="M34.703 60.2715L35.5805 62.3747L33.8089 63.3635L33.3681 62.5395L34.703 60.2715Z" fill="black"/>
</g>
<path d="M13.9774 47.1597L13.7714 47.8313C13.7446 47.8828 13.8043 47.9363 13.8908 47.9405L21.5128 48.1712C21.5829 48.1712 21.6385 48.1423 21.6447 48.0991L21.7333 47.4234C21.7333 47.3781 21.6797 47.3369 21.6076 47.3328L14.1092 47.1062C14.0844 47.1023 14.0591 47.1052 14.0358 47.1146C14.0126 47.1241 13.9924 47.1397 13.9774 47.1597Z" fill="#263238"/>
<path d="M23.511 52.6705C21.004 53.7396 18.2848 54.8067 16.8057 54.8067C13.8434 54.8067 11.2128 52.6684 14.0164 47.8027C15.7798 47.8027 18.843 47.8521 18.843 47.8521C18.843 47.8521 24.611 46.2041 28.8093 46.6903C29.8041 46.8064 30.7366 47.2348 31.4727 47.914C32.2089 48.5931 32.7109 49.4881 32.9066 50.4704C33.9696 55.8264 35.6073 61.6191 35.6073 61.6191L33.4999 63.0611C33.4999 63.0611 30.2142 56.1539 28.3231 50.6764C27.322 50.9916 25.4824 51.83 23.511 52.6705Z" fill="#683089"/>
<path opacity="0.5" d="M32.9066 50.4702C32.7116 49.4871 32.21 48.5912 31.4738 47.9113C30.7376 47.2313 29.8047 46.8023 28.8093 46.6859C24.6192 46.208 18.843 47.8478 18.843 47.8478C18.843 47.8478 15.7798 47.7922 14.0164 47.7983C11.1674 52.6435 13.8434 54.8023 16.8057 54.8023C18.2847 54.8023 21.0039 53.7353 23.511 52.6661C25.4824 51.8256 27.322 50.9872 28.3231 50.6659C30.2142 56.1496 33.4999 63.0588 33.4999 63.0588L35.6073 61.6168C35.6073 61.6168 33.9696 55.8262 32.9066 50.4702Z" fill="black"/>
<path d="M30.2657 52.9422C30.1987 53.6303 30.0956 54.3145 29.9567 54.9919C29.9464 54.9692 29.9382 54.9486 29.9299 54.9259C29.9217 54.9033 29.9299 54.9156 29.9299 54.9095C29.9231 54.8867 29.9142 54.8646 29.9031 54.8435C29.3428 53.451 28.7949 52.0234 28.3314 50.6782H28.3458C29.5447 51.187 30.3625 51.9122 30.2657 52.9422Z" fill="#683089"/>
<path opacity="0.6" d="M30.2657 52.9422C30.1987 53.6303 30.0956 54.3145 29.9567 54.9919C29.9464 54.9692 29.9382 54.9486 29.9299 54.9259C29.9217 54.9033 29.9299 54.9156 29.9299 54.9095C29.9231 54.8867 29.9142 54.8646 29.9031 54.8435C29.3428 53.451 28.7949 52.0234 28.3314 50.6782H28.3458C29.5447 51.187 30.3625 51.9122 30.2657 52.9422Z" fill="black"/>
<path d="M15.2422 31.1904C15.8602 32.9311 16.0868 33.681 17.2445 34.334C18.9893 35.3187 20.9875 34.1733 20.901 32.274C20.8227 30.5745 19.8236 28.0118 17.8872 27.8058C17.46 27.7578 17.0276 27.8198 16.6312 27.9861C16.2347 28.1524 15.8874 28.4173 15.6223 28.7557C15.3572 29.0941 15.1831 29.4948 15.1165 29.9195C15.05 30.3442 15.0933 30.7789 15.2422 31.1822V31.1904Z" fill="#E8BFBF"/>
<path d="M18.3712 30.9637C18.4145 31.1141 18.5237 31.2027 18.6184 31.1697C18.7132 31.1368 18.7503 31.0049 18.7132 30.8587C18.6761 30.7124 18.5628 30.6197 18.466 30.6527C18.3692 30.6856 18.33 30.8195 18.3712 30.9637Z" fill="#263238"/>
<path d="M19.9884 30.453C20.0316 30.6054 20.1408 30.694 20.2356 30.659C20.3303 30.6239 20.3674 30.4942 20.3303 30.3479C20.2933 30.2017 20.1779 30.109 20.0852 30.1419C19.9925 30.1749 19.9472 30.3108 19.9884 30.453Z" fill="#263238"/>
<path d="M20.0461 30.165L20.3633 29.959C20.3633 29.959 20.2624 30.2824 20.0461 30.165Z" fill="#263238"/>
<path d="M19.4096 30.7827C19.6325 31.0753 19.8945 31.3359 20.1883 31.5573C20.1293 31.6302 20.055 31.6892 19.9706 31.7302C19.8862 31.7711 19.7938 31.793 19.7001 31.7942L19.4096 30.7827Z" fill="#ED847E"/>
<path d="M14.1051 32.3422C14.2316 32.6556 14.3275 32.9806 14.3914 33.3125C14.4089 33.6463 14.3016 33.9746 14.0902 34.2336C13.8789 34.4926 13.5787 34.6636 13.2481 34.7133C13.536 34.79 13.8415 34.7648 14.1129 34.642C14.3843 34.5193 14.605 34.3065 14.7375 34.0396C14.58 34.459 14.2683 34.8024 13.8661 34.9996C14.1536 35.0027 14.4379 34.9395 14.6969 34.8148C14.956 34.6901 15.1828 34.5073 15.3596 34.2807C15.2628 34.532 15.1536 34.7812 15.0671 35.0326C15.5562 34.7363 15.9579 34.3155 16.231 33.813C16.3402 33.607 16.4226 33.3392 16.2784 33.158C16.1342 32.9767 15.9055 32.989 15.6954 32.9849C15.4853 32.9808 15.2319 32.9314 15.1557 32.7357C15.0794 32.54 15.2195 32.3443 15.372 32.2104C15.5244 32.0765 15.7077 31.9529 15.7634 31.7572C15.7897 31.6155 15.7798 31.4695 15.7345 31.3328C15.6398 30.9538 15.5464 30.574 15.4544 30.1936C15.4294 30.0593 15.3813 29.9304 15.3122 29.8125C14.9002 29.1945 14.4408 30.1009 14.2822 30.4079C13.9853 31.0084 13.9222 31.6978 14.1051 32.3422Z" fill="#263238"/>
<path d="M15.1206 32.8961C15.3539 33.1993 15.6973 33.3984 16.0764 33.4502C16.5811 33.512 16.7583 33.0382 16.5564 32.6077C16.3731 32.2121 15.891 31.7074 15.4152 31.8413C14.9393 31.9752 14.8363 32.517 15.1206 32.8961Z" fill="#E8BFBF"/>
<path d="M18.3981 29.7194C18.3948 29.7386 18.3857 29.7564 18.3721 29.7704C18.3585 29.7843 18.341 29.7939 18.3219 29.7977C17.9099 29.876 17.6709 30.3725 17.6709 30.3766C17.6606 30.399 17.6419 30.4166 17.6188 30.4254C17.5957 30.4343 17.57 30.4338 17.5473 30.424C17.5254 30.4137 17.5083 30.3952 17.4999 30.3724C17.4914 30.3497 17.4922 30.3246 17.502 30.3024C17.5205 30.2839 17.776 29.7133 18.2869 29.6144C18.3108 29.6107 18.3353 29.6163 18.3552 29.6301C18.3751 29.6439 18.389 29.6648 18.394 29.6885C18.3984 29.6982 18.3998 29.709 18.3981 29.7194Z" fill="#263238"/>
<path d="M19.4981 29.3079C19.4844 29.3057 19.4703 29.3064 19.4569 29.31C19.4434 29.3135 19.4308 29.3198 19.4199 29.3285C19.3972 29.3532 19.321 29.3964 19.3642 29.4191C19.6156 29.5468 19.9637 29.7569 20.2315 29.7137C20.2768 29.7137 20.3839 29.6663 20.3613 29.6333C20.3458 29.6167 20.3263 29.6044 20.3046 29.5975C20.283 29.5907 20.2599 29.5895 20.2377 29.5942C20.0317 29.623 19.7412 29.4232 19.5435 29.3202C19.5289 29.3142 19.5137 29.31 19.4981 29.3079Z" fill="#263238"/>
<path d="M18.4269 30.6733L18.7462 30.4673C18.7462 30.4673 18.6453 30.7948 18.4269 30.6733Z" fill="#263238"/>
<path d="M18.3981 27.044C17.6956 26.9163 17.605 26.8689 16.8922 26.9143C16.1723 26.9368 15.4762 27.1775 14.8961 27.6044C14.3541 28.0523 13.9718 28.6637 13.8063 29.3471C13.6444 30.028 13.6262 30.7352 13.7528 31.4236C13.7755 31.7524 13.9176 32.0616 14.1524 32.2929C14.1763 31.9227 14.2392 31.5561 14.3399 31.1991C14.4449 30.8386 14.6612 30.5207 14.9579 30.2906C15.0888 30.2198 15.2016 30.1197 15.2875 29.9981C15.3321 29.8779 15.3571 29.7513 15.3616 29.6232C15.4262 29.3347 15.5987 29.0819 15.8437 28.9166C16.087 28.7551 16.3475 28.6211 16.6203 28.5169C17.4876 28.1441 18.4331 27.9298 19.2324 27.4272C18.9709 27.2661 18.6907 27.1374 18.3981 27.044Z" fill="#263238"/>
<path d="M14.8034 29.7999C14.9921 30.0289 15.2503 30.1902 15.5388 30.2592C15.8808 30.3375 16.7357 30.3169 16.7872 30.2283C16.8387 30.1398 16.5338 29.1798 16.1877 29.1221C16.4265 29.3526 16.7116 29.5296 17.0241 29.6412C17.3777 29.7119 17.7417 29.7119 18.0953 29.6412C18.2766 29.6 17.8708 28.8502 17.5762 28.636C18.464 28.8214 19.4034 29.0335 20.0482 29.666C20.693 30.2984 20.9711 31.2995 20.9381 32.2327C21.0892 32.111 21.2106 31.9565 21.293 31.7809C21.3755 31.6053 21.4168 31.4132 21.414 31.2192C21.5695 31.7017 21.6265 32.2106 21.5815 32.7156C21.5366 33.2205 21.3906 33.7113 21.1523 34.1588C22.0958 33.3843 22.4481 32.0308 22.2009 30.836C21.9537 29.6412 21.1709 28.6009 20.2212 27.8367C19.3972 27.1837 18.4167 26.6954 17.3722 26.6707C16.0023 26.6295 13.4644 28.1869 14.8034 29.7999Z" fill="#263238"/>
<path d="M15.9137 35.3086C15.9137 35.2406 15.9302 35.15 15.9384 35.0552C15.9564 34.8377 15.893 34.6212 15.7606 34.4476C15.6282 34.2741 15.4361 34.1559 15.2215 34.1158C15.1578 34.1044 15.0983 34.0763 15.0491 34.0343C14.9998 33.9923 14.9626 33.938 14.9414 33.8769C14.7827 33.4154 14.7209 33.2754 14.5685 32.8222C14.1565 32.7212 13.66 32.8757 13.2295 32.921C13.1101 33.438 13.1017 33.9744 13.2048 34.4949C13.2213 34.6113 13.2666 34.7218 13.3366 34.8162C13.7276 35.1365 14.1599 35.4026 14.6221 35.6073C14.9929 35.7206 15.514 35.3436 15.9137 35.3086Z" fill="#E8BFBF"/>
<path d="M14.6654 35.6175C14.6654 35.6175 13.5303 42.9408 14.7004 44.0635C15.3864 44.7186 15.9797 44.356 16.3484 43.9461C16.4836 43.7933 16.5853 43.614 16.647 43.4196C16.7087 43.2251 16.7291 43.02 16.7069 42.8172L15.9096 35.3147C15.9096 35.3147 15.1268 34.8512 14.6654 35.6175Z" fill="#E8BFBF"/>
<path d="M26.8605 42.2299C27.3266 41.8232 27.6608 41.2867 27.8205 40.6891C27.8569 40.4783 27.8707 40.2642 27.8617 40.0504C27.8514 38.7238 27.4765 36.2909 27.4765 36.2909L26.3991 35.9346C26.3991 35.9346 26.0633 37.7886 25.9871 38.8021C25.9727 39.0081 25.95 39.2367 25.9253 39.486C25.8779 39.9392 25.8202 40.4377 25.7687 40.8518L26.8605 42.2299Z" fill="#E8BFBF"/>
<path d="M27.4766 43.0063C27.8082 42.7035 27.8639 42.3368 28.0348 41.5643C28.1976 40.8269 28.0142 39.9163 27.8618 40.0544C27.8428 40.0717 27.8286 40.0937 27.8206 40.1182C27.559 40.7362 26.5413 40.1944 26.2529 39.8854C26.1287 39.7674 26.0194 39.6345 25.9275 39.4899C25.8896 39.4347 25.8694 39.3694 25.8694 39.3025C25.8694 39.2356 25.8896 39.1702 25.9275 39.115C25.6143 38.9852 25.363 40.2171 25.5155 40.5199L25.5937 40.7486C25.7178 41.1196 25.9092 41.4645 26.1582 41.7662L26.7247 42.4481L27.4766 43.0063Z" fill="#263238"/>
<path d="M26.3703 36.0889L26.2426 34.2061C26.5758 34.3646 26.92 34.4989 27.2726 34.6078C27.7958 34.787 28.5086 34.4718 28.3438 34.8138C28.081 35.3225 27.7879 35.8151 27.4662 36.2887L26.3703 36.0889Z" fill="#E8BFBF"/>
<path d="M26.2426 34.2062L27.0501 32.3213L28.1048 32.9661C28.3953 33.5964 28.3602 34.8201 28.3602 34.8201C28.3602 34.8201 26.8935 34.8778 26.2426 34.2062Z" fill="#E8BFBF"/>
<path d="M19.286 32.754C19.3128 32.8879 19.4096 32.9827 19.492 32.96C19.5744 32.9373 19.6259 32.8179 19.597 32.684C19.5682 32.5501 19.4734 32.4553 19.391 32.478C19.3086 32.5006 19.2571 32.6283 19.286 32.754Z" fill="#263238"/>
<path d="M16.6738 58.3496L16.0373 49.0796C15.9446 47.7694 15.308 46.6776 14.4222 46.1606C13.8615 45.7142 13.1782 45.4491 12.4632 45.4004C12.387 45.4004 12.3128 45.4004 12.2366 45.4004C11.6614 45.3972 11.0946 45.5389 10.5886 45.8124C10.572 45.8183 10.5561 45.8259 10.5412 45.8351C10.0201 46.1269 9.57205 46.5333 9.23105 47.0237C8.71655 47.7712 8.44336 48.6583 8.44825 49.5658C8.44825 51.6258 9.80579 53.3438 11.5877 53.6858L12.2757 63.7241C12.3355 64.579 12.8937 65.2321 13.5694 65.2321H17.024L16.6738 58.3496Z" fill="#683089"/>
<path opacity="0.1" d="M16.6738 58.3496L16.0373 49.0796C15.9446 47.7694 15.308 46.6776 14.4222 46.1606C13.8615 45.7142 13.1782 45.4491 12.4632 45.4004C12.387 45.4004 12.3128 45.4004 12.2366 45.4004C11.6614 45.3972 11.0946 45.5389 10.5886 45.8124C10.572 45.8183 10.5561 45.8259 10.5412 45.8351C10.0201 46.1269 9.57205 46.5333 9.23105 47.0237C8.71655 47.7712 8.44336 48.6583 8.44825 49.5658C8.44825 51.6258 9.80579 53.3438 11.5877 53.6858L12.2757 63.7241C12.3355 64.579 12.8937 65.2321 13.5694 65.2321H17.024L16.6738 58.3496Z" fill="white"/>
<path d="M41.2971 75.2869C45.1129 75.2869 48.2063 74.4956 48.2063 73.5194C48.2063 72.5433 45.1129 71.752 41.2971 71.752C37.4812 71.752 34.3878 72.5433 34.3878 73.5194C34.3878 74.4956 37.4812 75.2869 41.2971 75.2869Z" fill="#263238"/>
<path opacity="0.3" d="M41.2971 74.6978C45.1129 74.6978 48.2063 74.0383 48.2063 73.2249C48.2063 72.4114 45.1129 71.752 41.2971 71.752C37.4812 71.752 34.3878 72.4114 34.3878 73.2249C34.3878 74.0383 37.4812 74.6978 41.2971 74.6978Z" fill="white"/>
<path d="M41.8677 73.223H40.7265L39.4081 59.0049H43.1861L41.8677 73.223Z" fill="#263238"/>
<path d="M43.1861 59.0047C43.1861 59.4167 42.3415 59.7546 41.2971 59.7546C40.2527 59.7546 39.4081 59.4188 39.4081 59.0047C39.4081 58.5907 40.2547 58.2549 41.2971 58.2549C42.3395 58.2549 43.1861 58.5907 43.1861 59.0047Z" fill="#263238"/>
<path opacity="0.7" d="M43.1861 59.0047C43.1861 59.4167 42.3415 59.7546 41.2971 59.7546C40.2527 59.7546 39.4081 59.4188 39.4081 59.0047C39.4081 58.5907 40.2547 58.2549 41.2971 58.2549C42.3395 58.2549 43.1861 58.5907 43.1861 59.0047Z" fill="white"/>
<path opacity="0.7" d="M18.1921 59.2272C18.1973 59.1421 18.2195 59.0588 18.2573 58.9824C18.2952 58.906 18.348 58.8379 18.4126 58.7822C20.0091 60.389 30.1381 61.6271 42.3951 61.6271C54.6521 61.6271 64.7811 60.3911 66.3797 58.7822C66.4442 58.8379 66.497 58.906 66.5349 58.9824C66.5727 59.0588 66.5949 59.1421 66.6001 59.2272C66.6001 61.042 55.7624 62.5232 42.3951 62.5232C29.0277 62.5232 18.1921 61.042 18.1921 59.2272Z" fill="white"/>
<path opacity="0.7" d="M18.4207 59.6372C20.0172 58.0304 30.1462 56.7944 42.4032 56.7944C54.6602 56.7944 64.7893 58.0304 66.3878 59.6372C64.7893 61.244 54.6602 62.4821 42.4032 62.4821C30.1462 62.4821 20.0172 61.244 18.4207 59.6372Z" fill="white"/>
<path opacity="0.7" d="M18.1921 59.1632C18.1921 57.3463 29.0277 55.8672 42.3951 55.8672C55.7624 55.8672 66.6001 57.338 66.6001 59.1632C66.5951 59.2481 66.573 59.3311 66.5351 59.4072C66.4973 59.4833 66.4444 59.5509 66.3797 59.6061C64.7811 57.9993 54.6521 56.7633 42.3951 56.7633C30.1381 56.7633 20.0091 57.9993 18.4126 59.6061C18.3479 59.5509 18.295 59.4833 18.2571 59.4072C18.2192 59.3311 18.1971 59.2481 18.1921 59.1632Z" fill="white"/>
<path d="M51.7392 57.5627L41.6123 57.3712C41.585 57.3684 41.5585 57.3601 41.5344 57.3469C41.5103 57.3338 41.4891 57.3159 41.472 57.2944C41.4549 57.2729 41.4423 57.2482 41.4349 57.2218C41.4275 57.1953 41.4255 57.1677 41.4289 57.1405C41.4267 57.1131 41.4299 57.0855 41.4385 57.0594C41.4471 57.0333 41.4608 57.0091 41.4789 56.9884C41.4969 56.9677 41.5189 56.9508 41.5436 56.9387C41.5683 56.9266 41.5951 56.9195 41.6226 56.918L51.7495 57.1096C51.777 57.1121 51.8037 57.1201 51.828 57.1332C51.8524 57.1463 51.8738 57.1641 51.8911 57.1856C51.9084 57.2072 51.9212 57.2319 51.9287 57.2585C51.9362 57.2851 51.9384 57.3129 51.9349 57.3403C51.9372 57.3678 51.9338 57.3956 51.9251 57.4218C51.9164 57.448 51.9025 57.4723 51.8843 57.493C51.866 57.5138 51.8438 57.5307 51.8188 57.5426C51.7939 57.5546 51.7668 57.5615 51.7392 57.5627Z" fill="#263238"/>
<path opacity="0.2" d="M51.7392 57.5627L41.6123 57.3712C41.585 57.3684 41.5585 57.3601 41.5344 57.3469C41.5103 57.3338 41.4891 57.3159 41.472 57.2944C41.4549 57.2729 41.4423 57.2482 41.4349 57.2218C41.4275 57.1953 41.4255 57.1677 41.4289 57.1405C41.4267 57.1131 41.4299 57.0855 41.4385 57.0594C41.4471 57.0333 41.4608 57.0091 41.4789 56.9884C41.4969 56.9677 41.5189 56.9508 41.5436 56.9387C41.5683 56.9266 41.5951 56.9195 41.6226 56.918L51.7495 57.1096C51.777 57.1121 51.8037 57.1201 51.828 57.1332C51.8524 57.1463 51.8738 57.1641 51.8911 57.1856C51.9084 57.2072 51.9212 57.2319 51.9287 57.2585C51.9362 57.2851 51.9384 57.3129 51.9349 57.3403C51.9372 57.3678 51.9338 57.3956 51.9251 57.4218C51.9164 57.448 51.9025 57.4723 51.8843 57.493C51.866 57.5138 51.8438 57.5307 51.8188 57.5426C51.7939 57.5546 51.7668 57.5615 51.7392 57.5627Z" fill="white"/>
<path d="M56.6565 56.8231L51.8155 57.5544C51.7626 57.5545 51.7117 57.5342 51.6733 57.4978C51.635 57.4613 51.6121 57.4115 51.6095 57.3587C51.601 57.3033 51.6134 57.2468 51.6442 57.2C51.675 57.1532 51.7221 57.1195 51.7763 57.1053L56.6173 56.374C56.6702 56.374 56.7211 56.3942 56.7595 56.4307C56.7978 56.4671 56.8207 56.5169 56.8233 56.5697C56.8317 56.6251 56.8194 56.6817 56.7885 56.7285C56.7577 56.7753 56.7107 56.809 56.6565 56.8231Z" fill="#263238"/>
<path d="M56.6132 56.374H46.3792L41.6226 56.9179L51.4735 57.1033L56.6132 56.374Z" fill="#263238"/>
<path opacity="0.6" d="M56.6132 56.374H46.3792L41.6226 56.9179L51.4735 57.1033L56.6132 56.374Z" fill="white"/>
<path opacity="0.5" d="M56.6565 56.8231L51.8155 57.5544C51.7626 57.5545 51.7117 57.5342 51.6733 57.4978C51.635 57.4613 51.6121 57.4115 51.6095 57.3587C51.601 57.3033 51.6134 57.2468 51.6442 57.2C51.675 57.1532 51.7221 57.1195 51.7763 57.1053L56.6173 56.374C56.6702 56.374 56.7211 56.3942 56.7595 56.4307C56.7978 56.4671 56.8207 56.5169 56.8233 56.5697C56.8317 56.6251 56.8194 56.6817 56.7885 56.7285C56.7577 56.7753 56.7107 56.809 56.6565 56.8231Z" fill="white"/>
<path d="M51.4735 57.1032L42.0305 56.926C41.8524 56.9033 41.6889 56.8162 41.5708 56.681C41.4528 56.5459 41.3884 56.3721 41.3898 56.1927L41.1055 50.4906C41.0849 50.093 41.3424 49.7737 41.6741 49.7799L51.1171 49.9591C51.2955 49.9809 51.4596 50.0678 51.5778 50.2032C51.696 50.3385 51.7601 50.5128 51.7578 50.6925L52.0441 56.3925C52.0627 56.7901 51.8072 57.1094 51.4735 57.1032Z" fill="#683089"/>
<path opacity="0.2" d="M51.4735 57.1032L42.0305 56.926C41.8524 56.9033 41.6889 56.8162 41.5708 56.681C41.4528 56.5459 41.3884 56.3721 41.3898 56.1927L41.1055 50.4906C41.0849 50.093 41.3424 49.7737 41.6741 49.7799L51.1171 49.9591C51.2955 49.9809 51.4596 50.0678 51.5778 50.2032C51.696 50.3385 51.7601 50.5128 51.7578 50.6925L52.0441 56.3925C52.0627 56.7901 51.8072 57.1094 51.4735 57.1032Z" fill="white"/>
<path d="M51.1974 57.0744L41.7544 56.8952C41.576 56.873 41.412 56.786 41.2935 56.6508C41.175 56.5156 41.1103 56.3416 41.1117 56.1618L40.8274 50.4701C40.8068 50.0725 41.0643 49.7532 41.398 49.7594L50.839 49.9365C51.0174 49.9587 51.1814 50.0457 51.2999 50.1809C51.4184 50.3161 51.4831 50.4901 51.4817 50.6699L51.7701 56.3637C51.7866 56.7613 51.5291 57.0806 51.1974 57.0744Z" fill="#683089"/>
<path opacity="0.6" d="M51.1974 57.0744L41.7544 56.8952C41.576 56.873 41.412 56.786 41.2935 56.6508C41.175 56.5156 41.1103 56.3416 41.1117 56.1618L40.8274 50.4701C40.8068 50.0725 41.0643 49.7532 41.398 49.7594L50.839 49.9365C51.0174 49.9587 51.1814 50.0457 51.2999 50.1809C51.4184 50.3161 51.4831 50.4901 51.4817 50.6699L51.7701 56.3637C51.7866 56.7613 51.5291 57.0806 51.1974 57.0744Z" fill="white"/>
<path d="M45.0463 53.3193C45.0739 53.5906 45.2001 53.8424 45.401 54.0269C45.6018 54.2114 45.8633 54.3158 46.136 54.3205C46.2642 54.3227 46.3915 54.2976 46.5092 54.2469C46.627 54.1961 46.7327 54.1209 46.8192 54.0262C46.9057 53.9316 46.971 53.8196 47.0109 53.6977C47.0509 53.5758 47.0644 53.4468 47.0506 53.3193C47.0207 53.0495 46.8936 52.7997 46.6931 52.6166C46.4926 52.4336 46.2323 52.3297 45.9609 52.3243C45.8332 52.3222 45.7066 52.3472 45.5893 52.3976C45.472 52.4479 45.3667 52.5225 45.2803 52.6165C45.1939 52.7105 45.1283 52.8217 45.088 52.9429C45.0477 53.064 45.0334 53.1923 45.0463 53.3193Z" fill="white"/>
</svg>
