<svg width="64" height="64" viewBox="0 0 64 64" fill="none" xmlns="http://www.w3.org/2000/svg">
<circle cx="32" cy="32" r="32" fill="#E5DDF4"/>
<path d="M37.6533 18.6666H26.3466C22.6666 18.6666 21.3333 20 21.3333 23.7466V40.2533C21.3333 44 22.6666 45.3333 26.3466 45.3333H37.6399C41.3333 45.3333 42.6666 44 42.6666 40.2533V23.7466C42.6666 20 41.3333 18.6666 37.6533 18.6666ZM31.9999 41.7333C30.7199 41.7333 29.6666 40.68 29.6666 39.4C29.6666 38.12 30.7199 37.0666 31.9999 37.0666C33.2799 37.0666 34.3333 38.12 34.3333 39.4C34.3333 40.68 33.2799 41.7333 31.9999 41.7333ZM34.6666 24.3333H29.3333C28.7866 24.3333 28.3333 23.88 28.3333 23.3333C28.3333 22.7866 28.7866 22.3333 29.3333 22.3333H34.6666C35.2133 22.3333 35.6666 22.7866 35.6666 23.3333C35.6666 23.88 35.2133 24.3333 34.6666 24.3333Z" fill="#522C6C"/>
</svg>
