<svg width="32" height="32" viewBox="0 0 32 32" fill="none" xmlns="http://www.w3.org/2000/svg">
<path d="M29.2266 22.3335C28.7866 25.8801 25.88 28.7868 22.3333 29.2268C20.1866 29.4935 18.1866 28.9068 16.6266 27.7601C15.7333 27.1068 15.9466 25.7201 17.0133 25.4001C21.0266 24.1868 24.1866 21.0135 25.4133 17.0001C25.7333 15.9468 27.12 15.7335 27.7733 16.6135C28.9066 18.1868 29.4933 20.1868 29.2266 22.3335Z" fill="#522C6C"/>
<path d="M13.32 2.6665C7.43996 2.6665 2.66663 7.43984 2.66663 13.3198C2.66663 19.1998 7.43996 23.9732 13.32 23.9732C19.2 23.9732 23.9733 19.1998 23.9733 13.3198C23.96 7.43984 19.2 2.6665 13.32 2.6665ZM12.0666 11.8265L15.28 12.9465C16.44 13.3598 17 14.1732 17 15.4265C17 16.8665 15.8533 18.0532 14.4533 18.0532H14.3333V18.1198C14.3333 18.6665 13.88 19.1198 13.3333 19.1198C12.7866 19.1198 12.3333 18.6665 12.3333 18.1198V18.0398C10.8533 17.9732 9.66663 16.7332 9.66663 15.1865C9.66663 14.6398 10.12 14.1865 10.6666 14.1865C11.2133 14.1865 11.6666 14.6398 11.6666 15.1865C11.6666 15.6665 12.0133 16.0532 12.44 16.0532H14.44C14.7466 16.0532 14.9866 15.7732 14.9866 15.4265C14.9866 14.9598 14.9066 14.9332 14.6 14.8265L11.3866 13.7065C10.24 13.3065 9.66663 12.4932 9.66663 11.2265C9.66663 9.7865 10.8133 8.59984 12.2133 8.59984H12.3333V8.5465C12.3333 7.99984 12.7866 7.5465 13.3333 7.5465C13.88 7.5465 14.3333 7.99984 14.3333 8.5465V8.6265C15.8133 8.69317 17 9.93317 17 11.4798C17 12.0265 16.5466 12.4798 16 12.4798C15.4533 12.4798 15 12.0265 15 11.4798C15 10.9998 14.6533 10.6132 14.2266 10.6132H12.2266C11.92 10.6132 11.68 10.8932 11.68 11.2398C11.6666 11.6932 11.7466 11.7198 12.0666 11.8265Z" fill="#522C6C"/>
</svg>
