<svg width="64" height="64" viewBox="0 0 64 64" fill="none" xmlns="http://www.w3.org/2000/svg">
<circle cx="32" cy="32" r="32" fill="#E5DDF4"/>
<path d="M26.2001 43.88C26.1601 43.88 26.1067 43.9066 26.0667 43.9066C23.4801 42.6266 21.3734 40.5066 20.0801 37.92C20.0801 37.88 20.1067 37.8266 20.1067 37.7866C21.7334 38.2666 23.4134 38.6266 25.0801 38.9066C25.3734 40.5866 25.7201 42.2533 26.2001 43.88Z" fill="#522C6C"/>
<path d="M43.92 37.9333C42.6 40.5866 40.4 42.7333 37.72 44.0266C38.2266 42.3333 38.6533 40.6266 38.9333 38.9066C40.6133 38.6266 42.2666 38.2666 43.8933 37.7866C43.88 37.84 43.92 37.8933 43.92 37.9333Z" fill="#522C6C"/>
<path d="M44.0266 26.2801C42.3466 25.7734 40.6533 25.3601 38.9333 25.0667C38.6533 23.3467 38.24 21.6401 37.72 19.9734C40.48 21.2934 42.7066 23.5201 44.0266 26.2801Z" fill="#522C6C"/>
<path d="M26.2001 20.12C25.7201 21.7466 25.3734 23.4 25.0934 25.08C23.3734 25.3466 21.6667 25.7733 19.9734 26.28C21.2667 23.6 23.4134 21.4 26.0667 20.08C26.1067 20.08 26.1601 20.12 26.2001 20.12Z" fill="#522C6C"/>
<path d="M36.6533 24.7866C33.56 24.44 30.44 24.44 27.3467 24.7866C27.68 22.96 28.1067 21.1333 28.7067 19.3733C28.7333 19.2666 28.72 19.1866 28.7333 19.08C29.7867 18.8266 30.8667 18.6666 32 18.6666C33.12 18.6666 34.2133 18.8266 35.2533 19.08C35.2667 19.1866 35.2667 19.2666 35.2933 19.3733C35.8933 21.1466 36.32 22.96 36.6533 24.7866Z" fill="#522C6C"/>
<path d="M24.7867 36.6533C22.9467 36.32 21.1334 35.8933 19.3734 35.2933C19.2667 35.2667 19.1867 35.28 19.0801 35.2667C18.8267 34.2133 18.6667 33.1333 18.6667 32C18.6667 30.88 18.8267 29.7867 19.0801 28.7467C19.1867 28.7333 19.2667 28.7333 19.3734 28.7067C21.1467 28.12 22.9467 27.68 24.7867 27.3467C24.4534 30.44 24.4534 33.56 24.7867 36.6533Z" fill="#522C6C"/>
<path d="M45.3334 32C45.3334 33.1333 45.1734 34.2133 44.92 35.2667C44.8134 35.28 44.7334 35.2667 44.6267 35.2933C42.8534 35.88 41.04 36.32 39.2134 36.6533C39.56 33.56 39.56 30.44 39.2134 27.3467C41.04 27.68 42.8667 28.1067 44.6267 28.7067C44.7334 28.7333 44.8134 28.7467 44.92 28.7467C45.1734 29.8 45.3334 30.88 45.3334 32Z" fill="#522C6C"/>
<path d="M36.6533 39.2134C36.32 41.0534 35.8933 42.8667 35.2933 44.6267C35.2667 44.7334 35.2667 44.8134 35.2533 44.92C34.2133 45.1734 33.12 45.3334 32 45.3334C30.8667 45.3334 29.7867 45.1734 28.7333 44.92C28.72 44.8134 28.7333 44.7334 28.7067 44.6267C28.12 42.8534 27.68 41.0534 27.3467 39.2134C28.8933 39.3867 30.44 39.5067 32 39.5067C33.56 39.5067 35.12 39.3867 36.6533 39.2134Z" fill="#522C6C"/>
<path d="M37.0179 37.0177C33.6831 37.4385 30.3171 37.4385 26.9823 37.0177C26.5616 33.6829 26.5616 30.317 26.9823 26.9822C30.3171 26.5614 33.6831 26.5614 37.0179 26.9822C37.4386 30.317 37.4386 33.6829 37.0179 37.0177Z" fill="#522C6C"/>
</svg>
