<svg width="64" height="64" viewBox="0 0 64 64" fill="none" xmlns="http://www.w3.org/2000/svg">
<circle cx="32" cy="32" r="32" fill="#E5DDF4"/>
<path d="M38.6666 20.6666H25.3333C21.3333 20.6666 18.6666 22.6666 18.6666 27.3333V36.6666C18.6666 41.3333 21.3333 43.3333 25.3333 43.3333H38.6666C42.6666 43.3333 45.3333 41.3333 45.3333 36.6666V27.3333C45.3333 22.6666 42.6666 20.6666 38.6666 20.6666ZM39.2933 28.7866L35.12 32.12C34.24 32.8266 33.12 33.1733 32 33.1733C30.88 33.1733 29.7466 32.8266 28.88 32.12L24.7066 28.7866C24.28 28.44 24.2133 27.8 24.5466 27.3733C24.8933 26.9466 25.52 26.8666 25.9466 27.2133L30.12 30.5466C31.1333 31.36 32.8533 31.36 33.8666 30.5466L38.04 27.2133C38.4666 26.8666 39.1066 26.9333 39.44 27.3733C39.7866 27.8 39.72 28.44 39.2933 28.7866Z" fill="#522C6C"/>
</svg>
