<svg width="26" height="24" viewBox="0 0 26 24" fill="none" xmlns="http://www.w3.org/2000/svg">
<path d="M14.7184 3.51063L16.4974 7.03063C16.74 7.52063 17.3869 7.99062 17.9328 8.08063L21.1572 8.61062C23.2193 8.95062 23.7045 10.4306 22.2186 11.8906L19.7118 14.3706C19.2873 14.7906 19.0548 15.6006 19.1862 16.1806L19.9038 19.2506C20.4699 21.6806 19.166 22.6206 16.9927 21.3506L13.9704 19.5806C13.4246 19.2606 12.525 19.2606 11.969 19.5806L8.94674 21.3506C6.78363 22.6206 5.46958 21.6706 6.03563 19.2506L6.7533 16.1806C6.88471 15.6006 6.65222 14.7906 6.22769 14.3706L3.7209 11.8906C2.24512 10.4306 2.7202 8.95062 4.78224 8.61062L8.0067 8.08063C8.54242 7.99062 9.18934 7.52063 9.43193 7.03063L11.2109 3.51063C12.1813 1.60063 13.7582 1.60063 14.7184 3.51063Z" fill="#522C6C" stroke="#522C6C" stroke-width="1.5" stroke-linecap="round" stroke-linejoin="round"/>
</svg>
