<svg width="64" height="64" viewBox="0 0 64 64" fill="none" xmlns="http://www.w3.org/2000/svg">
<circle cx="32" cy="32" r="32" fill="#E5DDF4"/>
<path d="M31.9999 34.6666C25.3199 34.6666 19.8799 39.1466 19.8799 44.6666C19.8799 45.04 20.1732 45.3333 20.5465 45.3333H43.4532C43.8265 45.3333 44.1199 45.04 44.1199 44.6666C44.1199 39.1466 38.6799 34.6666 31.9999 34.6666Z" fill="#522C6C"/>
<path d="M31.9999 18.6666C30.4266 18.6666 28.9866 19.2133 27.8399 20.1333C26.3066 21.3466 25.3333 23.2266 25.3333 25.3333C25.3333 26.5866 25.6799 27.76 26.3066 28.76C27.4533 30.6933 29.5599 32 31.9999 32C33.6799 32 35.2133 31.3866 36.3866 30.3333C36.9066 29.8933 37.3599 29.36 37.7066 28.76C38.3199 27.76 38.6666 26.5866 38.6666 25.3333C38.6666 21.6533 35.6799 18.6666 31.9999 18.6666ZM35.4533 24.6133L31.8933 27.8933C31.6533 28.12 31.3466 28.2266 31.0399 28.2266C30.7199 28.2266 30.3999 28.1066 30.1599 27.8666L28.5199 26.2133C28.0266 25.72 28.0266 24.9333 28.5199 24.44C29.0133 23.9466 29.7999 23.9466 30.2933 24.44L31.0799 25.2266L33.7599 22.76C34.2666 22.2933 35.0533 22.32 35.5199 22.8266C35.9866 23.3466 35.9599 24.1466 35.4533 24.6133Z" fill="#522C6C"/>
</svg>
