<svg width="18" height="18" viewBox="0 0 18 18" fill="none" xmlns="http://www.w3.org/2000/svg">
<path d="M5.62498 9.00035C5.62498 8.57689 5.7054 8.1716 5.85099 7.79666C6.02688 7.34369 5.99674 6.80711 5.65314 6.46351L4.05857 4.86894C3.64851 4.45888 2.9706 4.48017 2.65697 4.96796C1.90825 6.13245 1.47748 7.5167 1.47748 9.00035C1.47748 10.4824 1.90734 11.8653 2.65084 13.029C2.96349 13.5184 3.64241 13.5413 4.05355 13.1312L5.65161 11.5372C5.99599 11.1937 6.02652 10.6565 5.8506 10.203C5.70526 9.82838 5.62498 9.42343 5.62498 9.00035Z" fill="#522C6C"/>
<path d="M8.99997 5.625C9.42343 5.625 9.82873 5.70542 10.2037 5.85101C10.6566 6.0269 11.1932 5.99676 11.5368 5.65316L13.111 4.07893C13.5203 3.66967 13.5001 2.99326 13.0136 2.67956C11.8526 1.9308 10.4671 1.5 8.97747 1.5C7.49563 1.5 6.11768 1.92972 4.95602 2.673C4.46688 2.98598 4.44401 3.66493 4.85411 4.07607L6.43518 5.66118C6.78108 6.00796 7.32297 6.03632 7.77871 5.85683C8.15697 5.70786 8.56811 5.625 8.99997 5.625Z" fill="#522C6C"/>
<path d="M14.9989 4.53625C14.8253 4.30349 14.4875 4.2917 14.282 4.49675L12.0382 6.73479C11.8648 6.90774 11.8459 7.17911 11.9633 7.39405C12.224 7.87157 12.375 8.41676 12.375 8.99969C12.375 9.58281 12.2239 10.1282 11.963 10.6058C11.8457 10.8205 11.8644 11.0916 12.0374 11.2646L14.2819 13.5092C14.4874 13.7146 14.8256 13.703 14.9992 13.47C15.9289 12.2218 16.4775 10.6741 16.4775 8.99969C16.4775 7.32514 15.9287 5.78325 14.9989 4.53625Z" fill="#522C6C"/>
<path d="M9.00002 12.3748C8.4169 12.3748 7.87154 12.2237 7.39391 11.9628C7.1792 11.8455 6.90813 11.8642 6.73513 12.0372L4.46806 14.3043C4.26258 14.5098 4.27417 14.8479 4.50723 15.0215C5.7554 15.9512 7.30316 16.4998 8.97752 16.4998C10.6597 16.4998 12.209 15.9505 13.4523 15.0143C13.6835 14.8402 13.6939 14.5037 13.4893 14.2991L11.2397 12.0495C11.0679 11.8777 10.7992 11.8579 10.5851 11.9729C10.1098 12.2284 9.57146 12.3748 9.00002 12.3748Z" fill="#522C6C"/>
</svg>
