<svg width="18" height="18" viewBox="0 0 18 18" fill="none" xmlns="http://www.w3.org/2000/svg">
<path d="M16.1475 11.947C16.0275 11.7445 15.69 11.4295 14.85 11.5795C14.385 11.662 13.9125 11.6995 13.44 11.677C11.6925 11.602 10.11 10.7995 9.00753 9.56204C8.03253 8.47454 7.43253 7.05704 7.42502 5.52704C7.42502 4.67204 7.59002 3.84704 7.92753 3.06704C8.25752 2.30954 8.02502 1.91204 7.86002 1.74704C7.68752 1.57454 7.28253 1.33454 6.48752 1.66454C3.42002 2.95454 1.52253 6.02954 1.74753 9.32204C1.97253 12.4195 4.14753 15.067 7.02752 16.0645C7.71753 16.3045 8.44503 16.447 9.19503 16.477C9.31503 16.4845 9.43503 16.492 9.55503 16.492C12.0675 16.492 14.4225 15.307 15.9075 13.2895C16.41 12.592 16.275 12.1495 16.1475 11.947Z" fill="#522C6C"/>
</svg>
