<svg width="18" height="18" viewBox="0 0 18 18" fill="none" xmlns="http://www.w3.org/2000/svg">
<path d="M13.875 3.08273L10.1325 1.68023C9.51 1.44773 8.49 1.44773 7.8675 1.68023L4.12499 3.08273C3.2625 3.40523 2.5575 4.42523 2.5575 5.34023V10.9127C2.5575 11.7977 3.14249 12.9602 3.855 13.4927L7.08 15.9002C8.1375 16.6952 9.8775 16.6952 10.935 15.9002L14.16 13.4927C14.8725 12.9602 15.4575 11.7977 15.4575 10.9127V5.34023C15.4425 4.42523 14.7375 3.40523 13.875 3.08273ZM8.9475 5.27273C9.8325 5.27273 10.5525 5.99273 10.5525 6.87773C10.5525 7.74773 9.87 8.44523 9.0075 8.47523H8.9925H8.9775C8.9625 8.47523 8.94749 8.47523 8.9325 8.47523C8.0325 8.44523 7.3575 7.74773 7.3575 6.87773C7.35 5.99273 8.07 5.27273 8.9475 5.27273ZM10.6425 12.2702C10.185 12.5702 9.5925 12.7277 9 12.7277C8.4075 12.7277 7.8075 12.5777 7.3575 12.2702C6.93 11.9852 6.6975 11.5952 6.69 11.1677C6.69 10.7477 6.93 10.3427 7.3575 10.0577C8.265 9.45773 9.7425 9.45773 10.65 10.0577C11.0775 10.3427 11.3175 10.7327 11.3175 11.1602C11.31 11.5802 11.07 11.9852 10.6425 12.2702Z" fill="#522C6C"/>
</svg>
